<?xml version="1.0" encoding="utf-8" standalone="no"?>
<!DOCTYPE svg PUBLIC "-//W3C//DTD SVG 1.1//EN"
  "http://www.w3.org/Graphics/SVG/1.1/DTD/svg11.dtd">
<svg xmlns:xlink="http://www.w3.org/1999/xlink" width="452.52pt" height="299.607496pt" viewBox="0 0 452.52 299.607496" xmlns="http://www.w3.org/2000/svg" version="1.1">
 <metadata>
  <rdf:RDF xmlns:dc="http://purl.org/dc/elements/1.1/" xmlns:cc="http://creativecommons.org/ns#" xmlns:rdf="http://www.w3.org/1999/02/22-rdf-syntax-ns#">
   <cc:Work>
    <dc:type rdf:resource="http://purl.org/dc/dcmitype/StillImage"/>
    <dc:date>2026-08-14T17:07:56.191187</dc:date>
    <dc:format>image/svg+xml</dc:format>
    <dc:creator>
     <cc:Agent>
      <dc:title>Matplotlib v3.11.1, https://matplotlib.org/</dc:title>
     </cc:Agent>
    </dc:creator>
   </cc:Work>
  </rdf:RDF>
 </metadata>
 <defs>
  <style type="text/css">*{stroke-linejoin: round; stroke-linecap: butt}</style>
 </defs>
 <g id="figure_1">
  <g id="patch_1">
   <path d="M 0 299.607496 
L 452.52 299.607496 
L 452.52 -0 
L 0 -0 
z
" style="fill: #ffffff"/>
  </g>
  <g id="axes_1">
   <g id="patch_2">
    <path d="M 45.399102 260.406676 
L 445.32 260.406676 
L 445.32 28.261527 
L 45.399102 28.261527 
z
" style="fill: #ffffff"/>
   </g>
   <g id="matplotlib.axis_1">
    <g id="xtick_1">
     <g id="line2d_1">
      <path d="M 63.577324 260.406676 
L 63.577324 28.261527 
" clip-path="url(#p2c86d02e8a)" style="fill: none; stroke: #b0b0b0; stroke-opacity: 0.25; stroke-width: 0.6; stroke-linecap: square"/>
     </g>
     <g id="line2d_2">
      <defs>
       <path id="m0a333fb5e9" d="M 0 0 
L 0 3.5 
" style="stroke: #000000; stroke-width: 0.8"/>
      </defs>
      <g>
       <use xlink:href="#m0a333fb5e9" x="63.577324" y="260.406676" style="stroke: #000000; stroke-width: 0.8"/>
      </g>
     </g>
     <g id="text_1">
      <!-- 100 -->
      <g transform="translate(53.556387 275.384215) scale(0.105 -0.105)">
       <defs>
        <path id="DejaVuSans-14" d="M 794 531 
L 1825 531 
L 1825 4091 
L 703 3866 
L 703 4441 
L 1819 4666 
L 2450 4666 
L 2450 531 
L 3481 531 
L 3481 0 
L 794 0 
L 794 531 
z
" transform="scale(0.015625)"/>
        <path id="DejaVuSans-13" d="M 2034 4250 
Q 1547 4250 1301 3770 
Q 1056 3291 1056 2328 
Q 1056 1369 1301 889 
Q 1547 409 2034 409 
Q 2525 409 2770 889 
Q 3016 1369 3016 2328 
Q 3016 3291 2770 3770 
Q 2525 4250 2034 4250 
z
M 2034 4750 
Q 2819 4750 3233 4129 
Q 3647 3509 3647 2328 
Q 3647 1150 3233 529 
Q 2819 -91 2034 -91 
Q 1250 -91 836 529 
Q 422 1150 422 2328 
Q 422 3509 836 4129 
Q 1250 4750 2034 4750 
z
" transform="scale(0.015625)"/>
       </defs>
       <use xlink:href="#DejaVuSans-14"/>
       <use xlink:href="#DejaVuSans-13" transform="translate(63.625 0)"/>
       <use xlink:href="#DejaVuSans-13" transform="translate(127.25 0)"/>
      </g>
     </g>
    </g>
    <g id="xtick_2">
     <g id="line2d_3">
      <path d="M 154.468437 260.406676 
L 154.468437 28.261527 
" clip-path="url(#p2c86d02e8a)" style="fill: none; stroke: #b0b0b0; stroke-opacity: 0.25; stroke-width: 0.6; stroke-linecap: square"/>
     </g>
     <g id="line2d_4">
      <g>
       <use xlink:href="#m0a333fb5e9" x="154.468437" y="260.406676" style="stroke: #000000; stroke-width: 0.8"/>
      </g>
     </g>
     <g id="text_2">
      <!-- 200 -->
      <g transform="translate(144.4475 275.384215) scale(0.105 -0.105)">
       <defs>
        <path id="DejaVuSans-15" d="M 1228 531 
L 3431 531 
L 3431 0 
L 469 0 
L 469 531 
Q 828 903 1448 1529 
Q 2069 2156 2228 2338 
Q 2531 2678 2651 2914 
Q 2772 3150 2772 3378 
Q 2772 3750 2511 3984 
Q 2250 4219 1831 4219 
Q 1534 4219 1204 4116 
Q 875 4013 500 3803 
L 500 4441 
Q 881 4594 1212 4672 
Q 1544 4750 1819 4750 
Q 2544 4750 2975 4387 
Q 3406 4025 3406 3419 
Q 3406 3131 3298 2873 
Q 3191 2616 2906 2266 
Q 2828 2175 2409 1742 
Q 1991 1309 1228 531 
z
" transform="scale(0.015625)"/>
       </defs>
       <use xlink:href="#DejaVuSans-15"/>
       <use xlink:href="#DejaVuSans-13" transform="translate(63.625 0)"/>
       <use xlink:href="#DejaVuSans-13" transform="translate(127.25 0)"/>
      </g>
     </g>
    </g>
    <g id="xtick_3">
     <g id="line2d_5">
      <path d="M 245.359551 260.406676 
L 245.359551 28.261527 
" clip-path="url(#p2c86d02e8a)" style="fill: none; stroke: #b0b0b0; stroke-opacity: 0.25; stroke-width: 0.6; stroke-linecap: square"/>
     </g>
     <g id="line2d_6">
      <g>
       <use xlink:href="#m0a333fb5e9" x="245.359551" y="260.406676" style="stroke: #000000; stroke-width: 0.8"/>
      </g>
     </g>
     <g id="text_3">
      <!-- 300 -->
      <g transform="translate(235.338613 275.384215) scale(0.105 -0.105)">
       <defs>
        <path id="DejaVuSans-16" d="M 2597 2516 
Q 3050 2419 3304 2112 
Q 3559 1806 3559 1356 
Q 3559 666 3084 287 
Q 2609 -91 1734 -91 
Q 1441 -91 1130 -33 
Q 819 25 488 141 
L 488 750 
Q 750 597 1062 519 
Q 1375 441 1716 441 
Q 2309 441 2620 675 
Q 2931 909 2931 1356 
Q 2931 1769 2642 2001 
Q 2353 2234 1838 2234 
L 1294 2234 
L 1294 2753 
L 1863 2753 
Q 2328 2753 2575 2939 
Q 2822 3125 2822 3475 
Q 2822 3834 2567 4026 
Q 2313 4219 1838 4219 
Q 1578 4219 1281 4162 
Q 984 4106 628 3988 
L 628 4550 
Q 988 4650 1302 4700 
Q 1616 4750 1894 4750 
Q 2613 4750 3031 4423 
Q 3450 4097 3450 3541 
Q 3450 3153 3228 2886 
Q 3006 2619 2597 2516 
z
" transform="scale(0.015625)"/>
       </defs>
       <use xlink:href="#DejaVuSans-16"/>
       <use xlink:href="#DejaVuSans-13" transform="translate(63.625 0)"/>
       <use xlink:href="#DejaVuSans-13" transform="translate(127.25 0)"/>
      </g>
     </g>
    </g>
    <g id="xtick_4">
     <g id="line2d_7">
      <path d="M 336.250664 260.406676 
L 336.250664 28.261527 
" clip-path="url(#p2c86d02e8a)" style="fill: none; stroke: #b0b0b0; stroke-opacity: 0.25; stroke-width: 0.6; stroke-linecap: square"/>
     </g>
     <g id="line2d_8">
      <g>
       <use xlink:href="#m0a333fb5e9" x="336.250664" y="260.406676" style="stroke: #000000; stroke-width: 0.8"/>
      </g>
     </g>
     <g id="text_4">
      <!-- 400 -->
      <g transform="translate(326.229727 275.384215) scale(0.105 -0.105)">
       <defs>
        <path id="DejaVuSans-17" d="M 2419 4116 
L 825 1625 
L 2419 1625 
L 2419 4116 
z
M 2253 4666 
L 3047 4666 
L 3047 1625 
L 3713 1625 
L 3713 1100 
L 3047 1100 
L 3047 0 
L 2419 0 
L 2419 1100 
L 313 1100 
L 313 1709 
L 2253 4666 
z
" transform="scale(0.015625)"/>
       </defs>
       <use xlink:href="#DejaVuSans-17"/>
       <use xlink:href="#DejaVuSans-13" transform="translate(63.625 0)"/>
       <use xlink:href="#DejaVuSans-13" transform="translate(127.25 0)"/>
      </g>
     </g>
    </g>
    <g id="xtick_5">
     <g id="line2d_9">
      <path d="M 427.141777 260.406676 
L 427.141777 28.261527 
" clip-path="url(#p2c86d02e8a)" style="fill: none; stroke: #b0b0b0; stroke-opacity: 0.25; stroke-width: 0.6; stroke-linecap: square"/>
     </g>
     <g id="line2d_10">
      <g>
       <use xlink:href="#m0a333fb5e9" x="427.141777" y="260.406676" style="stroke: #000000; stroke-width: 0.8"/>
      </g>
     </g>
     <g id="text_5">
      <!-- 500 -->
      <g transform="translate(417.12084 275.384215) scale(0.105 -0.105)">
       <defs>
        <path id="DejaVuSans-18" d="M 691 4666 
L 3169 4666 
L 3169 4134 
L 1269 4134 
L 1269 2991 
Q 1406 3038 1543 3061 
Q 1681 3084 1819 3084 
Q 2600 3084 3056 2656 
Q 3513 2228 3513 1497 
Q 3513 744 3044 326 
Q 2575 -91 1722 -91 
Q 1428 -91 1123 -41 
Q 819 9 494 109 
L 494 744 
Q 775 591 1075 516 
Q 1375 441 1709 441 
Q 2250 441 2565 725 
Q 2881 1009 2881 1497 
Q 2881 1984 2565 2268 
Q 2250 2553 1709 2553 
Q 1456 2553 1204 2497 
Q 953 2441 691 2322 
L 691 4666 
z
" transform="scale(0.015625)"/>
       </defs>
       <use xlink:href="#DejaVuSans-18"/>
       <use xlink:href="#DejaVuSans-13" transform="translate(63.625 0)"/>
       <use xlink:href="#DejaVuSans-13" transform="translate(127.25 0)"/>
      </g>
     </g>
    </g>
    <g id="text_6">
     <!-- Miner population N (S21 Pro units) -->
     <g transform="translate(155.103027 289.885035) scale(0.105 -0.105)">
      <defs>
       <path id="DejaVuSans-30" d="M 628 4666 
L 1569 4666 
L 2759 1491 
L 3956 4666 
L 4897 4666 
L 4897 0 
L 4281 0 
L 4281 4097 
L 3078 897 
L 2444 897 
L 1241 4097 
L 1241 0 
L 628 0 
L 628 4666 
z
" transform="scale(0.015625)"/>
       <path id="DejaVuSans-4c" d="M 603 3500 
L 1178 3500 
L 1178 0 
L 603 0 
L 603 3500 
z
M 603 4863 
L 1178 4863 
L 1178 4134 
L 603 4134 
L 603 4863 
z
" transform="scale(0.015625)"/>
       <path id="DejaVuSans-51" d="M 3513 2113 
L 3513 0 
L 2938 0 
L 2938 2094 
Q 2938 2591 2744 2837 
Q 2550 3084 2163 3084 
Q 1697 3084 1428 2787 
Q 1159 2491 1159 1978 
L 1159 0 
L 581 0 
L 581 3500 
L 1159 3500 
L 1159 2956 
Q 1366 3272 1645 3428 
Q 1925 3584 2291 3584 
Q 2894 3584 3203 3211 
Q 3513 2838 3513 2113 
z
" transform="scale(0.015625)"/>
       <path id="DejaVuSans-48" d="M 3597 1894 
L 3597 1613 
L 953 1613 
Q 991 1019 1311 708 
Q 1631 397 2203 397 
Q 2534 397 2845 478 
Q 3156 559 3463 722 
L 3463 178 
Q 3153 47 2828 -22 
Q 2503 -91 2169 -91 
Q 1331 -91 842 396 
Q 353 884 353 1716 
Q 353 2575 817 3079 
Q 1281 3584 2069 3584 
Q 2775 3584 3186 3129 
Q 3597 2675 3597 1894 
z
M 3022 2063 
Q 3016 2534 2758 2815 
Q 2500 3097 2075 3097 
Q 1594 3097 1305 2825 
Q 1016 2553 972 2059 
L 3022 2063 
z
" transform="scale(0.015625)"/>
       <path id="DejaVuSans-55" d="M 2631 2963 
Q 2534 3019 2420 3045 
Q 2306 3072 2169 3072 
Q 1681 3072 1420 2755 
Q 1159 2438 1159 1844 
L 1159 0 
L 581 0 
L 581 3500 
L 1159 3500 
L 1159 2956 
Q 1341 3275 1631 3429 
Q 1922 3584 2338 3584 
Q 2397 3584 2469 3576 
Q 2541 3569 2628 3553 
L 2631 2963 
z
" transform="scale(0.015625)"/>
       <path id="DejaVuSans-3" transform="scale(0.015625)"/>
       <path id="DejaVuSans-53" d="M 1159 525 
L 1159 -1331 
L 581 -1331 
L 581 3500 
L 1159 3500 
L 1159 2969 
Q 1341 3281 1617 3432 
Q 1894 3584 2278 3584 
Q 2916 3584 3314 3078 
Q 3713 2572 3713 1747 
Q 3713 922 3314 415 
Q 2916 -91 2278 -91 
Q 1894 -91 1617 61 
Q 1341 213 1159 525 
z
M 3116 1747 
Q 3116 2381 2855 2742 
Q 2594 3103 2138 3103 
Q 1681 3103 1420 2742 
Q 1159 2381 1159 1747 
Q 1159 1113 1420 752 
Q 1681 391 2138 391 
Q 2594 391 2855 752 
Q 3116 1113 3116 1747 
z
" transform="scale(0.015625)"/>
       <path id="DejaVuSans-52" d="M 1959 3097 
Q 1497 3097 1228 2736 
Q 959 2375 959 1747 
Q 959 1119 1226 758 
Q 1494 397 1959 397 
Q 2419 397 2687 759 
Q 2956 1122 2956 1747 
Q 2956 2369 2687 2733 
Q 2419 3097 1959 3097 
z
M 1959 3584 
Q 2709 3584 3137 3096 
Q 3566 2609 3566 1747 
Q 3566 888 3137 398 
Q 2709 -91 1959 -91 
Q 1206 -91 779 398 
Q 353 888 353 1747 
Q 353 2609 779 3096 
Q 1206 3584 1959 3584 
z
" transform="scale(0.015625)"/>
       <path id="DejaVuSans-58" d="M 544 1381 
L 544 3500 
L 1119 3500 
L 1119 1403 
Q 1119 906 1312 657 
Q 1506 409 1894 409 
Q 2359 409 2629 706 
Q 2900 1003 2900 1516 
L 2900 3500 
L 3475 3500 
L 3475 0 
L 2900 0 
L 2900 538 
Q 2691 219 2414 64 
Q 2138 -91 1772 -91 
Q 1169 -91 856 284 
Q 544 659 544 1381 
z
M 1991 3584 
L 1991 3584 
z
" transform="scale(0.015625)"/>
       <path id="DejaVuSans-4f" d="M 603 4863 
L 1178 4863 
L 1178 0 
L 603 0 
L 603 4863 
z
" transform="scale(0.015625)"/>
       <path id="DejaVuSans-44" d="M 2194 1759 
Q 1497 1759 1228 1600 
Q 959 1441 959 1056 
Q 959 750 1161 570 
Q 1363 391 1709 391 
Q 2188 391 2477 730 
Q 2766 1069 2766 1631 
L 2766 1759 
L 2194 1759 
z
M 3341 1997 
L 3341 0 
L 2766 0 
L 2766 531 
Q 2569 213 2275 61 
Q 1981 -91 1556 -91 
Q 1019 -91 701 211 
Q 384 513 384 1019 
Q 384 1609 779 1909 
Q 1175 2209 1959 2209 
L 2766 2209 
L 2766 2266 
Q 2766 2663 2505 2880 
Q 2244 3097 1772 3097 
Q 1472 3097 1187 3025 
Q 903 2953 641 2809 
L 641 3341 
Q 956 3463 1253 3523 
Q 1550 3584 1831 3584 
Q 2591 3584 2966 3190 
Q 3341 2797 3341 1997 
z
" transform="scale(0.015625)"/>
       <path id="DejaVuSans-57" d="M 1172 4494 
L 1172 3500 
L 2356 3500 
L 2356 3053 
L 1172 3053 
L 1172 1153 
Q 1172 725 1289 603 
Q 1406 481 1766 481 
L 2356 481 
L 2356 0 
L 1766 0 
Q 1100 0 847 248 
Q 594 497 594 1153 
L 594 3053 
L 172 3053 
L 172 3500 
L 594 3500 
L 594 4494 
L 1172 4494 
z
" transform="scale(0.015625)"/>
       <path id="DejaVuSans-31" d="M 628 4666 
L 1478 4666 
L 3547 763 
L 3547 4666 
L 4159 4666 
L 4159 0 
L 3309 0 
L 1241 3903 
L 1241 0 
L 628 0 
L 628 4666 
z
" transform="scale(0.015625)"/>
       <path id="DejaVuSans-b" d="M 1984 4856 
Q 1566 4138 1362 3434 
Q 1159 2731 1159 2009 
Q 1159 1288 1364 580 
Q 1569 -128 1984 -844 
L 1484 -844 
Q 1016 -109 783 600 
Q 550 1309 550 2009 
Q 550 2706 781 3412 
Q 1013 4119 1484 4856 
L 1984 4856 
z
" transform="scale(0.015625)"/>
       <path id="DejaVuSans-36" d="M 3425 4513 
L 3425 3897 
Q 3066 4069 2747 4153 
Q 2428 4238 2131 4238 
Q 1616 4238 1336 4038 
Q 1056 3838 1056 3469 
Q 1056 3159 1242 3001 
Q 1428 2844 1947 2747 
L 2328 2669 
Q 3034 2534 3370 2195 
Q 3706 1856 3706 1288 
Q 3706 609 3251 259 
Q 2797 -91 1919 -91 
Q 1588 -91 1214 -16 
Q 841 59 441 206 
L 441 856 
Q 825 641 1194 531 
Q 1563 422 1919 422 
Q 2459 422 2753 634 
Q 3047 847 3047 1241 
Q 3047 1584 2836 1778 
Q 2625 1972 2144 2069 
L 1759 2144 
Q 1053 2284 737 2584 
Q 422 2884 422 3419 
Q 422 4038 858 4394 
Q 1294 4750 2059 4750 
Q 2388 4750 2728 4690 
Q 3069 4631 3425 4513 
z
" transform="scale(0.015625)"/>
       <path id="DejaVuSans-33" d="M 1259 4147 
L 1259 2394 
L 2053 2394 
Q 2494 2394 2734 2622 
Q 2975 2850 2975 3272 
Q 2975 3691 2734 3919 
Q 2494 4147 2053 4147 
L 1259 4147 
z
M 628 4666 
L 2053 4666 
Q 2838 4666 3239 4311 
Q 3641 3956 3641 3272 
Q 3641 2581 3239 2228 
Q 2838 1875 2053 1875 
L 1259 1875 
L 1259 0 
L 628 0 
L 628 4666 
z
" transform="scale(0.015625)"/>
       <path id="DejaVuSans-56" d="M 2834 3397 
L 2834 2853 
Q 2591 2978 2328 3040 
Q 2066 3103 1784 3103 
Q 1356 3103 1142 2972 
Q 928 2841 928 2578 
Q 928 2378 1081 2264 
Q 1234 2150 1697 2047 
L 1894 2003 
Q 2506 1872 2764 1633 
Q 3022 1394 3022 966 
Q 3022 478 2636 193 
Q 2250 -91 1575 -91 
Q 1294 -91 989 -36 
Q 684 19 347 128 
L 347 722 
Q 666 556 975 473 
Q 1284 391 1588 391 
Q 1994 391 2212 530 
Q 2431 669 2431 922 
Q 2431 1156 2273 1281 
Q 2116 1406 1581 1522 
L 1381 1569 
Q 847 1681 609 1914 
Q 372 2147 372 2553 
Q 372 3047 722 3315 
Q 1072 3584 1716 3584 
Q 2034 3584 2315 3537 
Q 2597 3491 2834 3397 
z
" transform="scale(0.015625)"/>
       <path id="DejaVuSans-c" d="M 513 4856 
L 1013 4856 
Q 1481 4119 1714 3412 
Q 1947 2706 1947 2009 
Q 1947 1309 1714 600 
Q 1481 -109 1013 -844 
L 513 -844 
Q 928 -128 1133 580 
Q 1338 1288 1338 2009 
Q 1338 2731 1133 3434 
Q 928 4138 513 4856 
z
" transform="scale(0.015625)"/>
      </defs>
      <use xlink:href="#DejaVuSans-30"/>
      <use xlink:href="#DejaVuSans-4c" transform="translate(86.28125 0)"/>
      <use xlink:href="#DejaVuSans-51" transform="translate(114.0625 0)"/>
      <use xlink:href="#DejaVuSans-48" transform="translate(177.4375 0)"/>
      <use xlink:href="#DejaVuSans-55" transform="translate(238.96875 0)"/>
      <use xlink:href="#DejaVuSans-3" transform="translate(280.078125 0)"/>
      <use xlink:href="#DejaVuSans-53" transform="translate(311.859375 0)"/>
      <use xlink:href="#DejaVuSans-52" transform="translate(375.34375 0)"/>
      <use xlink:href="#DejaVuSans-53" transform="translate(436.53125 0)"/>
      <use xlink:href="#DejaVuSans-58" transform="translate(500.015625 0)"/>
      <use xlink:href="#DejaVuSans-4f" transform="translate(563.390625 0)"/>
      <use xlink:href="#DejaVuSans-44" transform="translate(591.171875 0)"/>
      <use xlink:href="#DejaVuSans-57" transform="translate(652.453125 0)"/>
      <use xlink:href="#DejaVuSans-4c" transform="translate(691.65625 0)"/>
      <use xlink:href="#DejaVuSans-52" transform="translate(719.4375 0)"/>
      <use xlink:href="#DejaVuSans-51" transform="translate(780.625 0)"/>
      <use xlink:href="#DejaVuSans-3" transform="translate(844 0)"/>
      <use xlink:href="#DejaVuSans-31" transform="translate(875.78125 0)"/>
      <use xlink:href="#DejaVuSans-3" transform="translate(950.59375 0)"/>
      <use xlink:href="#DejaVuSans-b" transform="translate(982.375 0)"/>
      <use xlink:href="#DejaVuSans-36" transform="translate(1021.390625 0)"/>
      <use xlink:href="#DejaVuSans-15" transform="translate(1084.875 0)"/>
      <use xlink:href="#DejaVuSans-14" transform="translate(1148.5 0)"/>
      <use xlink:href="#DejaVuSans-3" transform="translate(1212.125 0)"/>
      <use xlink:href="#DejaVuSans-33" transform="translate(1243.90625 0)"/>
      <use xlink:href="#DejaVuSans-55" transform="translate(1302.453125 0)"/>
      <use xlink:href="#DejaVuSans-52" transform="translate(1341.359375 0)"/>
      <use xlink:href="#DejaVuSans-3" transform="translate(1402.546875 0)"/>
      <use xlink:href="#DejaVuSans-58" transform="translate(1434.328125 0)"/>
      <use xlink:href="#DejaVuSans-51" transform="translate(1497.703125 0)"/>
      <use xlink:href="#DejaVuSans-4c" transform="translate(1561.078125 0)"/>
      <use xlink:href="#DejaVuSans-57" transform="translate(1588.859375 0)"/>
      <use xlink:href="#DejaVuSans-56" transform="translate(1628.0625 0)"/>
      <use xlink:href="#DejaVuSans-c" transform="translate(1680.15625 0)"/>
     </g>
    </g>
   </g>
   <g id="matplotlib.axis_2">
    <g id="ytick_1">
     <g id="line2d_11">
      <path d="M 45.399102 257.39977 
L 445.32 257.39977 
" clip-path="url(#p2c86d02e8a)" style="fill: none; stroke: #b0b0b0; stroke-opacity: 0.25; stroke-width: 0.6; stroke-linecap: square"/>
     </g>
     <g id="line2d_12">
      <defs>
       <path id="m3f8666e9ee" d="M 0 0 
L -3.5 0 
" style="stroke: #000000; stroke-width: 0.8"/>
      </defs>
      <g>
       <use xlink:href="#m3f8666e9ee" x="45.399102" y="257.39977" style="stroke: #000000; stroke-width: 0.8"/>
      </g>
     </g>
     <g id="text_7">
      <!-- 0.2 -->
      <g transform="translate(21.70082 261.38854) scale(0.105 -0.105)">
       <defs>
        <path id="DejaVuSans-11" d="M 684 794 
L 1344 794 
L 1344 0 
L 684 0 
L 684 794 
z
" transform="scale(0.015625)"/>
       </defs>
       <use xlink:href="#DejaVuSans-13"/>
       <use xlink:href="#DejaVuSans-11" transform="translate(63.625 0)"/>
       <use xlink:href="#DejaVuSans-15" transform="translate(95.40625 0)"/>
      </g>
     </g>
    </g>
    <g id="ytick_2">
     <g id="line2d_13">
      <path d="M 45.399102 212.330452 
L 445.32 212.330452 
" clip-path="url(#p2c86d02e8a)" style="fill: none; stroke: #b0b0b0; stroke-opacity: 0.25; stroke-width: 0.6; stroke-linecap: square"/>
     </g>
     <g id="line2d_14">
      <g>
       <use xlink:href="#m3f8666e9ee" x="45.399102" y="212.330452" style="stroke: #000000; stroke-width: 0.8"/>
      </g>
     </g>
     <g id="text_8">
      <!-- 0.4 -->
      <g transform="translate(21.70082 216.319222) scale(0.105 -0.105)">
       <use xlink:href="#DejaVuSans-13"/>
       <use xlink:href="#DejaVuSans-11" transform="translate(63.625 0)"/>
       <use xlink:href="#DejaVuSans-17" transform="translate(95.40625 0)"/>
      </g>
     </g>
    </g>
    <g id="ytick_3">
     <g id="line2d_15">
      <path d="M 45.399102 167.261135 
L 445.32 167.261135 
" clip-path="url(#p2c86d02e8a)" style="fill: none; stroke: #b0b0b0; stroke-opacity: 0.25; stroke-width: 0.6; stroke-linecap: square"/>
     </g>
     <g id="line2d_16">
      <g>
       <use xlink:href="#m3f8666e9ee" x="45.399102" y="167.261135" style="stroke: #000000; stroke-width: 0.8"/>
      </g>
     </g>
     <g id="text_9">
      <!-- 0.6 -->
      <g transform="translate(21.70082 171.249904) scale(0.105 -0.105)">
       <defs>
        <path id="DejaVuSans-19" d="M 2113 2584 
Q 1688 2584 1439 2293 
Q 1191 2003 1191 1497 
Q 1191 994 1439 701 
Q 1688 409 2113 409 
Q 2538 409 2786 701 
Q 3034 994 3034 1497 
Q 3034 2003 2786 2293 
Q 2538 2584 2113 2584 
z
M 3366 4563 
L 3366 3988 
Q 3128 4100 2886 4159 
Q 2644 4219 2406 4219 
Q 1781 4219 1451 3797 
Q 1122 3375 1075 2522 
Q 1259 2794 1537 2939 
Q 1816 3084 2150 3084 
Q 2853 3084 3261 2657 
Q 3669 2231 3669 1497 
Q 3669 778 3244 343 
Q 2819 -91 2113 -91 
Q 1303 -91 875 529 
Q 447 1150 447 2328 
Q 447 3434 972 4092 
Q 1497 4750 2381 4750 
Q 2619 4750 2861 4703 
Q 3103 4656 3366 4563 
z
" transform="scale(0.015625)"/>
       </defs>
       <use xlink:href="#DejaVuSans-13"/>
       <use xlink:href="#DejaVuSans-11" transform="translate(63.625 0)"/>
       <use xlink:href="#DejaVuSans-19" transform="translate(95.40625 0)"/>
      </g>
     </g>
    </g>
    <g id="ytick_4">
     <g id="line2d_17">
      <path d="M 45.399102 122.191817 
L 445.32 122.191817 
" clip-path="url(#p2c86d02e8a)" style="fill: none; stroke: #b0b0b0; stroke-opacity: 0.25; stroke-width: 0.6; stroke-linecap: square"/>
     </g>
     <g id="line2d_18">
      <g>
       <use xlink:href="#m3f8666e9ee" x="45.399102" y="122.191817" style="stroke: #000000; stroke-width: 0.8"/>
      </g>
     </g>
     <g id="text_10">
      <!-- 0.8 -->
      <g transform="translate(21.70082 126.180587) scale(0.105 -0.105)">
       <defs>
        <path id="DejaVuSans-1b" d="M 2034 2216 
Q 1584 2216 1326 1975 
Q 1069 1734 1069 1313 
Q 1069 891 1326 650 
Q 1584 409 2034 409 
Q 2484 409 2743 651 
Q 3003 894 3003 1313 
Q 3003 1734 2745 1975 
Q 2488 2216 2034 2216 
z
M 1403 2484 
Q 997 2584 770 2862 
Q 544 3141 544 3541 
Q 544 4100 942 4425 
Q 1341 4750 2034 4750 
Q 2731 4750 3128 4425 
Q 3525 4100 3525 3541 
Q 3525 3141 3298 2862 
Q 3072 2584 2669 2484 
Q 3125 2378 3379 2068 
Q 3634 1759 3634 1313 
Q 3634 634 3220 271 
Q 2806 -91 2034 -91 
Q 1263 -91 848 271 
Q 434 634 434 1313 
Q 434 1759 690 2068 
Q 947 2378 1403 2484 
z
M 1172 3481 
Q 1172 3119 1398 2916 
Q 1625 2713 2034 2713 
Q 2441 2713 2670 2916 
Q 2900 3119 2900 3481 
Q 2900 3844 2670 4047 
Q 2441 4250 2034 4250 
Q 1625 4250 1398 4047 
Q 1172 3844 1172 3481 
z
" transform="scale(0.015625)"/>
       </defs>
       <use xlink:href="#DejaVuSans-13"/>
       <use xlink:href="#DejaVuSans-11" transform="translate(63.625 0)"/>
       <use xlink:href="#DejaVuSans-1b" transform="translate(95.40625 0)"/>
      </g>
     </g>
    </g>
    <g id="ytick_5">
     <g id="line2d_19">
      <path d="M 45.399102 77.1225 
L 445.32 77.1225 
" clip-path="url(#p2c86d02e8a)" style="fill: none; stroke: #b0b0b0; stroke-opacity: 0.25; stroke-width: 0.6; stroke-linecap: square"/>
     </g>
     <g id="line2d_20">
      <g>
       <use xlink:href="#m3f8666e9ee" x="45.399102" y="77.1225" style="stroke: #000000; stroke-width: 0.8"/>
      </g>
     </g>
     <g id="text_11">
      <!-- 1.0 -->
      <g transform="translate(21.70082 81.111269) scale(0.105 -0.105)">
       <use xlink:href="#DejaVuSans-14"/>
       <use xlink:href="#DejaVuSans-11" transform="translate(63.625 0)"/>
       <use xlink:href="#DejaVuSans-13" transform="translate(95.40625 0)"/>
      </g>
     </g>
    </g>
    <g id="ytick_6">
     <g id="line2d_21">
      <path d="M 45.399102 32.053182 
L 445.32 32.053182 
" clip-path="url(#p2c86d02e8a)" style="fill: none; stroke: #b0b0b0; stroke-opacity: 0.25; stroke-width: 0.6; stroke-linecap: square"/>
     </g>
     <g id="line2d_22">
      <g>
       <use xlink:href="#m3f8666e9ee" x="45.399102" y="32.053182" style="stroke: #000000; stroke-width: 0.8"/>
      </g>
     </g>
     <g id="text_12">
      <!-- 1.2 -->
      <g transform="translate(21.70082 36.041951) scale(0.105 -0.105)">
       <use xlink:href="#DejaVuSans-14"/>
       <use xlink:href="#DejaVuSans-11" transform="translate(63.625 0)"/>
       <use xlink:href="#DejaVuSans-15" transform="translate(95.40625 0)"/>
      </g>
     </g>
    </g>
    <g id="text_13">
     <!-- Total candidate evaluations over T (x10^21 hashes) -->
     <g transform="translate(15.178359 281.468203) rotate(-90) scale(0.105 -0.105)">
      <defs>
       <path id="DejaVuSans-37" d="M -19 4666 
L 3928 4666 
L 3928 4134 
L 2272 4134 
L 2272 0 
L 1638 0 
L 1638 4134 
L -19 4134 
L -19 4666 
z
" transform="scale(0.015625)"/>
       <path id="DejaVuSans-46" d="M 3122 3366 
L 3122 2828 
Q 2878 2963 2633 3030 
Q 2388 3097 2138 3097 
Q 1578 3097 1268 2742 
Q 959 2388 959 1747 
Q 959 1106 1268 751 
Q 1578 397 2138 397 
Q 2388 397 2633 464 
Q 2878 531 3122 666 
L 3122 134 
Q 2881 22 2623 -34 
Q 2366 -91 2075 -91 
Q 1284 -91 818 406 
Q 353 903 353 1747 
Q 353 2603 823 3093 
Q 1294 3584 2113 3584 
Q 2378 3584 2631 3529 
Q 2884 3475 3122 3366 
z
" transform="scale(0.015625)"/>
       <path id="DejaVuSans-47" d="M 2906 2969 
L 2906 4863 
L 3481 4863 
L 3481 0 
L 2906 0 
L 2906 525 
Q 2725 213 2448 61 
Q 2172 -91 1784 -91 
Q 1150 -91 751 415 
Q 353 922 353 1747 
Q 353 2572 751 3078 
Q 1150 3584 1784 3584 
Q 2172 3584 2448 3432 
Q 2725 3281 2906 2969 
z
M 947 1747 
Q 947 1113 1208 752 
Q 1469 391 1925 391 
Q 2381 391 2643 752 
Q 2906 1113 2906 1747 
Q 2906 2381 2643 2742 
Q 2381 3103 1925 3103 
Q 1469 3103 1208 2742 
Q 947 2381 947 1747 
z
" transform="scale(0.015625)"/>
       <path id="DejaVuSans-59" d="M 191 3500 
L 800 3500 
L 1894 563 
L 2988 3500 
L 3597 3500 
L 2284 0 
L 1503 0 
L 191 3500 
z
" transform="scale(0.015625)"/>
       <path id="DejaVuSans-5b" d="M 3513 3500 
L 2247 1797 
L 3578 0 
L 2900 0 
L 1881 1375 
L 863 0 
L 184 0 
L 1544 1831 
L 300 3500 
L 978 3500 
L 1906 2253 
L 2834 3500 
L 3513 3500 
z
" transform="scale(0.015625)"/>
       <path id="DejaVuSans-41" d="M 2988 4666 
L 4684 2925 
L 4056 2925 
L 2681 4159 
L 1306 2925 
L 678 2925 
L 2375 4666 
L 2988 4666 
z
" transform="scale(0.015625)"/>
       <path id="DejaVuSans-4b" d="M 3513 2113 
L 3513 0 
L 2938 0 
L 2938 2094 
Q 2938 2591 2744 2837 
Q 2550 3084 2163 3084 
Q 1697 3084 1428 2787 
Q 1159 2491 1159 1978 
L 1159 0 
L 581 0 
L 581 4863 
L 1159 4863 
L 1159 2956 
Q 1366 3272 1645 3428 
Q 1925 3584 2291 3584 
Q 2894 3584 3203 3211 
Q 3513 2838 3513 2113 
z
" transform="scale(0.015625)"/>
      </defs>
      <use xlink:href="#DejaVuSans-37"/>
      <use xlink:href="#DejaVuSans-52" transform="translate(44.09375 0)"/>
      <use xlink:href="#DejaVuSans-57" transform="translate(105.28125 0)"/>
      <use xlink:href="#DejaVuSans-44" transform="translate(144.484375 0)"/>
      <use xlink:href="#DejaVuSans-4f" transform="translate(205.765625 0)"/>
      <use xlink:href="#DejaVuSans-3" transform="translate(233.546875 0)"/>
      <use xlink:href="#DejaVuSans-46" transform="translate(265.328125 0)"/>
      <use xlink:href="#DejaVuSans-44" transform="translate(320.3125 0)"/>
      <use xlink:href="#DejaVuSans-51" transform="translate(381.59375 0)"/>
      <use xlink:href="#DejaVuSans-47" transform="translate(444.96875 0)"/>
      <use xlink:href="#DejaVuSans-4c" transform="translate(508.453125 0)"/>
      <use xlink:href="#DejaVuSans-47" transform="translate(536.234375 0)"/>
      <use xlink:href="#DejaVuSans-44" transform="translate(599.71875 0)"/>
      <use xlink:href="#DejaVuSans-57" transform="translate(661 0)"/>
      <use xlink:href="#DejaVuSans-48" transform="translate(700.203125 0)"/>
      <use xlink:href="#DejaVuSans-3" transform="translate(761.734375 0)"/>
      <use xlink:href="#DejaVuSans-48" transform="translate(793.515625 0)"/>
      <use xlink:href="#DejaVuSans-59" transform="translate(855.046875 0)"/>
      <use xlink:href="#DejaVuSans-44" transform="translate(914.234375 0)"/>
      <use xlink:href="#DejaVuSans-4f" transform="translate(975.515625 0)"/>
      <use xlink:href="#DejaVuSans-58" transform="translate(1003.296875 0)"/>
      <use xlink:href="#DejaVuSans-44" transform="translate(1066.671875 0)"/>
      <use xlink:href="#DejaVuSans-57" transform="translate(1127.953125 0)"/>
      <use xlink:href="#DejaVuSans-4c" transform="translate(1167.15625 0)"/>
      <use xlink:href="#DejaVuSans-52" transform="translate(1194.9375 0)"/>
      <use xlink:href="#DejaVuSans-51" transform="translate(1256.125 0)"/>
      <use xlink:href="#DejaVuSans-56" transform="translate(1319.5 0)"/>
      <use xlink:href="#DejaVuSans-3" transform="translate(1371.59375 0)"/>
      <use xlink:href="#DejaVuSans-52" transform="translate(1403.375 0)"/>
      <use xlink:href="#DejaVuSans-59" transform="translate(1464.5625 0)"/>
      <use xlink:href="#DejaVuSans-48" transform="translate(1523.75 0)"/>
      <use xlink:href="#DejaVuSans-55" transform="translate(1585.28125 0)"/>
      <use xlink:href="#DejaVuSans-3" transform="translate(1626.390625 0)"/>
      <use xlink:href="#DejaVuSans-37" transform="translate(1658.171875 0)"/>
      <use xlink:href="#DejaVuSans-3" transform="translate(1719.25 0)"/>
      <use xlink:href="#DejaVuSans-b" transform="translate(1751.03125 0)"/>
      <use xlink:href="#DejaVuSans-5b" transform="translate(1790.046875 0)"/>
      <use xlink:href="#DejaVuSans-14" transform="translate(1849.234375 0)"/>
      <use xlink:href="#DejaVuSans-13" transform="translate(1912.859375 0)"/>
      <use xlink:href="#DejaVuSans-41" transform="translate(1976.484375 0)"/>
      <use xlink:href="#DejaVuSans-15" transform="translate(2060.28125 0)"/>
      <use xlink:href="#DejaVuSans-14" transform="translate(2123.90625 0)"/>
      <use xlink:href="#DejaVuSans-3" transform="translate(2187.53125 0)"/>
      <use xlink:href="#DejaVuSans-4b" transform="translate(2219.3125 0)"/>
      <use xlink:href="#DejaVuSans-44" transform="translate(2282.6875 0)"/>
      <use xlink:href="#DejaVuSans-56" transform="translate(2343.96875 0)"/>
      <use xlink:href="#DejaVuSans-4b" transform="translate(2396.0625 0)"/>
      <use xlink:href="#DejaVuSans-48" transform="translate(2459.4375 0)"/>
      <use xlink:href="#DejaVuSans-56" transform="translate(2520.96875 0)"/>
      <use xlink:href="#DejaVuSans-c" transform="translate(2573.0625 0)"/>
     </g>
    </g>
   </g>
   <g id="LineCollection_1">
    <path d="M 63.577324 249.737986 
L 63.577324 249.737986 
" clip-path="url(#p2c86d02e8a)" style="fill: none; stroke: #0072b2; stroke-width: 2"/>
    <path d="M 154.468437 197.006884 
L 154.468437 197.006884 
" clip-path="url(#p2c86d02e8a)" style="fill: none; stroke: #0072b2; stroke-width: 2"/>
    <path d="M 245.359551 144.275783 
L 245.359551 144.275783 
" clip-path="url(#p2c86d02e8a)" style="fill: none; stroke: #0072b2; stroke-width: 2"/>
    <path d="M 336.250664 91.544681 
L 336.250664 91.544681 
" clip-path="url(#p2c86d02e8a)" style="fill: none; stroke: #0072b2; stroke-width: 2"/>
    <path d="M 427.141777 38.81358 
L 427.141777 38.81358 
" clip-path="url(#p2c86d02e8a)" style="fill: none; stroke: #0072b2; stroke-width: 2"/>
   </g>
   <g id="line2d_23">
    <defs>
     <path id="me54ff6dac6" d="M 3 0 
L -3 -0 
" style="stroke: #0072b2"/>
    </defs>
    <g clip-path="url(#p2c86d02e8a)">
     <use xlink:href="#me54ff6dac6" x="63.577324" y="249.737986" style="fill: #0072b2; stroke: #0072b2"/>
     <use xlink:href="#me54ff6dac6" x="154.468437" y="197.006884" style="fill: #0072b2; stroke: #0072b2"/>
     <use xlink:href="#me54ff6dac6" x="245.359551" y="144.275783" style="fill: #0072b2; stroke: #0072b2"/>
     <use xlink:href="#me54ff6dac6" x="336.250664" y="91.544681" style="fill: #0072b2; stroke: #0072b2"/>
     <use xlink:href="#me54ff6dac6" x="427.141777" y="38.81358" style="fill: #0072b2; stroke: #0072b2"/>
    </g>
   </g>
   <g id="line2d_24">
    <g clip-path="url(#p2c86d02e8a)">
     <use xlink:href="#me54ff6dac6" x="63.577324" y="249.737986" style="fill: #0072b2; stroke: #0072b2"/>
     <use xlink:href="#me54ff6dac6" x="154.468437" y="197.006884" style="fill: #0072b2; stroke: #0072b2"/>
     <use xlink:href="#me54ff6dac6" x="245.359551" y="144.275783" style="fill: #0072b2; stroke: #0072b2"/>
     <use xlink:href="#me54ff6dac6" x="336.250664" y="91.544681" style="fill: #0072b2; stroke: #0072b2"/>
     <use xlink:href="#me54ff6dac6" x="427.141777" y="38.81358" style="fill: #0072b2; stroke: #0072b2"/>
    </g>
   </g>
   <g id="LineCollection_2">
    <path d="M 63.577324 249.854624 
L 63.577324 249.837524 
" clip-path="url(#p2c86d02e8a)" style="fill: none; stroke: #d55e00; stroke-width: 2"/>
    <path d="M 154.468437 197.253198 
L 154.468437 197.217872 
" clip-path="url(#p2c86d02e8a)" style="fill: none; stroke: #d55e00; stroke-width: 2"/>
    <path d="M 245.359551 144.690321 
L 245.359551 144.631405 
" clip-path="url(#p2c86d02e8a)" style="fill: none; stroke: #d55e00; stroke-width: 2"/>
    <path d="M 336.250664 92.080837 
L 336.250664 91.987514 
" clip-path="url(#p2c86d02e8a)" style="fill: none; stroke: #d55e00; stroke-width: 2"/>
    <path d="M 427.141777 39.554813 
L 427.141777 39.426735 
" clip-path="url(#p2c86d02e8a)" style="fill: none; stroke: #d55e00; stroke-width: 2"/>
   </g>
   <g id="line2d_25">
    <defs>
     <path id="mfed5b4e49c" d="M 3 0 
L -3 -0 
" style="stroke: #d55e00"/>
    </defs>
    <g clip-path="url(#p2c86d02e8a)">
     <use xlink:href="#mfed5b4e49c" x="63.577324" y="249.854624" style="fill: #d55e00; stroke: #d55e00"/>
     <use xlink:href="#mfed5b4e49c" x="154.468437" y="197.253198" style="fill: #d55e00; stroke: #d55e00"/>
     <use xlink:href="#mfed5b4e49c" x="245.359551" y="144.690321" style="fill: #d55e00; stroke: #d55e00"/>
     <use xlink:href="#mfed5b4e49c" x="336.250664" y="92.080837" style="fill: #d55e00; stroke: #d55e00"/>
     <use xlink:href="#mfed5b4e49c" x="427.141777" y="39.554813" style="fill: #d55e00; stroke: #d55e00"/>
    </g>
   </g>
   <g id="line2d_26">
    <g clip-path="url(#p2c86d02e8a)">
     <use xlink:href="#mfed5b4e49c" x="63.577324" y="249.837524" style="fill: #d55e00; stroke: #d55e00"/>
     <use xlink:href="#mfed5b4e49c" x="154.468437" y="197.217872" style="fill: #d55e00; stroke: #d55e00"/>
     <use xlink:href="#mfed5b4e49c" x="245.359551" y="144.631405" style="fill: #d55e00; stroke: #d55e00"/>
     <use xlink:href="#mfed5b4e49c" x="336.250664" y="91.987514" style="fill: #d55e00; stroke: #d55e00"/>
     <use xlink:href="#mfed5b4e49c" x="427.141777" y="39.426735" style="fill: #d55e00; stroke: #d55e00"/>
    </g>
   </g>
   <g id="line2d_27">
    <path d="M 63.577324 249.737986 
L 154.468437 197.006884 
L 245.359551 144.275783 
L 336.250664 91.544681 
L 427.141777 38.81358 
" clip-path="url(#p2c86d02e8a)" style="fill: none; stroke: #0072b2; stroke-width: 2; stroke-linecap: square"/>
    <defs>
     <path id="m490bb3c72a" d="M 0 3.25 
C 0.86191 3.25 1.688635 2.907559 2.298097 2.298097 
C 2.907559 1.688635 3.25 0.86191 3.25 0 
C 3.25 -0.86191 2.907559 -1.688635 2.298097 -2.298097 
C 1.688635 -2.907559 0.86191 -3.25 0 -3.25 
C -0.86191 -3.25 -1.688635 -2.907559 -2.298097 -2.298097 
C -2.907559 -1.688635 -3.25 -0.86191 -3.25 0 
C -3.25 0.86191 -2.907559 1.688635 -2.298097 2.298097 
C -1.688635 2.907559 -0.86191 3.25 0 3.25 
z
" style="stroke: #0072b2"/>
    </defs>
    <g clip-path="url(#p2c86d02e8a)">
     <use xlink:href="#m490bb3c72a" x="63.577324" y="249.737986" style="fill: #0072b2; stroke: #0072b2"/>
     <use xlink:href="#m490bb3c72a" x="154.468437" y="197.006884" style="fill: #0072b2; stroke: #0072b2"/>
     <use xlink:href="#m490bb3c72a" x="245.359551" y="144.275783" style="fill: #0072b2; stroke: #0072b2"/>
     <use xlink:href="#m490bb3c72a" x="336.250664" y="91.544681" style="fill: #0072b2; stroke: #0072b2"/>
     <use xlink:href="#m490bb3c72a" x="427.141777" y="38.81358" style="fill: #0072b2; stroke: #0072b2"/>
    </g>
   </g>
   <g id="line2d_28">
    <path d="M 63.577324 249.846074 
L 154.468437 197.235535 
L 245.359551 144.660863 
L 336.250664 92.034175 
L 427.141777 39.490774 
" clip-path="url(#p2c86d02e8a)" style="fill: none; stroke: #d55e00; stroke-width: 2; stroke-linecap: square"/>
    <defs>
     <path id="m5f398263b0" d="M -3.25 3.25 
L 3.25 3.25 
L 3.25 -3.25 
L -3.25 -3.25 
z
" style="stroke: #d55e00; stroke-linejoin: miter"/>
    </defs>
    <g clip-path="url(#p2c86d02e8a)">
     <use xlink:href="#m5f398263b0" x="63.577324" y="249.846074" style="fill: #d55e00; stroke: #d55e00; stroke-linejoin: miter"/>
     <use xlink:href="#m5f398263b0" x="154.468437" y="197.235535" style="fill: #d55e00; stroke: #d55e00; stroke-linejoin: miter"/>
     <use xlink:href="#m5f398263b0" x="245.359551" y="144.660863" style="fill: #d55e00; stroke: #d55e00; stroke-linejoin: miter"/>
     <use xlink:href="#m5f398263b0" x="336.250664" y="92.034175" style="fill: #d55e00; stroke: #d55e00; stroke-linejoin: miter"/>
     <use xlink:href="#m5f398263b0" x="427.141777" y="39.490774" style="fill: #d55e00; stroke: #d55e00; stroke-linejoin: miter"/>
    </g>
   </g>
   <g id="patch_3">
    <path d="M 45.399102 260.406676 
L 45.399102 28.261527 
" style="fill: none; stroke: #000000; stroke-width: 0.8; stroke-linejoin: miter; stroke-linecap: square"/>
   </g>
   <g id="patch_4">
    <path d="M 45.399102 260.406676 
L 445.32 260.406676 
" style="fill: none; stroke: #000000; stroke-width: 0.8; stroke-linejoin: miter; stroke-linecap: square"/>
   </g>
   <g id="text_14">
    <!-- Physical hashing work vs miner count -->
    <g transform="translate(126.475598 22.261527) scale(0.126 -0.126)">
     <defs>
      <path id="DejaVuSans-5c" d="M 2059 -325 
Q 1816 -950 1584 -1140 
Q 1353 -1331 966 -1331 
L 506 -1331 
L 506 -850 
L 844 -850 
Q 1081 -850 1212 -737 
Q 1344 -625 1503 -206 
L 1606 56 
L 191 3500 
L 800 3500 
L 1894 763 
L 2988 3500 
L 3597 3500 
L 2059 -325 
z
" transform="scale(0.015625)"/>
      <path id="DejaVuSans-4a" d="M 2906 1791 
Q 2906 2416 2648 2759 
Q 2391 3103 1925 3103 
Q 1463 3103 1205 2759 
Q 947 2416 947 1791 
Q 947 1169 1205 825 
Q 1463 481 1925 481 
Q 2391 481 2648 825 
Q 2906 1169 2906 1791 
z
M 3481 434 
Q 3481 -459 3084 -895 
Q 2688 -1331 1869 -1331 
Q 1566 -1331 1297 -1286 
Q 1028 -1241 775 -1147 
L 775 -588 
Q 1028 -725 1275 -790 
Q 1522 -856 1778 -856 
Q 2344 -856 2625 -561 
Q 2906 -266 2906 331 
L 2906 616 
Q 2728 306 2450 153 
Q 2172 0 1784 0 
Q 1141 0 747 490 
Q 353 981 353 1791 
Q 353 2603 747 3093 
Q 1141 3584 1784 3584 
Q 2172 3584 2450 3431 
Q 2728 3278 2906 2969 
L 2906 3500 
L 3481 3500 
L 3481 434 
z
" transform="scale(0.015625)"/>
      <path id="DejaVuSans-5a" d="M 269 3500 
L 844 3500 
L 1563 769 
L 2278 3500 
L 2956 3500 
L 3675 769 
L 4391 3500 
L 4966 3500 
L 4050 0 
L 3372 0 
L 2619 2869 
L 1863 0 
L 1184 0 
L 269 3500 
z
" transform="scale(0.015625)"/>
      <path id="DejaVuSans-4e" d="M 581 4863 
L 1159 4863 
L 1159 1991 
L 2875 3500 
L 3609 3500 
L 1753 1863 
L 3688 0 
L 2938 0 
L 1159 1709 
L 1159 0 
L 581 0 
L 581 4863 
z
" transform="scale(0.015625)"/>
      <path id="DejaVuSans-50" d="M 3328 2828 
Q 3544 3216 3844 3400 
Q 4144 3584 4550 3584 
Q 5097 3584 5394 3201 
Q 5691 2819 5691 2113 
L 5691 0 
L 5113 0 
L 5113 2094 
Q 5113 2597 4934 2840 
Q 4756 3084 4391 3084 
Q 3944 3084 3684 2787 
Q 3425 2491 3425 1978 
L 3425 0 
L 2847 0 
L 2847 2094 
Q 2847 2600 2669 2842 
Q 2491 3084 2119 3084 
Q 1678 3084 1418 2786 
Q 1159 2488 1159 1978 
L 1159 0 
L 581 0 
L 581 3500 
L 1159 3500 
L 1159 2956 
Q 1356 3278 1631 3431 
Q 1906 3584 2284 3584 
Q 2666 3584 2933 3390 
Q 3200 3197 3328 2828 
z
" transform="scale(0.015625)"/>
     </defs>
     <use xlink:href="#DejaVuSans-33"/>
     <use xlink:href="#DejaVuSans-4b" transform="translate(60.296875 0)"/>
     <use xlink:href="#DejaVuSans-5c" transform="translate(123.671875 0)"/>
     <use xlink:href="#DejaVuSans-56" transform="translate(182.859375 0)"/>
     <use xlink:href="#DejaVuSans-4c" transform="translate(234.953125 0)"/>
     <use xlink:href="#DejaVuSans-46" transform="translate(262.734375 0)"/>
     <use xlink:href="#DejaVuSans-44" transform="translate(317.71875 0)"/>
     <use xlink:href="#DejaVuSans-4f" transform="translate(379 0)"/>
     <use xlink:href="#DejaVuSans-3" transform="translate(406.78125 0)"/>
     <use xlink:href="#DejaVuSans-4b" transform="translate(438.5625 0)"/>
     <use xlink:href="#DejaVuSans-44" transform="translate(501.9375 0)"/>
     <use xlink:href="#DejaVuSans-56" transform="translate(563.21875 0)"/>
     <use xlink:href="#DejaVuSans-4b" transform="translate(615.3125 0)"/>
     <use xlink:href="#DejaVuSans-4c" transform="translate(678.6875 0)"/>
     <use xlink:href="#DejaVuSans-51" transform="translate(706.46875 0)"/>
     <use xlink:href="#DejaVuSans-4a" transform="translate(769.84375 0)"/>
     <use xlink:href="#DejaVuSans-3" transform="translate(833.328125 0)"/>
     <use xlink:href="#DejaVuSans-5a" transform="translate(865.109375 0)"/>
     <use xlink:href="#DejaVuSans-52" transform="translate(946.890625 0)"/>
     <use xlink:href="#DejaVuSans-55" transform="translate(1008.078125 0)"/>
     <use xlink:href="#DejaVuSans-4e" transform="translate(1049.1875 0)"/>
     <use xlink:href="#DejaVuSans-3" transform="translate(1107.09375 0)"/>
     <use xlink:href="#DejaVuSans-59" transform="translate(1138.875 0)"/>
     <use xlink:href="#DejaVuSans-56" transform="translate(1198.0625 0)"/>
     <use xlink:href="#DejaVuSans-3" transform="translate(1250.15625 0)"/>
     <use xlink:href="#DejaVuSans-50" transform="translate(1281.9375 0)"/>
     <use xlink:href="#DejaVuSans-4c" transform="translate(1379.34375 0)"/>
     <use xlink:href="#DejaVuSans-51" transform="translate(1407.125 0)"/>
     <use xlink:href="#DejaVuSans-48" transform="translate(1470.5 0)"/>
     <use xlink:href="#DejaVuSans-55" transform="translate(1532.03125 0)"/>
     <use xlink:href="#DejaVuSans-3" transform="translate(1573.140625 0)"/>
     <use xlink:href="#DejaVuSans-46" transform="translate(1604.921875 0)"/>
     <use xlink:href="#DejaVuSans-52" transform="translate(1659.90625 0)"/>
     <use xlink:href="#DejaVuSans-58" transform="translate(1721.09375 0)"/>
     <use xlink:href="#DejaVuSans-51" transform="translate(1784.46875 0)"/>
     <use xlink:href="#DejaVuSans-57" transform="translate(1847.84375 0)"/>
    </g>
   </g>
   <g id="legend_1">
    <g id="LineCollection_3">
     <path d="M 65.349102 47.264887 
L 65.349102 36.764887 
" style="fill: none; stroke: #0072b2; stroke-width: 2"/>
    </g>
    <g id="line2d_29">
     <g>
      <use xlink:href="#me54ff6dac6" x="65.349102" y="47.264887" style="fill: #0072b2; stroke: #0072b2"/>
     </g>
    </g>
    <g id="line2d_30">
     <g>
      <use xlink:href="#me54ff6dac6" x="65.349102" y="36.764887" style="fill: #0072b2; stroke: #0072b2"/>
     </g>
    </g>
    <g id="line2d_31">
     <path d="M 54.849102 42.014887 
L 75.849102 42.014887 
" style="fill: none; stroke: #0072b2; stroke-width: 2; stroke-linecap: square"/>
    </g>
    <g id="line2d_32">
     <g>
      <use xlink:href="#m490bb3c72a" x="65.349102" y="42.014887" style="fill: #0072b2; stroke: #0072b2"/>
     </g>
    </g>
    <g id="text_15">
     <!-- X-PW (traditional PoW) -->
     <g transform="translate(84.249102 45.689887) scale(0.105 -0.105)">
      <defs>
       <path id="DejaVuSans-3b" d="M 403 4666 
L 1081 4666 
L 2241 2931 
L 3406 4666 
L 4084 4666 
L 2584 2425 
L 4184 0 
L 3506 0 
L 2194 1984 
L 872 0 
L 191 0 
L 1856 2491 
L 403 4666 
z
" transform="scale(0.015625)"/>
       <path id="DejaVuSans-10" d="M 313 2009 
L 1997 2009 
L 1997 1497 
L 313 1497 
L 313 2009 
z
" transform="scale(0.015625)"/>
       <path id="DejaVuSans-3a" d="M 213 4666 
L 850 4666 
L 1831 722 
L 2809 4666 
L 3519 4666 
L 4500 722 
L 5478 4666 
L 6119 4666 
L 4947 0 
L 4153 0 
L 3169 4050 
L 2175 0 
L 1381 0 
L 213 4666 
z
" transform="scale(0.015625)"/>
      </defs>
      <use xlink:href="#DejaVuSans-3b"/>
      <use xlink:href="#DejaVuSans-10" transform="translate(63.515625 0)"/>
      <use xlink:href="#DejaVuSans-33" transform="translate(99.59375 0)"/>
      <use xlink:href="#DejaVuSans-3a" transform="translate(159.890625 0)"/>
      <use xlink:href="#DejaVuSans-3" transform="translate(258.765625 0)"/>
      <use xlink:href="#DejaVuSans-b" transform="translate(290.546875 0)"/>
      <use xlink:href="#DejaVuSans-57" transform="translate(329.5625 0)"/>
      <use xlink:href="#DejaVuSans-55" transform="translate(368.765625 0)"/>
      <use xlink:href="#DejaVuSans-44" transform="translate(409.875 0)"/>
      <use xlink:href="#DejaVuSans-47" transform="translate(471.15625 0)"/>
      <use xlink:href="#DejaVuSans-4c" transform="translate(534.640625 0)"/>
      <use xlink:href="#DejaVuSans-57" transform="translate(562.421875 0)"/>
      <use xlink:href="#DejaVuSans-4c" transform="translate(601.625 0)"/>
      <use xlink:href="#DejaVuSans-52" transform="translate(629.40625 0)"/>
      <use xlink:href="#DejaVuSans-51" transform="translate(690.59375 0)"/>
      <use xlink:href="#DejaVuSans-44" transform="translate(753.96875 0)"/>
      <use xlink:href="#DejaVuSans-4f" transform="translate(815.25 0)"/>
      <use xlink:href="#DejaVuSans-3" transform="translate(843.03125 0)"/>
      <use xlink:href="#DejaVuSans-33" transform="translate(874.8125 0)"/>
      <use xlink:href="#DejaVuSans-52" transform="translate(931.546875 0)"/>
      <use xlink:href="#DejaVuSans-3a" transform="translate(992.734375 0)"/>
      <use xlink:href="#DejaVuSans-c" transform="translate(1091.609375 0)"/>
     </g>
    </g>
    <g id="LineCollection_4">
     <path d="M 65.349102 63.015707 
L 65.349102 52.515707 
" style="fill: none; stroke: #d55e00; stroke-width: 2"/>
    </g>
    <g id="line2d_33">
     <g>
      <use xlink:href="#mfed5b4e49c" x="65.349102" y="63.015707" style="fill: #d55e00; stroke: #d55e00"/>
     </g>
    </g>
    <g id="line2d_34">
     <g>
      <use xlink:href="#mfed5b4e49c" x="65.349102" y="52.515707" style="fill: #d55e00; stroke: #d55e00"/>
     </g>
    </g>
    <g id="line2d_35">
     <path d="M 54.849102 57.765707 
L 75.849102 57.765707 
" style="fill: none; stroke: #d55e00; stroke-width: 2; stroke-linecap: square"/>
    </g>
    <g id="line2d_36">
     <g>
      <use xlink:href="#m5f398263b0" x="65.349102" y="57.765707" style="fill: #d55e00; stroke: #d55e00; stroke-linejoin: miter"/>
     </g>
    </g>
    <g id="text_16">
     <!-- X-PC (PoCol) -->
     <g transform="translate(84.249102 61.440707) scale(0.105 -0.105)">
      <defs>
       <path id="DejaVuSans-26" d="M 4122 4306 
L 4122 3641 
Q 3803 3938 3442 4084 
Q 3081 4231 2675 4231 
Q 1875 4231 1450 3742 
Q 1025 3253 1025 2328 
Q 1025 1406 1450 917 
Q 1875 428 2675 428 
Q 3081 428 3442 575 
Q 3803 722 4122 1019 
L 4122 359 
Q 3791 134 3420 21 
Q 3050 -91 2638 -91 
Q 1578 -91 968 557 
Q 359 1206 359 2328 
Q 359 3453 968 4101 
Q 1578 4750 2638 4750 
Q 3056 4750 3426 4639 
Q 3797 4528 4122 4306 
z
" transform="scale(0.015625)"/>
      </defs>
      <use xlink:href="#DejaVuSans-3b"/>
      <use xlink:href="#DejaVuSans-10" transform="translate(63.515625 0)"/>
      <use xlink:href="#DejaVuSans-33" transform="translate(99.59375 0)"/>
      <use xlink:href="#DejaVuSans-26" transform="translate(159.890625 0)"/>
      <use xlink:href="#DejaVuSans-3" transform="translate(229.71875 0)"/>
      <use xlink:href="#DejaVuSans-b" transform="translate(261.5 0)"/>
      <use xlink:href="#DejaVuSans-33" transform="translate(300.515625 0)"/>
      <use xlink:href="#DejaVuSans-52" transform="translate(357.25 0)"/>
      <use xlink:href="#DejaVuSans-26" transform="translate(418.4375 0)"/>
      <use xlink:href="#DejaVuSans-52" transform="translate(488.265625 0)"/>
      <use xlink:href="#DejaVuSans-4f" transform="translate(549.453125 0)"/>
      <use xlink:href="#DejaVuSans-c" transform="translate(577.234375 0)"/>
     </g>
    </g>
   </g>
  </g>
 </g>
 <defs>
  <clipPath id="p2c86d02e8a">
   <rect x="45.399102" y="28.261527" width="399.920898" height="232.145148"/>
  </clipPath>
 </defs>
</svg>
