<?xml version="1.0" encoding="utf-8" standalone="no"?>
<!DOCTYPE svg PUBLIC "-//W3C//DTD SVG 1.1//EN"
  "http://www.w3.org/Graphics/SVG/1.1/DTD/svg11.dtd">
<svg xmlns:xlink="http://www.w3.org/1999/xlink" width="542.716667pt" height="213.120781pt" viewBox="0 0 542.716667 213.120781" xmlns="http://www.w3.org/2000/svg" version="1.1">
 <metadata>
  <rdf:RDF xmlns:dc="http://purl.org/dc/elements/1.1/" xmlns:cc="http://creativecommons.org/ns#" xmlns:rdf="http://www.w3.org/1999/02/22-rdf-syntax-ns#">
   <cc:Work>
    <dc:type rdf:resource="http://purl.org/dc/dcmitype/StillImage"/>
    <dc:date>2026-08-15T07:44:36.999280</dc:date>
    <dc:format>image/svg+xml</dc:format>
    <dc:creator>
     <cc:Agent>
      <dc:title>Matplotlib v3.11.1, https://matplotlib.org/</dc:title>
     </cc:Agent>
    </dc:creator>
   </cc:Work>
  </rdf:RDF>
 </metadata>
 <defs>
  <style type="text/css">*{stroke-linejoin: round; stroke-linecap: butt}</style>
 </defs>
 <g id="figure_1">
  <g id="patch_1">
   <path d="M 0 213.120781 
L 542.716667 213.120781 
L 542.716667 0 
L 0 0 
z
" style="fill: #ffffff"/>
  </g>
  <g id="axes_1">
   <g id="patch_2">
    <path d="M 55.636667 187.118437 
L 535.516667 187.118437 
L 535.516667 20.798437 
L 55.636667 20.798437 
z
" style="fill: #ffffff"/>
   </g>
   <g id="patch_3">
    <path d="M 55.636667 117.818437 
L 174.125556 117.818437 
L 174.125556 71.618437 
L 55.636667 71.618437 
z
" clip-path="url(#p6ba6d380b5)" style="fill: #2c7fb8; opacity: 0.65"/>
   </g>
   <g id="patch_4">
    <path d="M 174.125556 117.818437 
L 292.614444 117.818437 
L 292.614444 71.618437 
L 174.125556 71.618437 
z
" clip-path="url(#p6ba6d380b5)" style="fill: #d7301f; opacity: 0.65"/>
   </g>
   <g id="patch_5">
    <path d="M 292.614444 117.818437 
L 411.103333 117.818437 
L 411.103333 71.618437 
L 292.614444 71.618437 
z
" clip-path="url(#p6ba6d380b5)" style="fill: #8c6bb1; opacity: 0.65"/>
   </g>
   <g id="patch_6">
    <path d="M 55.636667 117.818437 
L 411.103333 117.818437 
L 411.103333 71.618437 
L 55.636667 71.618437 
L 55.636667 117.818437 
z
" clip-path="url(#p6ba6d380b5)" style="fill: none; stroke: #000000; stroke-linejoin: miter"/>
   </g>
   <g id="matplotlib.axis_1">
    <g id="xtick_1">
     <g id="line2d_1">
      <defs>
       <path id="m3e597bfab6" d="M 0 0 
L 0 3.5 
" style="stroke: #000000; stroke-width: 0.8"/>
      </defs>
      <g>
       <use xlink:href="#m3e597bfab6" x="55.636667" y="187.118437" style="stroke: #000000; stroke-width: 0.8"/>
      </g>
     </g>
     <g id="text_1">
      <!-- 0 -->
      <g transform="translate(52.455417 201.716094) scale(0.1 -0.1)">
       <defs>
        <path id="DejaVuSans-13" d="M 2034 4250 
Q 1547 4250 1301 3770 
Q 1056 3291 1056 2328 
Q 1056 1369 1301 889 
Q 1547 409 2034 409 
Q 2525 409 2770 889 
Q 3016 1369 3016 2328 
Q 3016 3291 2770 3770 
Q 2525 4250 2034 4250 
z
M 2034 4750 
Q 2819 4750 3233 4129 
Q 3647 3509 3647 2328 
Q 3647 1150 3233 529 
Q 2819 -91 2034 -91 
Q 1250 -91 836 529 
Q 422 1150 422 2328 
Q 422 3509 836 4129 
Q 1250 4750 2034 4750 
z
" transform="scale(0.015625)"/>
       </defs>
       <use xlink:href="#DejaVuSans-13"/>
      </g>
     </g>
    </g>
    <g id="xtick_2">
     <g id="line2d_2">
      <g>
       <use xlink:href="#m3e597bfab6" x="174.125556" y="187.118437" style="stroke: #000000; stroke-width: 0.8"/>
      </g>
     </g>
     <g id="text_2">
      <!-- $\lfloor S/3\rfloor$ -->
      <g transform="translate(162.175556 201.718437) scale(0.1 -0.1)">
       <defs>
        <path id="DejaVuSans-d94" d="M 550 -844 
L 550 4863 
L 1125 4863 
L 1125 -397 
L 1875 -397 
L 1875 -844 
L 550 -844 
z
" transform="scale(0.015625)"/>
        <path id="DejaVuSans-Oblique-36" d="M 3859 4513 
L 3738 3897 
Q 3422 4066 3111 4152 
Q 2800 4238 2509 4238 
Q 1944 4238 1609 3991 
Q 1275 3744 1275 3334 
Q 1275 3109 1398 2989 
Q 1522 2869 2034 2731 
L 2413 2638 
Q 3053 2472 3303 2217 
Q 3553 1963 3553 1503 
Q 3553 797 2998 353 
Q 2444 -91 1538 -91 
Q 1166 -91 791 -17 
Q 416 56 38 206 
L 166 856 
Q 513 641 861 531 
Q 1209 422 1556 422 
Q 2147 422 2503 684 
Q 2859 947 2859 1369 
Q 2859 1650 2717 1795 
Q 2575 1941 2106 2059 
L 1728 2156 
Q 1081 2325 845 2545 
Q 609 2766 609 3163 
Q 609 3859 1145 4304 
Q 1681 4750 2541 4750 
Q 2875 4750 3203 4690 
Q 3531 4631 3859 4513 
z
" transform="scale(0.015625)"/>
        <path id="DejaVuSans-12" d="M 1625 4666 
L 2156 4666 
L 531 -594 
L 0 -594 
L 1625 4666 
z
" transform="scale(0.015625)"/>
        <path id="DejaVuSans-16" d="M 2597 2516 
Q 3050 2419 3304 2112 
Q 3559 1806 3559 1356 
Q 3559 666 3084 287 
Q 2609 -91 1734 -91 
Q 1441 -91 1130 -33 
Q 819 25 488 141 
L 488 750 
Q 750 597 1062 519 
Q 1375 441 1716 441 
Q 2309 441 2620 675 
Q 2931 909 2931 1356 
Q 2931 1769 2642 2001 
Q 2353 2234 1838 2234 
L 1294 2234 
L 1294 2753 
L 1863 2753 
Q 2328 2753 2575 2939 
Q 2822 3125 2822 3475 
Q 2822 3834 2567 4026 
Q 2313 4219 1838 4219 
Q 1578 4219 1281 4162 
Q 984 4106 628 3988 
L 628 4550 
Q 988 4650 1302 4700 
Q 1616 4750 1894 4750 
Q 2613 4750 3031 4423 
Q 3450 4097 3450 3541 
Q 3450 3153 3228 2886 
Q 3006 2619 2597 2516 
z
" transform="scale(0.015625)"/>
        <path id="DejaVuSans-d95" d="M 1947 -844 
L 622 -844 
L 622 -397 
L 1372 -397 
L 1372 4863 
L 1947 4863 
L 1947 -844 
z
" transform="scale(0.015625)"/>
       </defs>
       <use xlink:href="#DejaVuSans-d94" transform="translate(0 0.015625)"/>
       <use xlink:href="#DejaVuSans-Oblique-36" transform="translate(39.013672 0.015625)"/>
       <use xlink:href="#DejaVuSans-12" transform="translate(102.490234 0.015625)"/>
       <use xlink:href="#DejaVuSans-16" transform="translate(136.181641 0.015625)"/>
       <use xlink:href="#DejaVuSans-d95" transform="translate(199.804688 0.015625)"/>
      </g>
     </g>
    </g>
    <g id="xtick_3">
     <g id="line2d_3">
      <g>
       <use xlink:href="#m3e597bfab6" x="292.614444" y="187.118437" style="stroke: #000000; stroke-width: 0.8"/>
      </g>
     </g>
     <g id="text_3">
      <!-- $\lfloor 2S/3\rfloor$ -->
      <g transform="translate(277.464444 201.718437) scale(0.1 -0.1)">
       <defs>
        <path id="DejaVuSans-15" d="M 1228 531 
L 3431 531 
L 3431 0 
L 469 0 
L 469 531 
Q 828 903 1448 1529 
Q 2069 2156 2228 2338 
Q 2531 2678 2651 2914 
Q 2772 3150 2772 3378 
Q 2772 3750 2511 3984 
Q 2250 4219 1831 4219 
Q 1534 4219 1204 4116 
Q 875 4013 500 3803 
L 500 4441 
Q 881 4594 1212 4672 
Q 1544 4750 1819 4750 
Q 2544 4750 2975 4387 
Q 3406 4025 3406 3419 
Q 3406 3131 3298 2873 
Q 3191 2616 2906 2266 
Q 2828 2175 2409 1742 
Q 1991 1309 1228 531 
z
" transform="scale(0.015625)"/>
       </defs>
       <use xlink:href="#DejaVuSans-d94" transform="translate(0 0.015625)"/>
       <use xlink:href="#DejaVuSans-15" transform="translate(39.013672 0.015625)"/>
       <use xlink:href="#DejaVuSans-Oblique-36" transform="translate(102.636719 0.015625)"/>
       <use xlink:href="#DejaVuSans-12" transform="translate(166.113281 0.015625)"/>
       <use xlink:href="#DejaVuSans-16" transform="translate(199.804688 0.015625)"/>
       <use xlink:href="#DejaVuSans-d95" transform="translate(263.427734 0.015625)"/>
      </g>
     </g>
    </g>
    <g id="xtick_4">
     <g id="line2d_4">
      <g>
       <use xlink:href="#m3e597bfab6" x="411.103333" y="187.118437" style="stroke: #000000; stroke-width: 0.8"/>
      </g>
     </g>
     <g id="text_4">
      <!-- $2^{32}-1$ -->
      <g transform="translate(393.953333 203.518438) scale(0.1 -0.1)">
       <defs>
        <path id="DejaVuSans-c9c" d="M 678 2272 
L 4684 2272 
L 4684 1741 
L 678 1741 
L 678 2272 
z
" transform="scale(0.015625)"/>
        <path id="DejaVuSans-14" d="M 794 531 
L 1825 531 
L 1825 4091 
L 703 3866 
L 703 4441 
L 1819 4666 
L 2450 4666 
L 2450 531 
L 3481 531 
L 3481 0 
L 794 0 
L 794 531 
z
" transform="scale(0.015625)"/>
       </defs>
       <use xlink:href="#DejaVuSans-15" transform="translate(0 0.746875)"/>
       <use xlink:href="#DejaVuSans-16" transform="translate(64.580078 42.046875) scale(0.7)"/>
       <use xlink:href="#DejaVuSans-15" transform="translate(109.116211 42.046875) scale(0.7)"/>
       <use xlink:href="#DejaVuSans-c9c" transform="translate(175.869141 0.746875)"/>
       <use xlink:href="#DejaVuSans-14" transform="translate(279.140625 0.746875)"/>
      </g>
     </g>
    </g>
   </g>
   <g id="matplotlib.axis_2"/>
   <g id="patch_7">
    <path d="M 55.636667 187.118437 
L 535.516667 187.118437 
" style="fill: none; stroke: #000000; stroke-width: 0.8; stroke-linejoin: miter; stroke-linecap: square"/>
   </g>
   <g id="text_5">
    <!-- $R_{1}$ -->
    <g transform="translate(108.446111 97.575859) scale(0.11 -0.11)">
     <defs>
      <path id="DejaVuSans-Oblique-35" d="M 1613 4147 
L 1294 2491 
L 2106 2491 
Q 2584 2491 2879 2755 
Q 3175 3019 3175 3444 
Q 3175 3784 2976 3965 
Q 2778 4147 2406 4147 
L 1613 4147 
z
M 2772 2241 
Q 2972 2194 3105 2009 
Q 3238 1825 3413 1275 
L 3809 0 
L 3144 0 
L 2778 1197 
Q 2638 1659 2453 1815 
Q 2269 1972 1888 1972 
L 1191 1972 
L 806 0 
L 172 0 
L 1081 4666 
L 2503 4666 
Q 3150 4666 3495 4373 
Q 3841 4081 3841 3531 
Q 3841 3044 3547 2687 
Q 3253 2331 2772 2241 
z
" transform="scale(0.015625)"/>
     </defs>
     <use xlink:href="#DejaVuSans-Oblique-35" transform="translate(0 0.09375)"/>
     <use xlink:href="#DejaVuSans-14" transform="translate(69.482422 -14.906201) scale(0.7)"/>
    </g>
   </g>
   <g id="text_6">
    <!-- $R_{2}$ -->
    <g transform="translate(226.935 97.575859) scale(0.11 -0.11)">
     <use xlink:href="#DejaVuSans-Oblique-35" transform="translate(0 0.09375)"/>
     <use xlink:href="#DejaVuSans-15" transform="translate(69.482422 -14.906201) scale(0.7)"/>
    </g>
   </g>
   <g id="text_7">
    <!-- $R_{3}$ -->
    <g transform="translate(345.423889 97.575859) scale(0.11 -0.11)">
     <use xlink:href="#DejaVuSans-Oblique-35" transform="translate(0 0.09375)"/>
     <use xlink:href="#DejaVuSans-16" transform="translate(69.482422 -14.906201) scale(0.7)"/>
    </g>
   </g>
   <g id="text_8">
    <!-- $D = R_1 \cup R_2 \cup R_3$,  $R_i \cap R_j = \varnothing$;  common immutable template;  ACTIVE → LOW POWER after own range -->
    <g transform="translate(7.2 164.018438) scale(0.09 -0.09)">
     <defs>
      <path id="DejaVuSans-Oblique-27" d="M 1081 4666 
L 2438 4666 
Q 3519 4666 4070 4208 
Q 4622 3750 4622 2847 
Q 4622 2250 4412 1698 
Q 4203 1147 3834 769 
Q 3463 381 2891 190 
Q 2319 0 1538 0 
L 172 0 
L 1081 4666 
z
M 1613 4147 
L 909 519 
L 1734 519 
Q 2794 519 3375 1128 
Q 3956 1738 3956 2847 
Q 3956 3519 3581 3833 
Q 3206 4147 2406 4147 
L 1613 4147 
z
" transform="scale(0.015625)"/>
      <path id="DejaVuSans-20" d="M 678 2906 
L 4684 2906 
L 4684 2381 
L 678 2381 
L 678 2906 
z
M 678 1631 
L 4684 1631 
L 4684 1100 
L 678 1100 
L 678 1631 
z
" transform="scale(0.015625)"/>
      <path id="DejaVuSans-cb4" d="M 825 1856 
L 825 3706 
L 1363 3706 
L 1363 1934 
Q 1363 1172 1594 842 
Q 1825 513 2344 513 
Q 2859 513 3090 842 
Q 3322 1172 3322 1934 
L 3322 3706 
L 3859 3706 
L 3859 1856 
Q 3859 931 3476 465 
Q 3094 0 2344 0 
Q 1591 0 1208 465 
Q 825 931 825 1856 
z
" transform="scale(0.015625)"/>
      <path id="DejaVuSans-f" d="M 750 794 
L 1409 794 
L 1409 256 
L 897 -744 
L 494 -744 
L 750 256 
L 750 794 
z
" transform="scale(0.015625)"/>
      <path id="DejaVuSans-3" transform="scale(0.015625)"/>
      <path id="DejaVuSans-Oblique-4c" d="M 1172 4863 
L 1747 4863 
L 1606 4134 
L 1031 4134 
L 1172 4863 
z
M 909 3500 
L 1484 3500 
L 800 0 
L 225 0 
L 909 3500 
z
" transform="scale(0.015625)"/>
      <path id="DejaVuSans-cb3" d="M 825 1850 
Q 825 2775 1208 3240 
Q 1591 3706 2344 3706 
Q 3094 3706 3476 3240 
Q 3859 2775 3859 1850 
L 3859 0 
L 3322 0 
L 3322 1772 
Q 3322 2534 3090 2864 
Q 2859 3194 2344 3194 
Q 1825 3194 1594 2864 
Q 1363 2534 1363 1772 
L 1363 0 
L 825 0 
L 825 1850 
z
" transform="scale(0.015625)"/>
      <path id="DejaVuSans-Oblique-4d" d="M 928 3500 
L 1503 3500 
L 813 -63 
L 809 -78 
Q 694 -675 544 -897 
Q 403 -1106 132 -1218 
Q -138 -1331 -506 -1331 
L -722 -1331 
L -628 -844 
L -481 -844 
Q -144 -844 -1 -703 
Q 141 -563 238 -63 
L 928 3500 
z
M 1197 4863 
L 1772 4863 
L 1631 4134 
L 1056 4134 
L 1197 4863 
z
" transform="scale(0.015625)"/>
      <path id="DejaVuSans-c8f" d="M 4025 4184 
L 4303 4528 
L 4634 4528 
L 4234 4038 
Q 4563 3778 4778 3397 
Q 5091 2841 5091 2241 
Q 5091 1641 4778 1086 
Q 4466 531 3916 234 
Q 3366 -63 2788 -63 
Q 2203 -63 1653 234 
Q 1478 328 1328 450 
L 934 -38 
L 606 -38 
L 1138 619 
Q 941 825 794 1088 
Q 484 1641 484 2241 
Q 484 2841 793 3395 
Q 1103 3950 1653 4247 
Q 2203 4544 2788 4544 
Q 3366 4544 3916 4247 
Q 3972 4216 4025 4184 
z
M 1400 944 
L 3763 3859 
L 3719 3884 
Q 3266 4128 2788 4128 
Q 2306 4128 1851 3883 
Q 1397 3638 1141 3178 
Q 888 2725 884 2241 
Q 888 1756 1141 1303 
Q 1253 1103 1400 944 
z
M 3975 3716 
L 1591 772 
Q 1713 675 1853 600 
Q 2306 353 2788 353 
Q 3266 353 3719 598 
Q 4172 844 4431 1303 
Q 4688 1756 4691 2241 
Q 4688 2725 4431 3178 
Q 4250 3500 3975 3716 
z
" transform="scale(0.015625)"/>
      <path id="DejaVuSans-1e" d="M 750 3309 
L 1409 3309 
L 1409 2516 
L 750 2516 
L 750 3309 
z
M 750 794 
L 1409 794 
L 1409 256 
L 897 -744 
L 494 -744 
L 750 256 
L 750 794 
z
" transform="scale(0.015625)"/>
      <path id="DejaVuSans-46" d="M 3122 3366 
L 3122 2828 
Q 2878 2963 2633 3030 
Q 2388 3097 2138 3097 
Q 1578 3097 1268 2742 
Q 959 2388 959 1747 
Q 959 1106 1268 751 
Q 1578 397 2138 397 
Q 2388 397 2633 464 
Q 2878 531 3122 666 
L 3122 134 
Q 2881 22 2623 -34 
Q 2366 -91 2075 -91 
Q 1284 -91 818 406 
Q 353 903 353 1747 
Q 353 2603 823 3093 
Q 1294 3584 2113 3584 
Q 2378 3584 2631 3529 
Q 2884 3475 3122 3366 
z
" transform="scale(0.015625)"/>
      <path id="DejaVuSans-52" d="M 1959 3097 
Q 1497 3097 1228 2736 
Q 959 2375 959 1747 
Q 959 1119 1226 758 
Q 1494 397 1959 397 
Q 2419 397 2687 759 
Q 2956 1122 2956 1747 
Q 2956 2369 2687 2733 
Q 2419 3097 1959 3097 
z
M 1959 3584 
Q 2709 3584 3137 3096 
Q 3566 2609 3566 1747 
Q 3566 888 3137 398 
Q 2709 -91 1959 -91 
Q 1206 -91 779 398 
Q 353 888 353 1747 
Q 353 2609 779 3096 
Q 1206 3584 1959 3584 
z
" transform="scale(0.015625)"/>
      <path id="DejaVuSans-50" d="M 3328 2828 
Q 3544 3216 3844 3400 
Q 4144 3584 4550 3584 
Q 5097 3584 5394 3201 
Q 5691 2819 5691 2113 
L 5691 0 
L 5113 0 
L 5113 2094 
Q 5113 2597 4934 2840 
Q 4756 3084 4391 3084 
Q 3944 3084 3684 2787 
Q 3425 2491 3425 1978 
L 3425 0 
L 2847 0 
L 2847 2094 
Q 2847 2600 2669 2842 
Q 2491 3084 2119 3084 
Q 1678 3084 1418 2786 
Q 1159 2488 1159 1978 
L 1159 0 
L 581 0 
L 581 3500 
L 1159 3500 
L 1159 2956 
Q 1356 3278 1631 3431 
Q 1906 3584 2284 3584 
Q 2666 3584 2933 3390 
Q 3200 3197 3328 2828 
z
" transform="scale(0.015625)"/>
      <path id="DejaVuSans-51" d="M 3513 2113 
L 3513 0 
L 2938 0 
L 2938 2094 
Q 2938 2591 2744 2837 
Q 2550 3084 2163 3084 
Q 1697 3084 1428 2787 
Q 1159 2491 1159 1978 
L 1159 0 
L 581 0 
L 581 3500 
L 1159 3500 
L 1159 2956 
Q 1366 3272 1645 3428 
Q 1925 3584 2291 3584 
Q 2894 3584 3203 3211 
Q 3513 2838 3513 2113 
z
" transform="scale(0.015625)"/>
      <path id="DejaVuSans-4c" d="M 603 3500 
L 1178 3500 
L 1178 0 
L 603 0 
L 603 3500 
z
M 603 4863 
L 1178 4863 
L 1178 4134 
L 603 4134 
L 603 4863 
z
" transform="scale(0.015625)"/>
      <path id="DejaVuSans-58" d="M 544 1381 
L 544 3500 
L 1119 3500 
L 1119 1403 
Q 1119 906 1312 657 
Q 1506 409 1894 409 
Q 2359 409 2629 706 
Q 2900 1003 2900 1516 
L 2900 3500 
L 3475 3500 
L 3475 0 
L 2900 0 
L 2900 538 
Q 2691 219 2414 64 
Q 2138 -91 1772 -91 
Q 1169 -91 856 284 
Q 544 659 544 1381 
z
M 1991 3584 
L 1991 3584 
z
" transform="scale(0.015625)"/>
      <path id="DejaVuSans-57" d="M 1172 4494 
L 1172 3500 
L 2356 3500 
L 2356 3053 
L 1172 3053 
L 1172 1153 
Q 1172 725 1289 603 
Q 1406 481 1766 481 
L 2356 481 
L 2356 0 
L 1766 0 
Q 1100 0 847 248 
Q 594 497 594 1153 
L 594 3053 
L 172 3053 
L 172 3500 
L 594 3500 
L 594 4494 
L 1172 4494 
z
" transform="scale(0.015625)"/>
      <path id="DejaVuSans-44" d="M 2194 1759 
Q 1497 1759 1228 1600 
Q 959 1441 959 1056 
Q 959 750 1161 570 
Q 1363 391 1709 391 
Q 2188 391 2477 730 
Q 2766 1069 2766 1631 
L 2766 1759 
L 2194 1759 
z
M 3341 1997 
L 3341 0 
L 2766 0 
L 2766 531 
Q 2569 213 2275 61 
Q 1981 -91 1556 -91 
Q 1019 -91 701 211 
Q 384 513 384 1019 
Q 384 1609 779 1909 
Q 1175 2209 1959 2209 
L 2766 2209 
L 2766 2266 
Q 2766 2663 2505 2880 
Q 2244 3097 1772 3097 
Q 1472 3097 1187 3025 
Q 903 2953 641 2809 
L 641 3341 
Q 956 3463 1253 3523 
Q 1550 3584 1831 3584 
Q 2591 3584 2966 3190 
Q 3341 2797 3341 1997 
z
" transform="scale(0.015625)"/>
      <path id="DejaVuSans-45" d="M 3116 1747 
Q 3116 2381 2855 2742 
Q 2594 3103 2138 3103 
Q 1681 3103 1420 2742 
Q 1159 2381 1159 1747 
Q 1159 1113 1420 752 
Q 1681 391 2138 391 
Q 2594 391 2855 752 
Q 3116 1113 3116 1747 
z
M 1159 2969 
Q 1341 3281 1617 3432 
Q 1894 3584 2278 3584 
Q 2916 3584 3314 3078 
Q 3713 2572 3713 1747 
Q 3713 922 3314 415 
Q 2916 -91 2278 -91 
Q 1894 -91 1617 61 
Q 1341 213 1159 525 
L 1159 0 
L 581 0 
L 581 4863 
L 1159 4863 
L 1159 2969 
z
" transform="scale(0.015625)"/>
      <path id="DejaVuSans-4f" d="M 603 4863 
L 1178 4863 
L 1178 0 
L 603 0 
L 603 4863 
z
" transform="scale(0.015625)"/>
      <path id="DejaVuSans-48" d="M 3597 1894 
L 3597 1613 
L 953 1613 
Q 991 1019 1311 708 
Q 1631 397 2203 397 
Q 2534 397 2845 478 
Q 3156 559 3463 722 
L 3463 178 
Q 3153 47 2828 -22 
Q 2503 -91 2169 -91 
Q 1331 -91 842 396 
Q 353 884 353 1716 
Q 353 2575 817 3079 
Q 1281 3584 2069 3584 
Q 2775 3584 3186 3129 
Q 3597 2675 3597 1894 
z
M 3022 2063 
Q 3016 2534 2758 2815 
Q 2500 3097 2075 3097 
Q 1594 3097 1305 2825 
Q 1016 2553 972 2059 
L 3022 2063 
z
" transform="scale(0.015625)"/>
      <path id="DejaVuSans-53" d="M 1159 525 
L 1159 -1331 
L 581 -1331 
L 581 3500 
L 1159 3500 
L 1159 2969 
Q 1341 3281 1617 3432 
Q 1894 3584 2278 3584 
Q 2916 3584 3314 3078 
Q 3713 2572 3713 1747 
Q 3713 922 3314 415 
Q 2916 -91 2278 -91 
Q 1894 -91 1617 61 
Q 1341 213 1159 525 
z
M 3116 1747 
Q 3116 2381 2855 2742 
Q 2594 3103 2138 3103 
Q 1681 3103 1420 2742 
Q 1159 2381 1159 1747 
Q 1159 1113 1420 752 
Q 1681 391 2138 391 
Q 2594 391 2855 752 
Q 3116 1113 3116 1747 
z
" transform="scale(0.015625)"/>
      <path id="DejaVuSans-24" d="M 2188 4044 
L 1331 1722 
L 3047 1722 
L 2188 4044 
z
M 1831 4666 
L 2547 4666 
L 4325 0 
L 3669 0 
L 3244 1197 
L 1141 1197 
L 716 0 
L 50 0 
L 1831 4666 
z
" transform="scale(0.015625)"/>
      <path id="DejaVuSans-26" d="M 4122 4306 
L 4122 3641 
Q 3803 3938 3442 4084 
Q 3081 4231 2675 4231 
Q 1875 4231 1450 3742 
Q 1025 3253 1025 2328 
Q 1025 1406 1450 917 
Q 1875 428 2675 428 
Q 3081 428 3442 575 
Q 3803 722 4122 1019 
L 4122 359 
Q 3791 134 3420 21 
Q 3050 -91 2638 -91 
Q 1578 -91 968 557 
Q 359 1206 359 2328 
Q 359 3453 968 4101 
Q 1578 4750 2638 4750 
Q 3056 4750 3426 4639 
Q 3797 4528 4122 4306 
z
" transform="scale(0.015625)"/>
      <path id="DejaVuSans-37" d="M -19 4666 
L 3928 4666 
L 3928 4134 
L 2272 4134 
L 2272 0 
L 1638 0 
L 1638 4134 
L -19 4134 
L -19 4666 
z
" transform="scale(0.015625)"/>
      <path id="DejaVuSans-2c" d="M 628 4666 
L 1259 4666 
L 1259 0 
L 628 0 
L 628 4666 
z
" transform="scale(0.015625)"/>
      <path id="DejaVuSans-39" d="M 1831 0 
L 50 4666 
L 709 4666 
L 2188 738 
L 3669 4666 
L 4325 4666 
L 2547 0 
L 1831 0 
z
" transform="scale(0.015625)"/>
      <path id="DejaVuSans-28" d="M 628 4666 
L 3578 4666 
L 3578 4134 
L 1259 4134 
L 1259 2753 
L 3481 2753 
L 3481 2222 
L 1259 2222 
L 1259 531 
L 3634 531 
L 3634 0 
L 628 0 
L 628 4666 
z
" transform="scale(0.015625)"/>
      <path id="DejaVuSans-c1c" d="M 5050 2147 
L 5050 1866 
L 3822 638 
L 3447 1013 
L 4175 1741 
L 366 1741 
L 366 2272 
L 4175 2272 
L 3447 3000 
L 3822 3375 
L 5050 2147 
z
" transform="scale(0.015625)"/>
      <path id="DejaVuSans-2f" d="M 628 4666 
L 1259 4666 
L 1259 531 
L 3531 531 
L 3531 0 
L 628 0 
L 628 4666 
z
" transform="scale(0.015625)"/>
      <path id="DejaVuSans-32" d="M 2522 4238 
Q 1834 4238 1429 3725 
Q 1025 3213 1025 2328 
Q 1025 1447 1429 934 
Q 1834 422 2522 422 
Q 3209 422 3611 934 
Q 4013 1447 4013 2328 
Q 4013 3213 3611 3725 
Q 3209 4238 2522 4238 
z
M 2522 4750 
Q 3503 4750 4090 4092 
Q 4678 3434 4678 2328 
Q 4678 1225 4090 567 
Q 3503 -91 2522 -91 
Q 1538 -91 948 565 
Q 359 1222 359 2328 
Q 359 3434 948 4092 
Q 1538 4750 2522 4750 
z
" transform="scale(0.015625)"/>
      <path id="DejaVuSans-3a" d="M 213 4666 
L 850 4666 
L 1831 722 
L 2809 4666 
L 3519 4666 
L 4500 722 
L 5478 4666 
L 6119 4666 
L 4947 0 
L 4153 0 
L 3169 4050 
L 2175 0 
L 1381 0 
L 213 4666 
z
" transform="scale(0.015625)"/>
      <path id="DejaVuSans-33" d="M 1259 4147 
L 1259 2394 
L 2053 2394 
Q 2494 2394 2734 2622 
Q 2975 2850 2975 3272 
Q 2975 3691 2734 3919 
Q 2494 4147 2053 4147 
L 1259 4147 
z
M 628 4666 
L 2053 4666 
Q 2838 4666 3239 4311 
Q 3641 3956 3641 3272 
Q 3641 2581 3239 2228 
Q 2838 1875 2053 1875 
L 1259 1875 
L 1259 0 
L 628 0 
L 628 4666 
z
" transform="scale(0.015625)"/>
      <path id="DejaVuSans-35" d="M 2841 2188 
Q 3044 2119 3236 1894 
Q 3428 1669 3622 1275 
L 4263 0 
L 3584 0 
L 2988 1197 
Q 2756 1666 2539 1819 
Q 2322 1972 1947 1972 
L 1259 1972 
L 1259 0 
L 628 0 
L 628 4666 
L 2053 4666 
Q 2853 4666 3247 4331 
Q 3641 3997 3641 3322 
Q 3641 2881 3436 2590 
Q 3231 2300 2841 2188 
z
M 1259 4147 
L 1259 2491 
L 2053 2491 
Q 2509 2491 2742 2702 
Q 2975 2913 2975 3322 
Q 2975 3731 2742 3939 
Q 2509 4147 2053 4147 
L 1259 4147 
z
" transform="scale(0.015625)"/>
      <path id="DejaVuSans-49" d="M 2375 4863 
L 2375 4384 
L 1825 4384 
Q 1516 4384 1395 4259 
Q 1275 4134 1275 3809 
L 1275 3500 
L 2222 3500 
L 2222 3053 
L 1275 3053 
L 1275 0 
L 697 0 
L 697 3053 
L 147 3053 
L 147 3500 
L 697 3500 
L 697 3744 
Q 697 4328 969 4595 
Q 1241 4863 1831 4863 
L 2375 4863 
z
" transform="scale(0.015625)"/>
      <path id="DejaVuSans-55" d="M 2631 2963 
Q 2534 3019 2420 3045 
Q 2306 3072 2169 3072 
Q 1681 3072 1420 2755 
Q 1159 2438 1159 1844 
L 1159 0 
L 581 0 
L 581 3500 
L 1159 3500 
L 1159 2956 
Q 1341 3275 1631 3429 
Q 1922 3584 2338 3584 
Q 2397 3584 2469 3576 
Q 2541 3569 2628 3553 
L 2631 2963 
z
" transform="scale(0.015625)"/>
      <path id="DejaVuSans-5a" d="M 269 3500 
L 844 3500 
L 1563 769 
L 2278 3500 
L 2956 3500 
L 3675 769 
L 4391 3500 
L 4966 3500 
L 4050 0 
L 3372 0 
L 2619 2869 
L 1863 0 
L 1184 0 
L 269 3500 
z
" transform="scale(0.015625)"/>
      <path id="DejaVuSans-4a" d="M 2906 1791 
Q 2906 2416 2648 2759 
Q 2391 3103 1925 3103 
Q 1463 3103 1205 2759 
Q 947 2416 947 1791 
Q 947 1169 1205 825 
Q 1463 481 1925 481 
Q 2391 481 2648 825 
Q 2906 1169 2906 1791 
z
M 3481 434 
Q 3481 -459 3084 -895 
Q 2688 -1331 1869 -1331 
Q 1566 -1331 1297 -1286 
Q 1028 -1241 775 -1147 
L 775 -588 
Q 1028 -725 1275 -790 
Q 1522 -856 1778 -856 
Q 2344 -856 2625 -561 
Q 2906 -266 2906 331 
L 2906 616 
Q 2728 306 2450 153 
Q 2172 0 1784 0 
Q 1141 0 747 490 
Q 353 981 353 1791 
Q 353 2603 747 3093 
Q 1141 3584 1784 3584 
Q 2172 3584 2450 3431 
Q 2728 3278 2906 2969 
L 2906 3500 
L 3481 3500 
L 3481 434 
z
" transform="scale(0.015625)"/>
     </defs>
     <use xlink:href="#DejaVuSans-Oblique-27" transform="translate(0 0.015625)"/>
     <use xlink:href="#DejaVuSans-20" transform="translate(96.484375 0.015625)"/>
     <use xlink:href="#DejaVuSans-Oblique-35" transform="translate(199.755859 0.015625)"/>
     <use xlink:href="#DejaVuSans-14" transform="translate(269.238281 -14.984326) scale(0.7)"/>
     <use xlink:href="#DejaVuSans-cb4" transform="translate(335.991211 0.015625)"/>
     <use xlink:href="#DejaVuSans-Oblique-35" transform="translate(428.666992 0.015625)"/>
     <use xlink:href="#DejaVuSans-15" transform="translate(498.149414 -14.984326) scale(0.7)"/>
     <use xlink:href="#DejaVuSans-cb4" transform="translate(564.902344 0.015625)"/>
     <use xlink:href="#DejaVuSans-Oblique-35" transform="translate(657.578125 0.015625)"/>
     <use xlink:href="#DejaVuSans-16" transform="translate(727.060547 -14.984326) scale(0.7)"/>
     <use xlink:href="#DejaVuSans-f" transform="translate(774.331055 0.015625)"/>
     <use xlink:href="#DejaVuSans-3" transform="translate(806.118164 0.015625)"/>
     <use xlink:href="#DejaVuSans-3" transform="translate(837.905273 0.015625)"/>
     <use xlink:href="#DejaVuSans-Oblique-35" transform="translate(869.692383 0.015625)"/>
     <use xlink:href="#DejaVuSans-Oblique-4c" transform="translate(939.174805 -14.984326) scale(0.7)"/>
     <use xlink:href="#DejaVuSans-cb3" transform="translate(980.839844 0.015625)"/>
     <use xlink:href="#DejaVuSans-Oblique-35" transform="translate(1073.515625 0.015625)"/>
     <use xlink:href="#DejaVuSans-Oblique-4d" transform="translate(1142.998047 -14.984326) scale(0.7)"/>
     <use xlink:href="#DejaVuSans-20" transform="translate(1184.663086 0.015625)"/>
     <use xlink:href="#DejaVuSans-c8f" transform="translate(1287.93457 0.015625)"/>
     <use xlink:href="#DejaVuSans-1e" transform="translate(1375.043945 0.015625)"/>
     <use xlink:href="#DejaVuSans-3" transform="translate(1408.735352 0.015625)"/>
     <use xlink:href="#DejaVuSans-3" transform="translate(1440.522461 0.015625)"/>
     <use xlink:href="#DejaVuSans-46" transform="translate(1472.30957 0.015625)"/>
     <use xlink:href="#DejaVuSans-52" transform="translate(1527.290039 0.015625)"/>
     <use xlink:href="#DejaVuSans-50" transform="translate(1588.47168 0.015625)"/>
     <use xlink:href="#DejaVuSans-50" transform="translate(1685.883789 0.015625)"/>
     <use xlink:href="#DejaVuSans-52" transform="translate(1783.295898 0.015625)"/>
     <use xlink:href="#DejaVuSans-51" transform="translate(1844.477539 0.015625)"/>
     <use xlink:href="#DejaVuSans-3" transform="translate(1907.856445 0.015625)"/>
     <use xlink:href="#DejaVuSans-4c" transform="translate(1939.643555 0.015625)"/>
     <use xlink:href="#DejaVuSans-50" transform="translate(1967.426758 0.015625)"/>
     <use xlink:href="#DejaVuSans-50" transform="translate(2064.838867 0.015625)"/>
     <use xlink:href="#DejaVuSans-58" transform="translate(2162.250977 0.015625)"/>
     <use xlink:href="#DejaVuSans-57" transform="translate(2225.629883 0.015625)"/>
     <use xlink:href="#DejaVuSans-44" transform="translate(2264.838867 0.015625)"/>
     <use xlink:href="#DejaVuSans-45" transform="translate(2326.118164 0.015625)"/>
     <use xlink:href="#DejaVuSans-4f" transform="translate(2389.594727 0.015625)"/>
     <use xlink:href="#DejaVuSans-48" transform="translate(2417.37793 0.015625)"/>
     <use xlink:href="#DejaVuSans-3" transform="translate(2478.901367 0.015625)"/>
     <use xlink:href="#DejaVuSans-57" transform="translate(2510.688477 0.015625)"/>
     <use xlink:href="#DejaVuSans-48" transform="translate(2549.897461 0.015625)"/>
     <use xlink:href="#DejaVuSans-50" transform="translate(2611.420898 0.015625)"/>
     <use xlink:href="#DejaVuSans-53" transform="translate(2708.833008 0.015625)"/>
     <use xlink:href="#DejaVuSans-4f" transform="translate(2772.30957 0.015625)"/>
     <use xlink:href="#DejaVuSans-44" transform="translate(2800.092773 0.015625)"/>
     <use xlink:href="#DejaVuSans-57" transform="translate(2861.37207 0.015625)"/>
     <use xlink:href="#DejaVuSans-48" transform="translate(2900.581055 0.015625)"/>
     <use xlink:href="#DejaVuSans-1e" transform="translate(2962.104492 0.015625)"/>
     <use xlink:href="#DejaVuSans-3" transform="translate(2995.795898 0.015625)"/>
     <use xlink:href="#DejaVuSans-3" transform="translate(3027.583008 0.015625)"/>
     <use xlink:href="#DejaVuSans-24" transform="translate(3059.370117 0.015625)"/>
     <use xlink:href="#DejaVuSans-26" transform="translate(3125.77832 0.015625)"/>
     <use xlink:href="#DejaVuSans-37" transform="translate(3195.602539 0.015625)"/>
     <use xlink:href="#DejaVuSans-2c" transform="translate(3256.686523 0.015625)"/>
     <use xlink:href="#DejaVuSans-39" transform="translate(3286.178711 0.015625)"/>
     <use xlink:href="#DejaVuSans-28" transform="translate(3354.586914 0.015625)"/>
     <use xlink:href="#DejaVuSans-3" transform="translate(3417.770508 0.015625)"/>
     <use xlink:href="#DejaVuSans-c1c" transform="translate(3449.557617 0.015625)"/>
     <use xlink:href="#DejaVuSans-3" transform="translate(3533.34668 0.015625)"/>
     <use xlink:href="#DejaVuSans-2f" transform="translate(3565.133789 0.015625)"/>
     <use xlink:href="#DejaVuSans-32" transform="translate(3616.84668 0.015625)"/>
     <use xlink:href="#DejaVuSans-3a" transform="translate(3695.557617 0.015625)"/>
     <use xlink:href="#DejaVuSans-3" transform="translate(3794.43457 0.015625)"/>
     <use xlink:href="#DejaVuSans-33" transform="translate(3826.22168 0.015625)"/>
     <use xlink:href="#DejaVuSans-32" transform="translate(3886.524414 0.015625)"/>
     <use xlink:href="#DejaVuSans-3a" transform="translate(3965.235352 0.015625)"/>
     <use xlink:href="#DejaVuSans-28" transform="translate(4064.112305 0.015625)"/>
     <use xlink:href="#DejaVuSans-35" transform="translate(4127.295898 0.015625)"/>
     <use xlink:href="#DejaVuSans-3" transform="translate(4196.77832 0.015625)"/>
     <use xlink:href="#DejaVuSans-44" transform="translate(4228.56543 0.015625)"/>
     <use xlink:href="#DejaVuSans-49" transform="translate(4289.844727 0.015625)"/>
     <use xlink:href="#DejaVuSans-57" transform="translate(4323.049805 0.015625)"/>
     <use xlink:href="#DejaVuSans-48" transform="translate(4362.258789 0.015625)"/>
     <use xlink:href="#DejaVuSans-55" transform="translate(4423.782227 0.015625)"/>
     <use xlink:href="#DejaVuSans-3" transform="translate(4464.895508 0.015625)"/>
     <use xlink:href="#DejaVuSans-52" transform="translate(4496.682617 0.015625)"/>
     <use xlink:href="#DejaVuSans-5a" transform="translate(4557.864258 0.015625)"/>
     <use xlink:href="#DejaVuSans-51" transform="translate(4639.651367 0.015625)"/>
     <use xlink:href="#DejaVuSans-3" transform="translate(4703.030273 0.015625)"/>
     <use xlink:href="#DejaVuSans-55" transform="translate(4734.817383 0.015625)"/>
     <use xlink:href="#DejaVuSans-44" transform="translate(4775.930664 0.015625)"/>
     <use xlink:href="#DejaVuSans-51" transform="translate(4837.209961 0.015625)"/>
     <use xlink:href="#DejaVuSans-4a" transform="translate(4900.588867 0.015625)"/>
     <use xlink:href="#DejaVuSans-48" transform="translate(4964.06543 0.015625)"/>
    </g>
   </g>
   <g id="text_9">
    <!-- PoCol (ND-PC): ONE 32-bit nonce-value domain partitioned among miners -->
    <g transform="translate(110.767292 14.798437) scale(0.1 -0.1)">
     <defs>
      <path id="DejaVuSans-b" d="M 1984 4856 
Q 1566 4138 1362 3434 
Q 1159 2731 1159 2009 
Q 1159 1288 1364 580 
Q 1569 -128 1984 -844 
L 1484 -844 
Q 1016 -109 783 600 
Q 550 1309 550 2009 
Q 550 2706 781 3412 
Q 1013 4119 1484 4856 
L 1984 4856 
z
" transform="scale(0.015625)"/>
      <path id="DejaVuSans-31" d="M 628 4666 
L 1478 4666 
L 3547 763 
L 3547 4666 
L 4159 4666 
L 4159 0 
L 3309 0 
L 1241 3903 
L 1241 0 
L 628 0 
L 628 4666 
z
" transform="scale(0.015625)"/>
      <path id="DejaVuSans-27" d="M 1259 4147 
L 1259 519 
L 2022 519 
Q 2988 519 3436 956 
Q 3884 1394 3884 2338 
Q 3884 3275 3436 3711 
Q 2988 4147 2022 4147 
L 1259 4147 
z
M 628 4666 
L 1925 4666 
Q 3281 4666 3915 4102 
Q 4550 3538 4550 2338 
Q 4550 1131 3912 565 
Q 3275 0 1925 0 
L 628 0 
L 628 4666 
z
" transform="scale(0.015625)"/>
      <path id="DejaVuSans-10" d="M 313 2009 
L 1997 2009 
L 1997 1497 
L 313 1497 
L 313 2009 
z
" transform="scale(0.015625)"/>
      <path id="DejaVuSans-c" d="M 513 4856 
L 1013 4856 
Q 1481 4119 1714 3412 
Q 1947 2706 1947 2009 
Q 1947 1309 1714 600 
Q 1481 -109 1013 -844 
L 513 -844 
Q 928 -128 1133 580 
Q 1338 1288 1338 2009 
Q 1338 2731 1133 3434 
Q 928 4138 513 4856 
z
" transform="scale(0.015625)"/>
      <path id="DejaVuSans-1d" d="M 750 794 
L 1409 794 
L 1409 0 
L 750 0 
L 750 794 
z
M 750 3309 
L 1409 3309 
L 1409 2516 
L 750 2516 
L 750 3309 
z
" transform="scale(0.015625)"/>
      <path id="DejaVuSans-59" d="M 191 3500 
L 800 3500 
L 1894 563 
L 2988 3500 
L 3597 3500 
L 2284 0 
L 1503 0 
L 191 3500 
z
" transform="scale(0.015625)"/>
      <path id="DejaVuSans-47" d="M 2906 2969 
L 2906 4863 
L 3481 4863 
L 3481 0 
L 2906 0 
L 2906 525 
Q 2725 213 2448 61 
Q 2172 -91 1784 -91 
Q 1150 -91 751 415 
Q 353 922 353 1747 
Q 353 2572 751 3078 
Q 1150 3584 1784 3584 
Q 2172 3584 2448 3432 
Q 2725 3281 2906 2969 
z
M 947 1747 
Q 947 1113 1208 752 
Q 1469 391 1925 391 
Q 2381 391 2643 752 
Q 2906 1113 2906 1747 
Q 2906 2381 2643 2742 
Q 2381 3103 1925 3103 
Q 1469 3103 1208 2742 
Q 947 2381 947 1747 
z
" transform="scale(0.015625)"/>
      <path id="DejaVuSans-56" d="M 2834 3397 
L 2834 2853 
Q 2591 2978 2328 3040 
Q 2066 3103 1784 3103 
Q 1356 3103 1142 2972 
Q 928 2841 928 2578 
Q 928 2378 1081 2264 
Q 1234 2150 1697 2047 
L 1894 2003 
Q 2506 1872 2764 1633 
Q 3022 1394 3022 966 
Q 3022 478 2636 193 
Q 2250 -91 1575 -91 
Q 1294 -91 989 -36 
Q 684 19 347 128 
L 347 722 
Q 666 556 975 473 
Q 1284 391 1588 391 
Q 1994 391 2212 530 
Q 2431 669 2431 922 
Q 2431 1156 2273 1281 
Q 2116 1406 1581 1522 
L 1381 1569 
Q 847 1681 609 1914 
Q 372 2147 372 2553 
Q 372 3047 722 3315 
Q 1072 3584 1716 3584 
Q 2034 3584 2315 3537 
Q 2597 3491 2834 3397 
z
" transform="scale(0.015625)"/>
     </defs>
     <use xlink:href="#DejaVuSans-33"/>
     <use xlink:href="#DejaVuSans-52" transform="translate(56.734375 0)"/>
     <use xlink:href="#DejaVuSans-26" transform="translate(117.921875 0)"/>
     <use xlink:href="#DejaVuSans-52" transform="translate(187.75 0)"/>
     <use xlink:href="#DejaVuSans-4f" transform="translate(248.9375 0)"/>
     <use xlink:href="#DejaVuSans-3" transform="translate(276.71875 0)"/>
     <use xlink:href="#DejaVuSans-b" transform="translate(308.5 0)"/>
     <use xlink:href="#DejaVuSans-31" transform="translate(347.515625 0)"/>
     <use xlink:href="#DejaVuSans-27" transform="translate(422.328125 0)"/>
     <use xlink:href="#DejaVuSans-10" transform="translate(499.328125 0)"/>
     <use xlink:href="#DejaVuSans-33" transform="translate(535.40625 0)"/>
     <use xlink:href="#DejaVuSans-26" transform="translate(595.703125 0)"/>
     <use xlink:href="#DejaVuSans-c" transform="translate(665.53125 0)"/>
     <use xlink:href="#DejaVuSans-1d" transform="translate(704.546875 0)"/>
     <use xlink:href="#DejaVuSans-3" transform="translate(738.234375 0)"/>
     <use xlink:href="#DejaVuSans-32" transform="translate(770.015625 0)"/>
     <use xlink:href="#DejaVuSans-31" transform="translate(848.734375 0)"/>
     <use xlink:href="#DejaVuSans-28" transform="translate(923.546875 0)"/>
     <use xlink:href="#DejaVuSans-3" transform="translate(986.734375 0)"/>
     <use xlink:href="#DejaVuSans-16" transform="translate(1018.515625 0)"/>
     <use xlink:href="#DejaVuSans-15" transform="translate(1082.140625 0)"/>
     <use xlink:href="#DejaVuSans-10" transform="translate(1145.765625 0)"/>
     <use xlink:href="#DejaVuSans-45" transform="translate(1181.84375 0)"/>
     <use xlink:href="#DejaVuSans-4c" transform="translate(1245.328125 0)"/>
     <use xlink:href="#DejaVuSans-57" transform="translate(1273.109375 0)"/>
     <use xlink:href="#DejaVuSans-3" transform="translate(1312.3125 0)"/>
     <use xlink:href="#DejaVuSans-51" transform="translate(1344.09375 0)"/>
     <use xlink:href="#DejaVuSans-52" transform="translate(1407.46875 0)"/>
     <use xlink:href="#DejaVuSans-51" transform="translate(1468.65625 0)"/>
     <use xlink:href="#DejaVuSans-46" transform="translate(1532.03125 0)"/>
     <use xlink:href="#DejaVuSans-48" transform="translate(1587.015625 0)"/>
     <use xlink:href="#DejaVuSans-10" transform="translate(1648.546875 0)"/>
     <use xlink:href="#DejaVuSans-59" transform="translate(1681.9375 0)"/>
     <use xlink:href="#DejaVuSans-44" transform="translate(1741.125 0)"/>
     <use xlink:href="#DejaVuSans-4f" transform="translate(1802.40625 0)"/>
     <use xlink:href="#DejaVuSans-58" transform="translate(1830.1875 0)"/>
     <use xlink:href="#DejaVuSans-48" transform="translate(1893.5625 0)"/>
     <use xlink:href="#DejaVuSans-3" transform="translate(1955.09375 0)"/>
     <use xlink:href="#DejaVuSans-47" transform="translate(1986.875 0)"/>
     <use xlink:href="#DejaVuSans-52" transform="translate(2050.359375 0)"/>
     <use xlink:href="#DejaVuSans-50" transform="translate(2111.546875 0)"/>
     <use xlink:href="#DejaVuSans-44" transform="translate(2208.953125 0)"/>
     <use xlink:href="#DejaVuSans-4c" transform="translate(2270.234375 0)"/>
     <use xlink:href="#DejaVuSans-51" transform="translate(2298.015625 0)"/>
     <use xlink:href="#DejaVuSans-3" transform="translate(2361.390625 0)"/>
     <use xlink:href="#DejaVuSans-53" transform="translate(2393.171875 0)"/>
     <use xlink:href="#DejaVuSans-44" transform="translate(2456.65625 0)"/>
     <use xlink:href="#DejaVuSans-55" transform="translate(2517.9375 0)"/>
     <use xlink:href="#DejaVuSans-57" transform="translate(2559.046875 0)"/>
     <use xlink:href="#DejaVuSans-4c" transform="translate(2598.25 0)"/>
     <use xlink:href="#DejaVuSans-57" transform="translate(2626.03125 0)"/>
     <use xlink:href="#DejaVuSans-4c" transform="translate(2665.234375 0)"/>
     <use xlink:href="#DejaVuSans-52" transform="translate(2693.015625 0)"/>
     <use xlink:href="#DejaVuSans-51" transform="translate(2754.203125 0)"/>
     <use xlink:href="#DejaVuSans-48" transform="translate(2817.578125 0)"/>
     <use xlink:href="#DejaVuSans-47" transform="translate(2879.109375 0)"/>
     <use xlink:href="#DejaVuSans-3" transform="translate(2942.59375 0)"/>
     <use xlink:href="#DejaVuSans-44" transform="translate(2974.375 0)"/>
     <use xlink:href="#DejaVuSans-50" transform="translate(3035.65625 0)"/>
     <use xlink:href="#DejaVuSans-52" transform="translate(3133.0625 0)"/>
     <use xlink:href="#DejaVuSans-51" transform="translate(3194.25 0)"/>
     <use xlink:href="#DejaVuSans-4a" transform="translate(3257.625 0)"/>
     <use xlink:href="#DejaVuSans-3" transform="translate(3321.109375 0)"/>
     <use xlink:href="#DejaVuSans-50" transform="translate(3352.890625 0)"/>
     <use xlink:href="#DejaVuSans-4c" transform="translate(3450.296875 0)"/>
     <use xlink:href="#DejaVuSans-51" transform="translate(3478.078125 0)"/>
     <use xlink:href="#DejaVuSans-48" transform="translate(3541.453125 0)"/>
     <use xlink:href="#DejaVuSans-55" transform="translate(3602.984375 0)"/>
     <use xlink:href="#DejaVuSans-56" transform="translate(3644.09375 0)"/>
    </g>
   </g>
  </g>
 </g>
 <defs>
  <clipPath id="p6ba6d380b5">
   <rect x="55.636667" y="20.798437" width="479.88" height="166.32"/>
  </clipPath>
 </defs>
</svg>
