<?xml version="1.0" encoding="utf-8" standalone="no"?>
<!DOCTYPE svg PUBLIC "-//W3C//DTD SVG 1.1//EN"
  "http://www.w3.org/Graphics/SVG/1.1/DTD/svg11.dtd">
<svg xmlns:xlink="http://www.w3.org/1999/xlink" width="510.12pt" height="322.92pt" viewBox="0 0 510.12 322.92" xmlns="http://www.w3.org/2000/svg" version="1.1">
 <metadata>
  <rdf:RDF xmlns:dc="http://purl.org/dc/elements/1.1/" xmlns:cc="http://creativecommons.org/ns#" xmlns:rdf="http://www.w3.org/1999/02/22-rdf-syntax-ns#">
   <cc:Work>
    <dc:type rdf:resource="http://purl.org/dc/dcmitype/StillImage"/>
    <dc:date>2026-08-14T18:29:27.417786</dc:date>
    <dc:format>image/svg+xml</dc:format>
    <dc:creator>
     <cc:Agent>
      <dc:title>Matplotlib v3.11.1, https://matplotlib.org/</dc:title>
     </cc:Agent>
    </dc:creator>
   </cc:Work>
  </rdf:RDF>
 </metadata>
 <defs>
  <style type="text/css">*{stroke-linejoin: round; stroke-linecap: butt}</style>
 </defs>
 <g id="figure_1">
  <g id="patch_1">
   <path d="M 0 322.92 
L 510.12 322.92 
L 510.12 0 
L 0 0 
z
" style="fill: #ffffff"/>
  </g>
  <g id="axes_1">
   <g id="patch_2">
    <path d="M 42.06207 299.719297 
L 502.92 299.719297 
L 502.92 39.158707 
L 42.06207 39.158707 
z
" style="fill: #ffffff"/>
   </g>
   <g id="matplotlib.axis_1">
    <g id="xtick_1">
     <g id="line2d_1">
      <path d="M 122.174677 299.719297 
L 122.174677 39.158707 
" clip-path="url(#p69373dff50)" style="fill: none; stroke: #b0b0b0; stroke-opacity: 0.25; stroke-width: 0.6; stroke-linecap: square"/>
     </g>
     <g id="line2d_2">
      <defs>
       <path id="m6dba557642" d="M 0 0 
L 0 3.5 
" style="stroke: #000000; stroke-width: 0.8"/>
      </defs>
      <g>
       <use xlink:href="#m6dba557642" x="122.174677" y="299.719297" style="stroke: #000000; stroke-width: 0.8"/>
      </g>
     </g>
     <g id="text_1">
      <!-- PoCol-All -->
      <g transform="translate(102.619364 313.557891) scale(0.09 -0.09)">
       <defs>
        <path id="DejaVuSans-33" d="M 1259 4147 
L 1259 2394 
L 2053 2394 
Q 2494 2394 2734 2622 
Q 2975 2850 2975 3272 
Q 2975 3691 2734 3919 
Q 2494 4147 2053 4147 
L 1259 4147 
z
M 628 4666 
L 2053 4666 
Q 2838 4666 3239 4311 
Q 3641 3956 3641 3272 
Q 3641 2581 3239 2228 
Q 2838 1875 2053 1875 
L 1259 1875 
L 1259 0 
L 628 0 
L 628 4666 
z
" transform="scale(0.015625)"/>
        <path id="DejaVuSans-52" d="M 1959 3097 
Q 1497 3097 1228 2736 
Q 959 2375 959 1747 
Q 959 1119 1226 758 
Q 1494 397 1959 397 
Q 2419 397 2687 759 
Q 2956 1122 2956 1747 
Q 2956 2369 2687 2733 
Q 2419 3097 1959 3097 
z
M 1959 3584 
Q 2709 3584 3137 3096 
Q 3566 2609 3566 1747 
Q 3566 888 3137 398 
Q 2709 -91 1959 -91 
Q 1206 -91 779 398 
Q 353 888 353 1747 
Q 353 2609 779 3096 
Q 1206 3584 1959 3584 
z
" transform="scale(0.015625)"/>
        <path id="DejaVuSans-26" d="M 4122 4306 
L 4122 3641 
Q 3803 3938 3442 4084 
Q 3081 4231 2675 4231 
Q 1875 4231 1450 3742 
Q 1025 3253 1025 2328 
Q 1025 1406 1450 917 
Q 1875 428 2675 428 
Q 3081 428 3442 575 
Q 3803 722 4122 1019 
L 4122 359 
Q 3791 134 3420 21 
Q 3050 -91 2638 -91 
Q 1578 -91 968 557 
Q 359 1206 359 2328 
Q 359 3453 968 4101 
Q 1578 4750 2638 4750 
Q 3056 4750 3426 4639 
Q 3797 4528 4122 4306 
z
" transform="scale(0.015625)"/>
        <path id="DejaVuSans-4f" d="M 603 4863 
L 1178 4863 
L 1178 0 
L 603 0 
L 603 4863 
z
" transform="scale(0.015625)"/>
        <path id="DejaVuSans-10" d="M 313 2009 
L 1997 2009 
L 1997 1497 
L 313 1497 
L 313 2009 
z
" transform="scale(0.015625)"/>
        <path id="DejaVuSans-24" d="M 2188 4044 
L 1331 1722 
L 3047 1722 
L 2188 4044 
z
M 1831 4666 
L 2547 4666 
L 4325 0 
L 3669 0 
L 3244 1197 
L 1141 1197 
L 716 0 
L 50 0 
L 1831 4666 
z
" transform="scale(0.015625)"/>
       </defs>
       <use xlink:href="#DejaVuSans-33"/>
       <use xlink:href="#DejaVuSans-52" transform="translate(56.734375 0)"/>
       <use xlink:href="#DejaVuSans-26" transform="translate(117.921875 0)"/>
       <use xlink:href="#DejaVuSans-52" transform="translate(187.75 0)"/>
       <use xlink:href="#DejaVuSans-4f" transform="translate(248.9375 0)"/>
       <use xlink:href="#DejaVuSans-10" transform="translate(276.71875 0)"/>
       <use xlink:href="#DejaVuSans-24" transform="translate(310.59375 0)"/>
       <use xlink:href="#DejaVuSans-4f" transform="translate(379 0)"/>
       <use xlink:href="#DejaVuSans-4f" transform="translate(406.78125 0)"/>
      </g>
     </g>
    </g>
    <g id="xtick_2">
     <g id="line2d_3">
      <path d="M 272.491035 299.719297 
L 272.491035 39.158707 
" clip-path="url(#p69373dff50)" style="fill: none; stroke: #b0b0b0; stroke-opacity: 0.25; stroke-width: 0.6; stroke-linecap: square"/>
     </g>
     <g id="line2d_4">
      <g>
       <use xlink:href="#m6dba557642" x="272.491035" y="299.719297" style="stroke: #000000; stroke-width: 0.8"/>
      </g>
     </g>
     <g id="text_2">
      <!-- PoCol EnergyAware -->
      <g transform="translate(228.999238 313.557891) scale(0.09 -0.09)">
       <defs>
        <path id="DejaVuSans-3" transform="scale(0.015625)"/>
        <path id="DejaVuSans-28" d="M 628 4666 
L 3578 4666 
L 3578 4134 
L 1259 4134 
L 1259 2753 
L 3481 2753 
L 3481 2222 
L 1259 2222 
L 1259 531 
L 3634 531 
L 3634 0 
L 628 0 
L 628 4666 
z
" transform="scale(0.015625)"/>
        <path id="DejaVuSans-51" d="M 3513 2113 
L 3513 0 
L 2938 0 
L 2938 2094 
Q 2938 2591 2744 2837 
Q 2550 3084 2163 3084 
Q 1697 3084 1428 2787 
Q 1159 2491 1159 1978 
L 1159 0 
L 581 0 
L 581 3500 
L 1159 3500 
L 1159 2956 
Q 1366 3272 1645 3428 
Q 1925 3584 2291 3584 
Q 2894 3584 3203 3211 
Q 3513 2838 3513 2113 
z
" transform="scale(0.015625)"/>
        <path id="DejaVuSans-48" d="M 3597 1894 
L 3597 1613 
L 953 1613 
Q 991 1019 1311 708 
Q 1631 397 2203 397 
Q 2534 397 2845 478 
Q 3156 559 3463 722 
L 3463 178 
Q 3153 47 2828 -22 
Q 2503 -91 2169 -91 
Q 1331 -91 842 396 
Q 353 884 353 1716 
Q 353 2575 817 3079 
Q 1281 3584 2069 3584 
Q 2775 3584 3186 3129 
Q 3597 2675 3597 1894 
z
M 3022 2063 
Q 3016 2534 2758 2815 
Q 2500 3097 2075 3097 
Q 1594 3097 1305 2825 
Q 1016 2553 972 2059 
L 3022 2063 
z
" transform="scale(0.015625)"/>
        <path id="DejaVuSans-55" d="M 2631 2963 
Q 2534 3019 2420 3045 
Q 2306 3072 2169 3072 
Q 1681 3072 1420 2755 
Q 1159 2438 1159 1844 
L 1159 0 
L 581 0 
L 581 3500 
L 1159 3500 
L 1159 2956 
Q 1341 3275 1631 3429 
Q 1922 3584 2338 3584 
Q 2397 3584 2469 3576 
Q 2541 3569 2628 3553 
L 2631 2963 
z
" transform="scale(0.015625)"/>
        <path id="DejaVuSans-4a" d="M 2906 1791 
Q 2906 2416 2648 2759 
Q 2391 3103 1925 3103 
Q 1463 3103 1205 2759 
Q 947 2416 947 1791 
Q 947 1169 1205 825 
Q 1463 481 1925 481 
Q 2391 481 2648 825 
Q 2906 1169 2906 1791 
z
M 3481 434 
Q 3481 -459 3084 -895 
Q 2688 -1331 1869 -1331 
Q 1566 -1331 1297 -1286 
Q 1028 -1241 775 -1147 
L 775 -588 
Q 1028 -725 1275 -790 
Q 1522 -856 1778 -856 
Q 2344 -856 2625 -561 
Q 2906 -266 2906 331 
L 2906 616 
Q 2728 306 2450 153 
Q 2172 0 1784 0 
Q 1141 0 747 490 
Q 353 981 353 1791 
Q 353 2603 747 3093 
Q 1141 3584 1784 3584 
Q 2172 3584 2450 3431 
Q 2728 3278 2906 2969 
L 2906 3500 
L 3481 3500 
L 3481 434 
z
" transform="scale(0.015625)"/>
        <path id="DejaVuSans-5c" d="M 2059 -325 
Q 1816 -950 1584 -1140 
Q 1353 -1331 966 -1331 
L 506 -1331 
L 506 -850 
L 844 -850 
Q 1081 -850 1212 -737 
Q 1344 -625 1503 -206 
L 1606 56 
L 191 3500 
L 800 3500 
L 1894 763 
L 2988 3500 
L 3597 3500 
L 2059 -325 
z
" transform="scale(0.015625)"/>
        <path id="DejaVuSans-5a" d="M 269 3500 
L 844 3500 
L 1563 769 
L 2278 3500 
L 2956 3500 
L 3675 769 
L 4391 3500 
L 4966 3500 
L 4050 0 
L 3372 0 
L 2619 2869 
L 1863 0 
L 1184 0 
L 269 3500 
z
" transform="scale(0.015625)"/>
        <path id="DejaVuSans-44" d="M 2194 1759 
Q 1497 1759 1228 1600 
Q 959 1441 959 1056 
Q 959 750 1161 570 
Q 1363 391 1709 391 
Q 2188 391 2477 730 
Q 2766 1069 2766 1631 
L 2766 1759 
L 2194 1759 
z
M 3341 1997 
L 3341 0 
L 2766 0 
L 2766 531 
Q 2569 213 2275 61 
Q 1981 -91 1556 -91 
Q 1019 -91 701 211 
Q 384 513 384 1019 
Q 384 1609 779 1909 
Q 1175 2209 1959 2209 
L 2766 2209 
L 2766 2266 
Q 2766 2663 2505 2880 
Q 2244 3097 1772 3097 
Q 1472 3097 1187 3025 
Q 903 2953 641 2809 
L 641 3341 
Q 956 3463 1253 3523 
Q 1550 3584 1831 3584 
Q 2591 3584 2966 3190 
Q 3341 2797 3341 1997 
z
" transform="scale(0.015625)"/>
       </defs>
       <use xlink:href="#DejaVuSans-33"/>
       <use xlink:href="#DejaVuSans-52" transform="translate(56.734375 0)"/>
       <use xlink:href="#DejaVuSans-26" transform="translate(117.921875 0)"/>
       <use xlink:href="#DejaVuSans-52" transform="translate(187.75 0)"/>
       <use xlink:href="#DejaVuSans-4f" transform="translate(248.9375 0)"/>
       <use xlink:href="#DejaVuSans-3" transform="translate(276.71875 0)"/>
       <use xlink:href="#DejaVuSans-28" transform="translate(308.5 0)"/>
       <use xlink:href="#DejaVuSans-51" transform="translate(371.6875 0)"/>
       <use xlink:href="#DejaVuSans-48" transform="translate(435.0625 0)"/>
       <use xlink:href="#DejaVuSans-55" transform="translate(496.59375 0)"/>
       <use xlink:href="#DejaVuSans-4a" transform="translate(535.953125 0)"/>
       <use xlink:href="#DejaVuSans-5c" transform="translate(599.4375 0)"/>
       <use xlink:href="#DejaVuSans-24" transform="translate(658.625 0)"/>
       <use xlink:href="#DejaVuSans-5a" transform="translate(722.984375 0)"/>
       <use xlink:href="#DejaVuSans-44" transform="translate(804.765625 0)"/>
       <use xlink:href="#DejaVuSans-55" transform="translate(866.046875 0)"/>
       <use xlink:href="#DejaVuSans-48" transform="translate(904.953125 0)"/>
      </g>
     </g>
    </g>
    <g id="xtick_3">
     <g id="line2d_5">
      <path d="M 422.807394 299.719297 
L 422.807394 39.158707 
" clip-path="url(#p69373dff50)" style="fill: none; stroke: #b0b0b0; stroke-opacity: 0.25; stroke-width: 0.6; stroke-linecap: square"/>
     </g>
     <g id="line2d_6">
      <g>
       <use xlink:href="#m6dba557642" x="422.807394" y="299.719297" style="stroke: #000000; stroke-width: 0.8"/>
      </g>
     </g>
     <g id="text_3">
      <!-- PoCol AdaptiveReserve -->
      <g transform="translate(370.918175 313.557891) scale(0.09 -0.09)">
       <defs>
        <path id="DejaVuSans-47" d="M 2906 2969 
L 2906 4863 
L 3481 4863 
L 3481 0 
L 2906 0 
L 2906 525 
Q 2725 213 2448 61 
Q 2172 -91 1784 -91 
Q 1150 -91 751 415 
Q 353 922 353 1747 
Q 353 2572 751 3078 
Q 1150 3584 1784 3584 
Q 2172 3584 2448 3432 
Q 2725 3281 2906 2969 
z
M 947 1747 
Q 947 1113 1208 752 
Q 1469 391 1925 391 
Q 2381 391 2643 752 
Q 2906 1113 2906 1747 
Q 2906 2381 2643 2742 
Q 2381 3103 1925 3103 
Q 1469 3103 1208 2742 
Q 947 2381 947 1747 
z
" transform="scale(0.015625)"/>
        <path id="DejaVuSans-53" d="M 1159 525 
L 1159 -1331 
L 581 -1331 
L 581 3500 
L 1159 3500 
L 1159 2969 
Q 1341 3281 1617 3432 
Q 1894 3584 2278 3584 
Q 2916 3584 3314 3078 
Q 3713 2572 3713 1747 
Q 3713 922 3314 415 
Q 2916 -91 2278 -91 
Q 1894 -91 1617 61 
Q 1341 213 1159 525 
z
M 3116 1747 
Q 3116 2381 2855 2742 
Q 2594 3103 2138 3103 
Q 1681 3103 1420 2742 
Q 1159 2381 1159 1747 
Q 1159 1113 1420 752 
Q 1681 391 2138 391 
Q 2594 391 2855 752 
Q 3116 1113 3116 1747 
z
" transform="scale(0.015625)"/>
        <path id="DejaVuSans-57" d="M 1172 4494 
L 1172 3500 
L 2356 3500 
L 2356 3053 
L 1172 3053 
L 1172 1153 
Q 1172 725 1289 603 
Q 1406 481 1766 481 
L 2356 481 
L 2356 0 
L 1766 0 
Q 1100 0 847 248 
Q 594 497 594 1153 
L 594 3053 
L 172 3053 
L 172 3500 
L 594 3500 
L 594 4494 
L 1172 4494 
z
" transform="scale(0.015625)"/>
        <path id="DejaVuSans-4c" d="M 603 3500 
L 1178 3500 
L 1178 0 
L 603 0 
L 603 3500 
z
M 603 4863 
L 1178 4863 
L 1178 4134 
L 603 4134 
L 603 4863 
z
" transform="scale(0.015625)"/>
        <path id="DejaVuSans-59" d="M 191 3500 
L 800 3500 
L 1894 563 
L 2988 3500 
L 3597 3500 
L 2284 0 
L 1503 0 
L 191 3500 
z
" transform="scale(0.015625)"/>
        <path id="DejaVuSans-35" d="M 2841 2188 
Q 3044 2119 3236 1894 
Q 3428 1669 3622 1275 
L 4263 0 
L 3584 0 
L 2988 1197 
Q 2756 1666 2539 1819 
Q 2322 1972 1947 1972 
L 1259 1972 
L 1259 0 
L 628 0 
L 628 4666 
L 2053 4666 
Q 2853 4666 3247 4331 
Q 3641 3997 3641 3322 
Q 3641 2881 3436 2590 
Q 3231 2300 2841 2188 
z
M 1259 4147 
L 1259 2491 
L 2053 2491 
Q 2509 2491 2742 2702 
Q 2975 2913 2975 3322 
Q 2975 3731 2742 3939 
Q 2509 4147 2053 4147 
L 1259 4147 
z
" transform="scale(0.015625)"/>
        <path id="DejaVuSans-56" d="M 2834 3397 
L 2834 2853 
Q 2591 2978 2328 3040 
Q 2066 3103 1784 3103 
Q 1356 3103 1142 2972 
Q 928 2841 928 2578 
Q 928 2378 1081 2264 
Q 1234 2150 1697 2047 
L 1894 2003 
Q 2506 1872 2764 1633 
Q 3022 1394 3022 966 
Q 3022 478 2636 193 
Q 2250 -91 1575 -91 
Q 1294 -91 989 -36 
Q 684 19 347 128 
L 347 722 
Q 666 556 975 473 
Q 1284 391 1588 391 
Q 1994 391 2212 530 
Q 2431 669 2431 922 
Q 2431 1156 2273 1281 
Q 2116 1406 1581 1522 
L 1381 1569 
Q 847 1681 609 1914 
Q 372 2147 372 2553 
Q 372 3047 722 3315 
Q 1072 3584 1716 3584 
Q 2034 3584 2315 3537 
Q 2597 3491 2834 3397 
z
" transform="scale(0.015625)"/>
       </defs>
       <use xlink:href="#DejaVuSans-33"/>
       <use xlink:href="#DejaVuSans-52" transform="translate(56.734375 0)"/>
       <use xlink:href="#DejaVuSans-26" transform="translate(117.921875 0)"/>
       <use xlink:href="#DejaVuSans-52" transform="translate(187.75 0)"/>
       <use xlink:href="#DejaVuSans-4f" transform="translate(248.9375 0)"/>
       <use xlink:href="#DejaVuSans-3" transform="translate(276.71875 0)"/>
       <use xlink:href="#DejaVuSans-24" transform="translate(308.5 0)"/>
       <use xlink:href="#DejaVuSans-47" transform="translate(375.15625 0)"/>
       <use xlink:href="#DejaVuSans-44" transform="translate(438.640625 0)"/>
       <use xlink:href="#DejaVuSans-53" transform="translate(499.921875 0)"/>
       <use xlink:href="#DejaVuSans-57" transform="translate(563.40625 0)"/>
       <use xlink:href="#DejaVuSans-4c" transform="translate(602.609375 0)"/>
       <use xlink:href="#DejaVuSans-59" transform="translate(630.390625 0)"/>
       <use xlink:href="#DejaVuSans-48" transform="translate(689.578125 0)"/>
       <use xlink:href="#DejaVuSans-35" transform="translate(751.109375 0)"/>
       <use xlink:href="#DejaVuSans-48" transform="translate(816.109375 0)"/>
       <use xlink:href="#DejaVuSans-56" transform="translate(877.640625 0)"/>
       <use xlink:href="#DejaVuSans-48" transform="translate(929.734375 0)"/>
       <use xlink:href="#DejaVuSans-55" transform="translate(991.265625 0)"/>
       <use xlink:href="#DejaVuSans-59" transform="translate(1032.375 0)"/>
       <use xlink:href="#DejaVuSans-48" transform="translate(1091.5625 0)"/>
      </g>
     </g>
    </g>
   </g>
   <g id="matplotlib.axis_2">
    <g id="ytick_1">
     <g id="line2d_7">
      <path d="M 42.06207 299.719297 
L 502.92 299.719297 
" clip-path="url(#p69373dff50)" style="fill: none; stroke: #b0b0b0; stroke-opacity: 0.25; stroke-width: 0.6; stroke-linecap: square"/>
     </g>
     <g id="line2d_8">
      <defs>
       <path id="m252e9066b9" d="M 0 0 
L -3.5 0 
" style="stroke: #000000; stroke-width: 0.8"/>
      </defs>
      <g>
       <use xlink:href="#m252e9066b9" x="42.06207" y="299.719297" style="stroke: #000000; stroke-width: 0.8"/>
      </g>
     </g>
     <g id="text_4">
      <!-- 0 -->
      <g transform="translate(28.381445 303.708066) scale(0.105 -0.105)">
       <defs>
        <path id="DejaVuSans-13" d="M 2034 4250 
Q 1547 4250 1301 3770 
Q 1056 3291 1056 2328 
Q 1056 1369 1301 889 
Q 1547 409 2034 409 
Q 2525 409 2770 889 
Q 3016 1369 3016 2328 
Q 3016 3291 2770 3770 
Q 2525 4250 2034 4250 
z
M 2034 4750 
Q 2819 4750 3233 4129 
Q 3647 3509 3647 2328 
Q 3647 1150 3233 529 
Q 2819 -91 2034 -91 
Q 1250 -91 836 529 
Q 422 1150 422 2328 
Q 422 3509 836 4129 
Q 1250 4750 2034 4750 
z
" transform="scale(0.015625)"/>
       </defs>
       <use xlink:href="#DejaVuSans-13"/>
      </g>
     </g>
    </g>
    <g id="ytick_2">
     <g id="line2d_9">
      <path d="M 42.06207 249.345362 
L 502.92 249.345362 
" clip-path="url(#p69373dff50)" style="fill: none; stroke: #b0b0b0; stroke-opacity: 0.25; stroke-width: 0.6; stroke-linecap: square"/>
     </g>
     <g id="line2d_10">
      <g>
       <use xlink:href="#m252e9066b9" x="42.06207" y="249.345362" style="stroke: #000000; stroke-width: 0.8"/>
      </g>
     </g>
     <g id="text_5">
      <!-- 10 -->
      <g transform="translate(21.70082 253.334132) scale(0.105 -0.105)">
       <defs>
        <path id="DejaVuSans-14" d="M 794 531 
L 1825 531 
L 1825 4091 
L 703 3866 
L 703 4441 
L 1819 4666 
L 2450 4666 
L 2450 531 
L 3481 531 
L 3481 0 
L 794 0 
L 794 531 
z
" transform="scale(0.015625)"/>
       </defs>
       <use xlink:href="#DejaVuSans-14"/>
       <use xlink:href="#DejaVuSans-13" transform="translate(63.625 0)"/>
      </g>
     </g>
    </g>
    <g id="ytick_3">
     <g id="line2d_11">
      <path d="M 42.06207 198.971427 
L 502.92 198.971427 
" clip-path="url(#p69373dff50)" style="fill: none; stroke: #b0b0b0; stroke-opacity: 0.25; stroke-width: 0.6; stroke-linecap: square"/>
     </g>
     <g id="line2d_12">
      <g>
       <use xlink:href="#m252e9066b9" x="42.06207" y="198.971427" style="stroke: #000000; stroke-width: 0.8"/>
      </g>
     </g>
     <g id="text_6">
      <!-- 20 -->
      <g transform="translate(21.70082 202.960197) scale(0.105 -0.105)">
       <defs>
        <path id="DejaVuSans-15" d="M 1228 531 
L 3431 531 
L 3431 0 
L 469 0 
L 469 531 
Q 828 903 1448 1529 
Q 2069 2156 2228 2338 
Q 2531 2678 2651 2914 
Q 2772 3150 2772 3378 
Q 2772 3750 2511 3984 
Q 2250 4219 1831 4219 
Q 1534 4219 1204 4116 
Q 875 4013 500 3803 
L 500 4441 
Q 881 4594 1212 4672 
Q 1544 4750 1819 4750 
Q 2544 4750 2975 4387 
Q 3406 4025 3406 3419 
Q 3406 3131 3298 2873 
Q 3191 2616 2906 2266 
Q 2828 2175 2409 1742 
Q 1991 1309 1228 531 
z
" transform="scale(0.015625)"/>
       </defs>
       <use xlink:href="#DejaVuSans-15"/>
       <use xlink:href="#DejaVuSans-13" transform="translate(63.625 0)"/>
      </g>
     </g>
    </g>
    <g id="ytick_4">
     <g id="line2d_13">
      <path d="M 42.06207 148.597492 
L 502.92 148.597492 
" clip-path="url(#p69373dff50)" style="fill: none; stroke: #b0b0b0; stroke-opacity: 0.25; stroke-width: 0.6; stroke-linecap: square"/>
     </g>
     <g id="line2d_14">
      <g>
       <use xlink:href="#m252e9066b9" x="42.06207" y="148.597492" style="stroke: #000000; stroke-width: 0.8"/>
      </g>
     </g>
     <g id="text_7">
      <!-- 30 -->
      <g transform="translate(21.70082 152.586262) scale(0.105 -0.105)">
       <defs>
        <path id="DejaVuSans-16" d="M 2597 2516 
Q 3050 2419 3304 2112 
Q 3559 1806 3559 1356 
Q 3559 666 3084 287 
Q 2609 -91 1734 -91 
Q 1441 -91 1130 -33 
Q 819 25 488 141 
L 488 750 
Q 750 597 1062 519 
Q 1375 441 1716 441 
Q 2309 441 2620 675 
Q 2931 909 2931 1356 
Q 2931 1769 2642 2001 
Q 2353 2234 1838 2234 
L 1294 2234 
L 1294 2753 
L 1863 2753 
Q 2328 2753 2575 2939 
Q 2822 3125 2822 3475 
Q 2822 3834 2567 4026 
Q 2313 4219 1838 4219 
Q 1578 4219 1281 4162 
Q 984 4106 628 3988 
L 628 4550 
Q 988 4650 1302 4700 
Q 1616 4750 1894 4750 
Q 2613 4750 3031 4423 
Q 3450 4097 3450 3541 
Q 3450 3153 3228 2886 
Q 3006 2619 2597 2516 
z
" transform="scale(0.015625)"/>
       </defs>
       <use xlink:href="#DejaVuSans-16"/>
       <use xlink:href="#DejaVuSans-13" transform="translate(63.625 0)"/>
      </g>
     </g>
    </g>
    <g id="ytick_5">
     <g id="line2d_15">
      <path d="M 42.06207 98.223558 
L 502.92 98.223558 
" clip-path="url(#p69373dff50)" style="fill: none; stroke: #b0b0b0; stroke-opacity: 0.25; stroke-width: 0.6; stroke-linecap: square"/>
     </g>
     <g id="line2d_16">
      <g>
       <use xlink:href="#m252e9066b9" x="42.06207" y="98.223558" style="stroke: #000000; stroke-width: 0.8"/>
      </g>
     </g>
     <g id="text_8">
      <!-- 40 -->
      <g transform="translate(21.70082 102.212327) scale(0.105 -0.105)">
       <defs>
        <path id="DejaVuSans-17" d="M 2419 4116 
L 825 1625 
L 2419 1625 
L 2419 4116 
z
M 2253 4666 
L 3047 4666 
L 3047 1625 
L 3713 1625 
L 3713 1100 
L 3047 1100 
L 3047 0 
L 2419 0 
L 2419 1100 
L 313 1100 
L 313 1709 
L 2253 4666 
z
" transform="scale(0.015625)"/>
       </defs>
       <use xlink:href="#DejaVuSans-17"/>
       <use xlink:href="#DejaVuSans-13" transform="translate(63.625 0)"/>
      </g>
     </g>
    </g>
    <g id="ytick_6">
     <g id="line2d_17">
      <path d="M 42.06207 47.849623 
L 502.92 47.849623 
" clip-path="url(#p69373dff50)" style="fill: none; stroke: #b0b0b0; stroke-opacity: 0.25; stroke-width: 0.6; stroke-linecap: square"/>
     </g>
     <g id="line2d_18">
      <g>
       <use xlink:href="#m252e9066b9" x="42.06207" y="47.849623" style="stroke: #000000; stroke-width: 0.8"/>
      </g>
     </g>
     <g id="text_9">
      <!-- 50 -->
      <g transform="translate(21.70082 51.838392) scale(0.105 -0.105)">
       <defs>
        <path id="DejaVuSans-18" d="M 691 4666 
L 3169 4666 
L 3169 4134 
L 1269 4134 
L 1269 2991 
Q 1406 3038 1543 3061 
Q 1681 3084 1819 3084 
Q 2600 3084 3056 2656 
Q 3513 2228 3513 1497 
Q 3513 744 3044 326 
Q 2575 -91 1722 -91 
Q 1428 -91 1123 -41 
Q 819 9 494 109 
L 494 744 
Q 775 591 1075 516 
Q 1375 441 1709 441 
Q 2250 441 2565 725 
Q 2881 1009 2881 1497 
Q 2881 1984 2565 2268 
Q 2250 2553 1709 2553 
Q 1456 2553 1204 2497 
Q 953 2441 691 2322 
L 691 4666 
z
" transform="scale(0.015625)"/>
       </defs>
       <use xlink:href="#DejaVuSans-18"/>
       <use xlink:href="#DejaVuSans-13" transform="translate(63.625 0)"/>
      </g>
     </g>
    </g>
    <g id="text_10">
     <!-- Energy saving vs matched PoW (%) -->
     <g transform="translate(15.178359 262.816814) rotate(-90) scale(0.105 -0.105)">
      <defs>
       <path id="DejaVuSans-50" d="M 3328 2828 
Q 3544 3216 3844 3400 
Q 4144 3584 4550 3584 
Q 5097 3584 5394 3201 
Q 5691 2819 5691 2113 
L 5691 0 
L 5113 0 
L 5113 2094 
Q 5113 2597 4934 2840 
Q 4756 3084 4391 3084 
Q 3944 3084 3684 2787 
Q 3425 2491 3425 1978 
L 3425 0 
L 2847 0 
L 2847 2094 
Q 2847 2600 2669 2842 
Q 2491 3084 2119 3084 
Q 1678 3084 1418 2786 
Q 1159 2488 1159 1978 
L 1159 0 
L 581 0 
L 581 3500 
L 1159 3500 
L 1159 2956 
Q 1356 3278 1631 3431 
Q 1906 3584 2284 3584 
Q 2666 3584 2933 3390 
Q 3200 3197 3328 2828 
z
" transform="scale(0.015625)"/>
       <path id="DejaVuSans-46" d="M 3122 3366 
L 3122 2828 
Q 2878 2963 2633 3030 
Q 2388 3097 2138 3097 
Q 1578 3097 1268 2742 
Q 959 2388 959 1747 
Q 959 1106 1268 751 
Q 1578 397 2138 397 
Q 2388 397 2633 464 
Q 2878 531 3122 666 
L 3122 134 
Q 2881 22 2623 -34 
Q 2366 -91 2075 -91 
Q 1284 -91 818 406 
Q 353 903 353 1747 
Q 353 2603 823 3093 
Q 1294 3584 2113 3584 
Q 2378 3584 2631 3529 
Q 2884 3475 3122 3366 
z
" transform="scale(0.015625)"/>
       <path id="DejaVuSans-4b" d="M 3513 2113 
L 3513 0 
L 2938 0 
L 2938 2094 
Q 2938 2591 2744 2837 
Q 2550 3084 2163 3084 
Q 1697 3084 1428 2787 
Q 1159 2491 1159 1978 
L 1159 0 
L 581 0 
L 581 4863 
L 1159 4863 
L 1159 2956 
Q 1366 3272 1645 3428 
Q 1925 3584 2291 3584 
Q 2894 3584 3203 3211 
Q 3513 2838 3513 2113 
z
" transform="scale(0.015625)"/>
       <path id="DejaVuSans-3a" d="M 213 4666 
L 850 4666 
L 1831 722 
L 2809 4666 
L 3519 4666 
L 4500 722 
L 5478 4666 
L 6119 4666 
L 4947 0 
L 4153 0 
L 3169 4050 
L 2175 0 
L 1381 0 
L 213 4666 
z
" transform="scale(0.015625)"/>
       <path id="DejaVuSans-b" d="M 1984 4856 
Q 1566 4138 1362 3434 
Q 1159 2731 1159 2009 
Q 1159 1288 1364 580 
Q 1569 -128 1984 -844 
L 1484 -844 
Q 1016 -109 783 600 
Q 550 1309 550 2009 
Q 550 2706 781 3412 
Q 1013 4119 1484 4856 
L 1984 4856 
z
" transform="scale(0.015625)"/>
       <path id="DejaVuSans-8" d="M 4653 2053 
Q 4381 2053 4226 1822 
Q 4072 1591 4072 1178 
Q 4072 772 4226 539 
Q 4381 306 4653 306 
Q 4919 306 5073 539 
Q 5228 772 5228 1178 
Q 5228 1588 5073 1820 
Q 4919 2053 4653 2053 
z
M 4653 2450 
Q 5147 2450 5437 2106 
Q 5728 1763 5728 1178 
Q 5728 594 5436 251 
Q 5144 -91 4653 -91 
Q 4153 -91 3862 251 
Q 3572 594 3572 1178 
Q 3572 1766 3864 2108 
Q 4156 2450 4653 2450 
z
M 1428 4353 
Q 1159 4353 1004 4120 
Q 850 3888 850 3481 
Q 850 3069 1003 2837 
Q 1156 2606 1428 2606 
Q 1700 2606 1854 2837 
Q 2009 3069 2009 3481 
Q 2009 3884 1853 4118 
Q 1697 4353 1428 4353 
z
M 4250 4750 
L 4750 4750 
L 1831 -91 
L 1331 -91 
L 4250 4750 
z
M 1428 4750 
Q 1922 4750 2215 4408 
Q 2509 4066 2509 3481 
Q 2509 2891 2217 2550 
Q 1925 2209 1428 2209 
Q 931 2209 642 2551 
Q 353 2894 353 3481 
Q 353 4063 643 4406 
Q 934 4750 1428 4750 
z
" transform="scale(0.015625)"/>
       <path id="DejaVuSans-c" d="M 513 4856 
L 1013 4856 
Q 1481 4119 1714 3412 
Q 1947 2706 1947 2009 
Q 1947 1309 1714 600 
Q 1481 -109 1013 -844 
L 513 -844 
Q 928 -128 1133 580 
Q 1338 1288 1338 2009 
Q 1338 2731 1133 3434 
Q 928 4138 513 4856 
z
" transform="scale(0.015625)"/>
      </defs>
      <use xlink:href="#DejaVuSans-28"/>
      <use xlink:href="#DejaVuSans-51" transform="translate(63.1875 0)"/>
      <use xlink:href="#DejaVuSans-48" transform="translate(126.5625 0)"/>
      <use xlink:href="#DejaVuSans-55" transform="translate(188.09375 0)"/>
      <use xlink:href="#DejaVuSans-4a" transform="translate(227.453125 0)"/>
      <use xlink:href="#DejaVuSans-5c" transform="translate(290.9375 0)"/>
      <use xlink:href="#DejaVuSans-3" transform="translate(350.125 0)"/>
      <use xlink:href="#DejaVuSans-56" transform="translate(381.90625 0)"/>
      <use xlink:href="#DejaVuSans-44" transform="translate(434 0)"/>
      <use xlink:href="#DejaVuSans-59" transform="translate(495.28125 0)"/>
      <use xlink:href="#DejaVuSans-4c" transform="translate(554.46875 0)"/>
      <use xlink:href="#DejaVuSans-51" transform="translate(582.25 0)"/>
      <use xlink:href="#DejaVuSans-4a" transform="translate(645.625 0)"/>
      <use xlink:href="#DejaVuSans-3" transform="translate(709.109375 0)"/>
      <use xlink:href="#DejaVuSans-59" transform="translate(740.890625 0)"/>
      <use xlink:href="#DejaVuSans-56" transform="translate(800.078125 0)"/>
      <use xlink:href="#DejaVuSans-3" transform="translate(852.171875 0)"/>
      <use xlink:href="#DejaVuSans-50" transform="translate(883.953125 0)"/>
      <use xlink:href="#DejaVuSans-44" transform="translate(981.359375 0)"/>
      <use xlink:href="#DejaVuSans-57" transform="translate(1042.640625 0)"/>
      <use xlink:href="#DejaVuSans-46" transform="translate(1081.84375 0)"/>
      <use xlink:href="#DejaVuSans-4b" transform="translate(1136.828125 0)"/>
      <use xlink:href="#DejaVuSans-48" transform="translate(1200.203125 0)"/>
      <use xlink:href="#DejaVuSans-47" transform="translate(1261.734375 0)"/>
      <use xlink:href="#DejaVuSans-3" transform="translate(1325.21875 0)"/>
      <use xlink:href="#DejaVuSans-33" transform="translate(1357 0)"/>
      <use xlink:href="#DejaVuSans-52" transform="translate(1413.734375 0)"/>
      <use xlink:href="#DejaVuSans-3a" transform="translate(1474.921875 0)"/>
      <use xlink:href="#DejaVuSans-3" transform="translate(1573.796875 0)"/>
      <use xlink:href="#DejaVuSans-b" transform="translate(1605.578125 0)"/>
      <use xlink:href="#DejaVuSans-8" transform="translate(1644.59375 0)"/>
      <use xlink:href="#DejaVuSans-c" transform="translate(1739.609375 0)"/>
     </g>
    </g>
   </g>
   <g id="patch_3">
    <path d="M 63.010158 299.719297 
L 85.136726 299.719297 
L 85.136726 298.578627 
L 63.010158 298.578627 
z
" clip-path="url(#p69373dff50)" style="fill: #c6dbef"/>
   </g>
   <g id="patch_4">
    <path d="M 213.326516 299.719297 
L 235.453084 299.719297 
L 235.453084 55.206682 
L 213.326516 55.206682 
z
" clip-path="url(#p69373dff50)" style="fill: #c6dbef"/>
   </g>
   <g id="patch_5">
    <path d="M 363.642875 299.719297 
L 385.769443 299.719297 
L 385.769443 72.933608 
L 363.642875 72.933608 
z
" clip-path="url(#p69373dff50)" style="fill: #c6dbef"/>
   </g>
   <g id="patch_6">
    <path d="M 87.060775 299.719297 
L 109.187343 299.719297 
L 109.187343 298.63566 
L 87.060775 298.63566 
z
" clip-path="url(#p69373dff50)" style="fill: #9ecae1"/>
   </g>
   <g id="patch_7">
    <path d="M 237.377134 299.719297 
L 259.503702 299.719297 
L 259.503702 67.432313 
L 237.377134 67.432313 
z
" clip-path="url(#p69373dff50)" style="fill: #9ecae1"/>
   </g>
   <g id="patch_8">
    <path d="M 387.693492 299.719297 
L 409.82006 299.719297 
L 409.82006 84.272893 
L 387.693492 84.272893 
z
" clip-path="url(#p69373dff50)" style="fill: #9ecae1"/>
   </g>
   <g id="patch_9">
    <path d="M 111.111393 299.719297 
L 133.237961 299.719297 
L 133.237961 298.692694 
L 111.111393 298.692694 
z
" clip-path="url(#p69373dff50)" style="fill: #4292c6"/>
   </g>
   <g id="patch_10">
    <path d="M 261.427751 299.719297 
L 283.554319 299.719297 
L 283.554319 79.657944 
L 261.427751 79.657944 
z
" clip-path="url(#p69373dff50)" style="fill: #4292c6"/>
   </g>
   <g id="patch_11">
    <path d="M 411.74411 299.719297 
L 433.870678 299.719297 
L 433.870678 95.612177 
L 411.74411 95.612177 
z
" clip-path="url(#p69373dff50)" style="fill: #4292c6"/>
   </g>
   <g id="patch_12">
    <path d="M 135.16201 299.719297 
L 157.288578 299.719297 
L 157.288578 298.863794 
L 135.16201 298.863794 
z
" clip-path="url(#p69373dff50)" style="fill: #2171b5"/>
   </g>
   <g id="patch_13">
    <path d="M 285.478369 299.719297 
L 307.604936 299.719297 
L 307.604936 116.334836 
L 285.478369 116.334836 
z
" clip-path="url(#p69373dff50)" style="fill: #2171b5"/>
   </g>
   <g id="patch_14">
    <path d="M 435.794727 299.719297 
L 457.921295 299.719297 
L 457.921295 129.63003 
L 435.794727 129.63003 
z
" clip-path="url(#p69373dff50)" style="fill: #2171b5"/>
   </g>
   <g id="patch_15">
    <path d="M 159.212627 299.719297 
L 181.339195 299.719297 
L 181.339195 299.148962 
L 159.212627 299.148962 
z
" clip-path="url(#p69373dff50)" style="fill: #08306b"/>
   </g>
   <g id="patch_16">
    <path d="M 309.528986 299.719297 
L 331.655554 299.719297 
L 331.655554 177.46299 
L 309.528986 177.46299 
z
" clip-path="url(#p69373dff50)" style="fill: #08306b"/>
   </g>
   <g id="patch_17">
    <path d="M 459.845344 299.719297 
L 481.971912 299.719297 
L 481.971912 186.326453 
L 459.845344 186.326453 
z
" clip-path="url(#p69373dff50)" style="fill: #08306b"/>
   </g>
   <g id="LineCollection_1">
    <path d="M 74.073442 298.611458 
L 74.073442 298.545796 
" clip-path="url(#p69373dff50)" style="fill: none; stroke: #000000; stroke-width: 2"/>
    <path d="M 224.3898 58.847011 
L 224.3898 51.566354 
" clip-path="url(#p69373dff50)" style="fill: none; stroke: #000000; stroke-width: 2"/>
    <path d="M 374.706159 75.800511 
L 374.706159 70.066705 
" clip-path="url(#p69373dff50)" style="fill: none; stroke: #000000; stroke-width: 2"/>
   </g>
   <g id="line2d_19">
    <defs>
     <path id="meb272bb1e5" d="M 2.5 0 
L -2.5 -0 
" style="stroke: #000000"/>
    </defs>
    <g clip-path="url(#p69373dff50)">
     <use xlink:href="#meb272bb1e5" x="74.073442" y="298.611458" style="fill: #1f77b4; stroke: #000000"/>
     <use xlink:href="#meb272bb1e5" x="224.3898" y="58.847011" style="fill: #1f77b4; stroke: #000000"/>
     <use xlink:href="#meb272bb1e5" x="374.706159" y="75.800511" style="fill: #1f77b4; stroke: #000000"/>
    </g>
   </g>
   <g id="line2d_20">
    <g clip-path="url(#p69373dff50)">
     <use xlink:href="#meb272bb1e5" x="74.073442" y="298.545796" style="fill: #1f77b4; stroke: #000000"/>
     <use xlink:href="#meb272bb1e5" x="224.3898" y="51.566354" style="fill: #1f77b4; stroke: #000000"/>
     <use xlink:href="#meb272bb1e5" x="374.706159" y="70.066705" style="fill: #1f77b4; stroke: #000000"/>
    </g>
   </g>
   <g id="LineCollection_2">
    <path d="M 98.124059 298.66685 
L 98.124059 298.604471 
" clip-path="url(#p69373dff50)" style="fill: none; stroke: #000000; stroke-width: 2"/>
    <path d="M 248.440418 70.890625 
L 248.440418 63.974001 
" clip-path="url(#p69373dff50)" style="fill: none; stroke: #000000; stroke-width: 2"/>
    <path d="M 398.756776 86.996451 
L 398.756776 81.549335 
" clip-path="url(#p69373dff50)" style="fill: none; stroke: #000000; stroke-width: 2"/>
   </g>
   <g id="line2d_21">
    <g clip-path="url(#p69373dff50)">
     <use xlink:href="#meb272bb1e5" x="98.124059" y="298.66685" style="fill: #1f77b4; stroke: #000000"/>
     <use xlink:href="#meb272bb1e5" x="248.440418" y="70.890625" style="fill: #1f77b4; stroke: #000000"/>
     <use xlink:href="#meb272bb1e5" x="398.756776" y="86.996451" style="fill: #1f77b4; stroke: #000000"/>
    </g>
   </g>
   <g id="line2d_22">
    <g clip-path="url(#p69373dff50)">
     <use xlink:href="#meb272bb1e5" x="98.124059" y="298.604471" style="fill: #1f77b4; stroke: #000000"/>
     <use xlink:href="#meb272bb1e5" x="248.440418" y="63.974001" style="fill: #1f77b4; stroke: #000000"/>
     <use xlink:href="#meb272bb1e5" x="398.756776" y="81.549335" style="fill: #1f77b4; stroke: #000000"/>
    </g>
   </g>
   <g id="LineCollection_3">
    <path d="M 122.174677 298.722242 
L 122.174677 298.663146 
" clip-path="url(#p69373dff50)" style="fill: none; stroke: #000000; stroke-width: 2"/>
    <path d="M 272.491035 82.934239 
L 272.491035 76.381648 
" clip-path="url(#p69373dff50)" style="fill: none; stroke: #000000; stroke-width: 2"/>
    <path d="M 422.807394 98.19239 
L 422.807394 93.031964 
" clip-path="url(#p69373dff50)" style="fill: none; stroke: #000000; stroke-width: 2"/>
   </g>
   <g id="line2d_23">
    <g clip-path="url(#p69373dff50)">
     <use xlink:href="#meb272bb1e5" x="122.174677" y="298.722242" style="fill: #1f77b4; stroke: #000000"/>
     <use xlink:href="#meb272bb1e5" x="272.491035" y="82.934239" style="fill: #1f77b4; stroke: #000000"/>
     <use xlink:href="#meb272bb1e5" x="422.807394" y="98.19239" style="fill: #1f77b4; stroke: #000000"/>
    </g>
   </g>
   <g id="line2d_24">
    <g clip-path="url(#p69373dff50)">
     <use xlink:href="#meb272bb1e5" x="122.174677" y="298.663146" style="fill: #1f77b4; stroke: #000000"/>
     <use xlink:href="#meb272bb1e5" x="272.491035" y="76.381648" style="fill: #1f77b4; stroke: #000000"/>
     <use xlink:href="#meb272bb1e5" x="422.807394" y="93.031964" style="fill: #1f77b4; stroke: #000000"/>
    </g>
   </g>
   <g id="LineCollection_4">
    <path d="M 146.225294 298.888417 
L 146.225294 298.839171 
" clip-path="url(#p69373dff50)" style="fill: none; stroke: #000000; stroke-width: 2"/>
    <path d="M 296.541653 119.065082 
L 296.541653 113.60459 
" clip-path="url(#p69373dff50)" style="fill: none; stroke: #000000; stroke-width: 2"/>
    <path d="M 446.858011 131.780208 
L 446.858011 127.479853 
" clip-path="url(#p69373dff50)" style="fill: none; stroke: #000000; stroke-width: 2"/>
   </g>
   <g id="line2d_25">
    <g clip-path="url(#p69373dff50)">
     <use xlink:href="#meb272bb1e5" x="146.225294" y="298.888417" style="fill: #1f77b4; stroke: #000000"/>
     <use xlink:href="#meb272bb1e5" x="296.541653" y="119.065082" style="fill: #1f77b4; stroke: #000000"/>
     <use xlink:href="#meb272bb1e5" x="446.858011" y="131.780208" style="fill: #1f77b4; stroke: #000000"/>
    </g>
   </g>
   <g id="line2d_26">
    <g clip-path="url(#p69373dff50)">
     <use xlink:href="#meb272bb1e5" x="146.225294" y="298.839171" style="fill: #1f77b4; stroke: #000000"/>
     <use xlink:href="#meb272bb1e5" x="296.541653" y="113.60459" style="fill: #1f77b4; stroke: #000000"/>
     <use xlink:href="#meb272bb1e5" x="446.858011" y="127.479853" style="fill: #1f77b4; stroke: #000000"/>
    </g>
   </g>
   <g id="LineCollection_5">
    <path d="M 170.275911 299.165377 
L 170.275911 299.132547 
" clip-path="url(#p69373dff50)" style="fill: none; stroke: #000000; stroke-width: 2"/>
    <path d="M 320.59227 179.283154 
L 320.59227 175.642826 
" clip-path="url(#p69373dff50)" style="fill: none; stroke: #000000; stroke-width: 2"/>
    <path d="M 470.908628 187.759904 
L 470.908628 184.893001 
" clip-path="url(#p69373dff50)" style="fill: none; stroke: #000000; stroke-width: 2"/>
   </g>
   <g id="line2d_27">
    <g clip-path="url(#p69373dff50)">
     <use xlink:href="#meb272bb1e5" x="170.275911" y="299.165377" style="fill: #1f77b4; stroke: #000000"/>
     <use xlink:href="#meb272bb1e5" x="320.59227" y="179.283154" style="fill: #1f77b4; stroke: #000000"/>
     <use xlink:href="#meb272bb1e5" x="470.908628" y="187.759904" style="fill: #1f77b4; stroke: #000000"/>
    </g>
   </g>
   <g id="line2d_28">
    <g clip-path="url(#p69373dff50)">
     <use xlink:href="#meb272bb1e5" x="170.275911" y="299.132547" style="fill: #1f77b4; stroke: #000000"/>
     <use xlink:href="#meb272bb1e5" x="320.59227" y="175.642826" style="fill: #1f77b4; stroke: #000000"/>
     <use xlink:href="#meb272bb1e5" x="470.908628" y="184.893001" style="fill: #1f77b4; stroke: #000000"/>
    </g>
   </g>
   <g id="line2d_29">
    <path d="M 42.06207 47.849623 
L 502.92 47.849623 
" clip-path="url(#p69373dff50)" style="fill: none; stroke-dasharray: 5.18,2.24; stroke-dashoffset: 0; stroke: #333333; stroke-width: 1.4"/>
   </g>
   <g id="patch_18">
    <path d="M 42.06207 299.719297 
L 42.06207 39.158707 
" style="fill: none; stroke: #000000; stroke-width: 0.8; stroke-linejoin: miter; stroke-linecap: square"/>
   </g>
   <g id="patch_19">
    <path d="M 42.06207 299.719297 
L 502.92 299.719297 
" style="fill: none; stroke: #000000; stroke-width: 0.8; stroke-linejoin: miter; stroke-linecap: square"/>
   </g>
   <g id="text_11">
    <!-- Energy saving by PoCol policy and low-power assumption -->
    <g transform="translate(91.117973 18.035262) scale(0.126 -0.126)">
     <defs>
      <path id="DejaVuSans-45" d="M 3116 1747 
Q 3116 2381 2855 2742 
Q 2594 3103 2138 3103 
Q 1681 3103 1420 2742 
Q 1159 2381 1159 1747 
Q 1159 1113 1420 752 
Q 1681 391 2138 391 
Q 2594 391 2855 752 
Q 3116 1113 3116 1747 
z
M 1159 2969 
Q 1341 3281 1617 3432 
Q 1894 3584 2278 3584 
Q 2916 3584 3314 3078 
Q 3713 2572 3713 1747 
Q 3713 922 3314 415 
Q 2916 -91 2278 -91 
Q 1894 -91 1617 61 
Q 1341 213 1159 525 
L 1159 0 
L 581 0 
L 581 4863 
L 1159 4863 
L 1159 2969 
z
" transform="scale(0.015625)"/>
      <path id="DejaVuSans-58" d="M 544 1381 
L 544 3500 
L 1119 3500 
L 1119 1403 
Q 1119 906 1312 657 
Q 1506 409 1894 409 
Q 2359 409 2629 706 
Q 2900 1003 2900 1516 
L 2900 3500 
L 3475 3500 
L 3475 0 
L 2900 0 
L 2900 538 
Q 2691 219 2414 64 
Q 2138 -91 1772 -91 
Q 1169 -91 856 284 
Q 544 659 544 1381 
z
M 1991 3584 
L 1991 3584 
z
" transform="scale(0.015625)"/>
     </defs>
     <use xlink:href="#DejaVuSans-28"/>
     <use xlink:href="#DejaVuSans-51" transform="translate(63.1875 0)"/>
     <use xlink:href="#DejaVuSans-48" transform="translate(126.5625 0)"/>
     <use xlink:href="#DejaVuSans-55" transform="translate(188.09375 0)"/>
     <use xlink:href="#DejaVuSans-4a" transform="translate(227.453125 0)"/>
     <use xlink:href="#DejaVuSans-5c" transform="translate(290.9375 0)"/>
     <use xlink:href="#DejaVuSans-3" transform="translate(350.125 0)"/>
     <use xlink:href="#DejaVuSans-56" transform="translate(381.90625 0)"/>
     <use xlink:href="#DejaVuSans-44" transform="translate(434 0)"/>
     <use xlink:href="#DejaVuSans-59" transform="translate(495.28125 0)"/>
     <use xlink:href="#DejaVuSans-4c" transform="translate(554.46875 0)"/>
     <use xlink:href="#DejaVuSans-51" transform="translate(582.25 0)"/>
     <use xlink:href="#DejaVuSans-4a" transform="translate(645.625 0)"/>
     <use xlink:href="#DejaVuSans-3" transform="translate(709.109375 0)"/>
     <use xlink:href="#DejaVuSans-45" transform="translate(740.890625 0)"/>
     <use xlink:href="#DejaVuSans-5c" transform="translate(804.375 0)"/>
     <use xlink:href="#DejaVuSans-3" transform="translate(863.5625 0)"/>
     <use xlink:href="#DejaVuSans-33" transform="translate(895.34375 0)"/>
     <use xlink:href="#DejaVuSans-52" transform="translate(952.078125 0)"/>
     <use xlink:href="#DejaVuSans-26" transform="translate(1013.265625 0)"/>
     <use xlink:href="#DejaVuSans-52" transform="translate(1083.09375 0)"/>
     <use xlink:href="#DejaVuSans-4f" transform="translate(1144.28125 0)"/>
     <use xlink:href="#DejaVuSans-3" transform="translate(1172.0625 0)"/>
     <use xlink:href="#DejaVuSans-53" transform="translate(1203.84375 0)"/>
     <use xlink:href="#DejaVuSans-52" transform="translate(1267.328125 0)"/>
     <use xlink:href="#DejaVuSans-4f" transform="translate(1328.515625 0)"/>
     <use xlink:href="#DejaVuSans-4c" transform="translate(1356.296875 0)"/>
     <use xlink:href="#DejaVuSans-46" transform="translate(1384.078125 0)"/>
     <use xlink:href="#DejaVuSans-5c" transform="translate(1439.0625 0)"/>
     <use xlink:href="#DejaVuSans-3" transform="translate(1498.25 0)"/>
     <use xlink:href="#DejaVuSans-44" transform="translate(1530.03125 0)"/>
     <use xlink:href="#DejaVuSans-51" transform="translate(1591.3125 0)"/>
     <use xlink:href="#DejaVuSans-47" transform="translate(1654.6875 0)"/>
     <use xlink:href="#DejaVuSans-3" transform="translate(1718.171875 0)"/>
     <use xlink:href="#DejaVuSans-4f" transform="translate(1749.953125 0)"/>
     <use xlink:href="#DejaVuSans-52" transform="translate(1777.734375 0)"/>
     <use xlink:href="#DejaVuSans-5a" transform="translate(1838.921875 0)"/>
     <use xlink:href="#DejaVuSans-10" transform="translate(1920.703125 0)"/>
     <use xlink:href="#DejaVuSans-53" transform="translate(1956.78125 0)"/>
     <use xlink:href="#DejaVuSans-52" transform="translate(2020.265625 0)"/>
     <use xlink:href="#DejaVuSans-5a" transform="translate(2081.453125 0)"/>
     <use xlink:href="#DejaVuSans-48" transform="translate(2163.234375 0)"/>
     <use xlink:href="#DejaVuSans-55" transform="translate(2224.765625 0)"/>
     <use xlink:href="#DejaVuSans-3" transform="translate(2265.875 0)"/>
     <use xlink:href="#DejaVuSans-44" transform="translate(2297.65625 0)"/>
     <use xlink:href="#DejaVuSans-56" transform="translate(2358.9375 0)"/>
     <use xlink:href="#DejaVuSans-56" transform="translate(2411.03125 0)"/>
     <use xlink:href="#DejaVuSans-58" transform="translate(2463.125 0)"/>
     <use xlink:href="#DejaVuSans-50" transform="translate(2526.5 0)"/>
     <use xlink:href="#DejaVuSans-53" transform="translate(2623.90625 0)"/>
     <use xlink:href="#DejaVuSans-57" transform="translate(2687.390625 0)"/>
     <use xlink:href="#DejaVuSans-4c" transform="translate(2726.59375 0)"/>
     <use xlink:href="#DejaVuSans-52" transform="translate(2754.375 0)"/>
     <use xlink:href="#DejaVuSans-51" transform="translate(2815.5625 0)"/>
    </g>
    <!-- (α values are model assumptions, not vendor modes) -->
    <g transform="translate(103.696316 33.158707) scale(0.126 -0.126)">
     <defs>
      <path id="DejaVuSans-345" d="M 2644 1628 
L 2506 2350 
Q 2366 3091 1809 3091 
Q 1391 3091 1200 2747 
Q 959 2316 959 1747 
Q 959 1059 1194 731 
Q 1431 397 1809 397 
Q 2228 397 2453 1063 
L 2644 1628 
z
M 2966 2584 
L 3275 3500 
L 3788 3500 
L 3147 1603 
L 3272 919 
Q 3300 766 3409 638 
Q 3538 488 3638 488 
L 3913 488 
L 3913 0 
L 3569 0 
Q 3275 0 3013 263 
Q 2884 394 2831 669 
Q 2688 322 2394 50 
Q 2256 -78 1809 -78 
Q 1075 -78 719 397 
Q 353 888 353 1747 
Q 353 2666 750 3097 
Q 1191 3578 1809 3578 
Q 2781 3578 2966 2584 
z
" transform="scale(0.015625)"/>
      <path id="DejaVuSans-f" d="M 750 794 
L 1409 794 
L 1409 256 
L 897 -744 
L 494 -744 
L 750 256 
L 750 794 
z
" transform="scale(0.015625)"/>
     </defs>
     <use xlink:href="#DejaVuSans-b"/>
     <use xlink:href="#DejaVuSans-345" transform="translate(39.015625 0)"/>
     <use xlink:href="#DejaVuSans-3" transform="translate(104.9375 0)"/>
     <use xlink:href="#DejaVuSans-59" transform="translate(136.71875 0)"/>
     <use xlink:href="#DejaVuSans-44" transform="translate(195.90625 0)"/>
     <use xlink:href="#DejaVuSans-4f" transform="translate(257.1875 0)"/>
     <use xlink:href="#DejaVuSans-58" transform="translate(284.96875 0)"/>
     <use xlink:href="#DejaVuSans-48" transform="translate(348.34375 0)"/>
     <use xlink:href="#DejaVuSans-56" transform="translate(409.875 0)"/>
     <use xlink:href="#DejaVuSans-3" transform="translate(461.96875 0)"/>
     <use xlink:href="#DejaVuSans-44" transform="translate(493.75 0)"/>
     <use xlink:href="#DejaVuSans-55" transform="translate(555.03125 0)"/>
     <use xlink:href="#DejaVuSans-48" transform="translate(593.9375 0)"/>
     <use xlink:href="#DejaVuSans-3" transform="translate(655.46875 0)"/>
     <use xlink:href="#DejaVuSans-50" transform="translate(687.25 0)"/>
     <use xlink:href="#DejaVuSans-52" transform="translate(784.65625 0)"/>
     <use xlink:href="#DejaVuSans-47" transform="translate(845.84375 0)"/>
     <use xlink:href="#DejaVuSans-48" transform="translate(909.328125 0)"/>
     <use xlink:href="#DejaVuSans-4f" transform="translate(970.859375 0)"/>
     <use xlink:href="#DejaVuSans-3" transform="translate(998.640625 0)"/>
     <use xlink:href="#DejaVuSans-44" transform="translate(1030.421875 0)"/>
     <use xlink:href="#DejaVuSans-56" transform="translate(1091.703125 0)"/>
     <use xlink:href="#DejaVuSans-56" transform="translate(1143.796875 0)"/>
     <use xlink:href="#DejaVuSans-58" transform="translate(1195.890625 0)"/>
     <use xlink:href="#DejaVuSans-50" transform="translate(1259.265625 0)"/>
     <use xlink:href="#DejaVuSans-53" transform="translate(1356.671875 0)"/>
     <use xlink:href="#DejaVuSans-57" transform="translate(1420.15625 0)"/>
     <use xlink:href="#DejaVuSans-4c" transform="translate(1459.359375 0)"/>
     <use xlink:href="#DejaVuSans-52" transform="translate(1487.140625 0)"/>
     <use xlink:href="#DejaVuSans-51" transform="translate(1548.328125 0)"/>
     <use xlink:href="#DejaVuSans-56" transform="translate(1611.703125 0)"/>
     <use xlink:href="#DejaVuSans-f" transform="translate(1663.796875 0)"/>
     <use xlink:href="#DejaVuSans-3" transform="translate(1695.578125 0)"/>
     <use xlink:href="#DejaVuSans-51" transform="translate(1727.359375 0)"/>
     <use xlink:href="#DejaVuSans-52" transform="translate(1790.734375 0)"/>
     <use xlink:href="#DejaVuSans-57" transform="translate(1851.921875 0)"/>
     <use xlink:href="#DejaVuSans-3" transform="translate(1891.125 0)"/>
     <use xlink:href="#DejaVuSans-59" transform="translate(1922.90625 0)"/>
     <use xlink:href="#DejaVuSans-48" transform="translate(1982.09375 0)"/>
     <use xlink:href="#DejaVuSans-51" transform="translate(2043.625 0)"/>
     <use xlink:href="#DejaVuSans-47" transform="translate(2107 0)"/>
     <use xlink:href="#DejaVuSans-52" transform="translate(2170.484375 0)"/>
     <use xlink:href="#DejaVuSans-55" transform="translate(2231.671875 0)"/>
     <use xlink:href="#DejaVuSans-3" transform="translate(2272.78125 0)"/>
     <use xlink:href="#DejaVuSans-50" transform="translate(2304.5625 0)"/>
     <use xlink:href="#DejaVuSans-52" transform="translate(2401.96875 0)"/>
     <use xlink:href="#DejaVuSans-47" transform="translate(2463.15625 0)"/>
     <use xlink:href="#DejaVuSans-48" transform="translate(2526.640625 0)"/>
     <use xlink:href="#DejaVuSans-56" transform="translate(2588.171875 0)"/>
     <use xlink:href="#DejaVuSans-c" transform="translate(2640.265625 0)"/>
    </g>
   </g>
   <g id="legend_1">
    <g id="line2d_30">
     <path d="M 260.624844 261.550977 
L 269.124844 261.550977 
L 277.624844 261.550977 
" style="fill: none; stroke-dasharray: 5.18,2.24; stroke-dashoffset: 0; stroke: #333333; stroke-width: 1.4"/>
    </g>
    <g id="text_12">
     <!-- 50 % threshold -->
     <g transform="translate(284.424844 264.525977) scale(0.085 -0.085)">
      <use xlink:href="#DejaVuSans-18"/>
      <use xlink:href="#DejaVuSans-13" transform="translate(63.625 0)"/>
      <use xlink:href="#DejaVuSans-3" transform="translate(127.25 0)"/>
      <use xlink:href="#DejaVuSans-8" transform="translate(159.03125 0)"/>
      <use xlink:href="#DejaVuSans-3" transform="translate(254.046875 0)"/>
      <use xlink:href="#DejaVuSans-57" transform="translate(285.828125 0)"/>
      <use xlink:href="#DejaVuSans-4b" transform="translate(325.03125 0)"/>
      <use xlink:href="#DejaVuSans-55" transform="translate(388.40625 0)"/>
      <use xlink:href="#DejaVuSans-48" transform="translate(427.3125 0)"/>
      <use xlink:href="#DejaVuSans-56" transform="translate(488.84375 0)"/>
      <use xlink:href="#DejaVuSans-4b" transform="translate(540.9375 0)"/>
      <use xlink:href="#DejaVuSans-52" transform="translate(604.3125 0)"/>
      <use xlink:href="#DejaVuSans-4f" transform="translate(665.5 0)"/>
      <use xlink:href="#DejaVuSans-47" transform="translate(693.28125 0)"/>
     </g>
    </g>
    <g id="patch_20">
     <path d="M 260.624844 277.276641 
L 277.624844 277.276641 
L 277.624844 271.326641 
L 260.624844 271.326641 
z
" style="fill: #c6dbef"/>
    </g>
    <g id="text_13">
     <!-- alpha_0 (α=0.00) -->
     <g transform="translate(284.424844 277.276641) scale(0.085 -0.085)">
      <defs>
       <path id="DejaVuSans-42" d="M 3263 -1063 
L 3263 -1509 
L -63 -1509 
L -63 -1063 
L 3263 -1063 
z
" transform="scale(0.015625)"/>
       <path id="DejaVuSans-20" d="M 678 2906 
L 4684 2906 
L 4684 2381 
L 678 2381 
L 678 2906 
z
M 678 1631 
L 4684 1631 
L 4684 1100 
L 678 1100 
L 678 1631 
z
" transform="scale(0.015625)"/>
       <path id="DejaVuSans-11" d="M 684 794 
L 1344 794 
L 1344 0 
L 684 0 
L 684 794 
z
" transform="scale(0.015625)"/>
      </defs>
      <use xlink:href="#DejaVuSans-44"/>
      <use xlink:href="#DejaVuSans-4f" transform="translate(61.28125 0)"/>
      <use xlink:href="#DejaVuSans-53" transform="translate(89.0625 0)"/>
      <use xlink:href="#DejaVuSans-4b" transform="translate(152.546875 0)"/>
      <use xlink:href="#DejaVuSans-44" transform="translate(215.921875 0)"/>
      <use xlink:href="#DejaVuSans-42" transform="translate(277.203125 0)"/>
      <use xlink:href="#DejaVuSans-13" transform="translate(327.203125 0)"/>
      <use xlink:href="#DejaVuSans-3" transform="translate(390.828125 0)"/>
      <use xlink:href="#DejaVuSans-b" transform="translate(422.609375 0)"/>
      <use xlink:href="#DejaVuSans-345" transform="translate(461.625 0)"/>
      <use xlink:href="#DejaVuSans-20" transform="translate(527.546875 0)"/>
      <use xlink:href="#DejaVuSans-13" transform="translate(611.34375 0)"/>
      <use xlink:href="#DejaVuSans-11" transform="translate(674.96875 0)"/>
      <use xlink:href="#DejaVuSans-13" transform="translate(706.75 0)"/>
      <use xlink:href="#DejaVuSans-13" transform="translate(770.375 0)"/>
      <use xlink:href="#DejaVuSans-c" transform="translate(834 0)"/>
     </g>
    </g>
    <g id="patch_21">
     <path d="M 260.624844 290.027305 
L 277.624844 290.027305 
L 277.624844 284.077305 
L 260.624844 284.077305 
z
" style="fill: #9ecae1"/>
    </g>
    <g id="text_14">
     <!-- alpha_005 (α=0.05) -->
     <g transform="translate(284.424844 290.027305) scale(0.085 -0.085)">
      <use xlink:href="#DejaVuSans-44"/>
      <use xlink:href="#DejaVuSans-4f" transform="translate(61.28125 0)"/>
      <use xlink:href="#DejaVuSans-53" transform="translate(89.0625 0)"/>
      <use xlink:href="#DejaVuSans-4b" transform="translate(152.546875 0)"/>
      <use xlink:href="#DejaVuSans-44" transform="translate(215.921875 0)"/>
      <use xlink:href="#DejaVuSans-42" transform="translate(277.203125 0)"/>
      <use xlink:href="#DejaVuSans-13" transform="translate(327.203125 0)"/>
      <use xlink:href="#DejaVuSans-13" transform="translate(390.828125 0)"/>
      <use xlink:href="#DejaVuSans-18" transform="translate(454.453125 0)"/>
      <use xlink:href="#DejaVuSans-3" transform="translate(518.078125 0)"/>
      <use xlink:href="#DejaVuSans-b" transform="translate(549.859375 0)"/>
      <use xlink:href="#DejaVuSans-345" transform="translate(588.875 0)"/>
      <use xlink:href="#DejaVuSans-20" transform="translate(654.796875 0)"/>
      <use xlink:href="#DejaVuSans-13" transform="translate(738.59375 0)"/>
      <use xlink:href="#DejaVuSans-11" transform="translate(802.21875 0)"/>
      <use xlink:href="#DejaVuSans-13" transform="translate(834 0)"/>
      <use xlink:href="#DejaVuSans-18" transform="translate(897.625 0)"/>
      <use xlink:href="#DejaVuSans-c" transform="translate(961.25 0)"/>
     </g>
    </g>
    <g id="patch_22">
     <path d="M 386.447422 264.525977 
L 403.447422 264.525977 
L 403.447422 258.575977 
L 386.447422 258.575977 
z
" style="fill: #4292c6"/>
    </g>
    <g id="text_15">
     <!-- alpha_010 (α=0.10) -->
     <g transform="translate(410.247422 264.525977) scale(0.085 -0.085)">
      <use xlink:href="#DejaVuSans-44"/>
      <use xlink:href="#DejaVuSans-4f" transform="translate(61.28125 0)"/>
      <use xlink:href="#DejaVuSans-53" transform="translate(89.0625 0)"/>
      <use xlink:href="#DejaVuSans-4b" transform="translate(152.546875 0)"/>
      <use xlink:href="#DejaVuSans-44" transform="translate(215.921875 0)"/>
      <use xlink:href="#DejaVuSans-42" transform="translate(277.203125 0)"/>
      <use xlink:href="#DejaVuSans-13" transform="translate(327.203125 0)"/>
      <use xlink:href="#DejaVuSans-14" transform="translate(390.828125 0)"/>
      <use xlink:href="#DejaVuSans-13" transform="translate(454.453125 0)"/>
      <use xlink:href="#DejaVuSans-3" transform="translate(518.078125 0)"/>
      <use xlink:href="#DejaVuSans-b" transform="translate(549.859375 0)"/>
      <use xlink:href="#DejaVuSans-345" transform="translate(588.875 0)"/>
      <use xlink:href="#DejaVuSans-20" transform="translate(654.796875 0)"/>
      <use xlink:href="#DejaVuSans-13" transform="translate(738.59375 0)"/>
      <use xlink:href="#DejaVuSans-11" transform="translate(802.21875 0)"/>
      <use xlink:href="#DejaVuSans-14" transform="translate(834 0)"/>
      <use xlink:href="#DejaVuSans-13" transform="translate(897.625 0)"/>
      <use xlink:href="#DejaVuSans-c" transform="translate(961.25 0)"/>
     </g>
    </g>
    <g id="patch_23">
     <path d="M 386.447422 277.276641 
L 403.447422 277.276641 
L 403.447422 271.326641 
L 386.447422 271.326641 
z
" style="fill: #2171b5"/>
    </g>
    <g id="text_16">
     <!-- alpha_025 (α=0.25) -->
     <g transform="translate(410.247422 277.276641) scale(0.085 -0.085)">
      <use xlink:href="#DejaVuSans-44"/>
      <use xlink:href="#DejaVuSans-4f" transform="translate(61.28125 0)"/>
      <use xlink:href="#DejaVuSans-53" transform="translate(89.0625 0)"/>
      <use xlink:href="#DejaVuSans-4b" transform="translate(152.546875 0)"/>
      <use xlink:href="#DejaVuSans-44" transform="translate(215.921875 0)"/>
      <use xlink:href="#DejaVuSans-42" transform="translate(277.203125 0)"/>
      <use xlink:href="#DejaVuSans-13" transform="translate(327.203125 0)"/>
      <use xlink:href="#DejaVuSans-15" transform="translate(390.828125 0)"/>
      <use xlink:href="#DejaVuSans-18" transform="translate(454.453125 0)"/>
      <use xlink:href="#DejaVuSans-3" transform="translate(518.078125 0)"/>
      <use xlink:href="#DejaVuSans-b" transform="translate(549.859375 0)"/>
      <use xlink:href="#DejaVuSans-345" transform="translate(588.875 0)"/>
      <use xlink:href="#DejaVuSans-20" transform="translate(654.796875 0)"/>
      <use xlink:href="#DejaVuSans-13" transform="translate(738.59375 0)"/>
      <use xlink:href="#DejaVuSans-11" transform="translate(802.21875 0)"/>
      <use xlink:href="#DejaVuSans-15" transform="translate(834 0)"/>
      <use xlink:href="#DejaVuSans-18" transform="translate(897.625 0)"/>
      <use xlink:href="#DejaVuSans-c" transform="translate(961.25 0)"/>
     </g>
    </g>
    <g id="patch_24">
     <path d="M 386.447422 290.027305 
L 403.447422 290.027305 
L 403.447422 284.077305 
L 386.447422 284.077305 
z
" style="fill: #08306b"/>
    </g>
    <g id="text_17">
     <!-- alpha_050 (α=0.50) -->
     <g transform="translate(410.247422 290.027305) scale(0.085 -0.085)">
      <use xlink:href="#DejaVuSans-44"/>
      <use xlink:href="#DejaVuSans-4f" transform="translate(61.28125 0)"/>
      <use xlink:href="#DejaVuSans-53" transform="translate(89.0625 0)"/>
      <use xlink:href="#DejaVuSans-4b" transform="translate(152.546875 0)"/>
      <use xlink:href="#DejaVuSans-44" transform="translate(215.921875 0)"/>
      <use xlink:href="#DejaVuSans-42" transform="translate(277.203125 0)"/>
      <use xlink:href="#DejaVuSans-13" transform="translate(327.203125 0)"/>
      <use xlink:href="#DejaVuSans-18" transform="translate(390.828125 0)"/>
      <use xlink:href="#DejaVuSans-13" transform="translate(454.453125 0)"/>
      <use xlink:href="#DejaVuSans-3" transform="translate(518.078125 0)"/>
      <use xlink:href="#DejaVuSans-b" transform="translate(549.859375 0)"/>
      <use xlink:href="#DejaVuSans-345" transform="translate(588.875 0)"/>
      <use xlink:href="#DejaVuSans-20" transform="translate(654.796875 0)"/>
      <use xlink:href="#DejaVuSans-13" transform="translate(738.59375 0)"/>
      <use xlink:href="#DejaVuSans-11" transform="translate(802.21875 0)"/>
      <use xlink:href="#DejaVuSans-18" transform="translate(834 0)"/>
      <use xlink:href="#DejaVuSans-13" transform="translate(897.625 0)"/>
      <use xlink:href="#DejaVuSans-c" transform="translate(961.25 0)"/>
     </g>
    </g>
   </g>
  </g>
 </g>
 <defs>
  <clipPath id="p69373dff50">
   <rect x="42.06207" y="39.158707" width="460.85793" height="260.56059"/>
  </clipPath>
 </defs>
</svg>
