<?xml version="1.0" encoding="utf-8" standalone="no"?>
<!DOCTYPE svg PUBLIC "-//W3C//DTD SVG 1.1//EN"
  "http://www.w3.org/Graphics/SVG/1.1/DTD/svg11.dtd">
<svg xmlns:xlink="http://www.w3.org/1999/xlink" width="472.988281pt" height="264.248pt" viewBox="0 0 472.988281 264.248" xmlns="http://www.w3.org/2000/svg" version="1.1">
 <metadata>
  <rdf:RDF xmlns:dc="http://purl.org/dc/elements/1.1/" xmlns:cc="http://creativecommons.org/ns#" xmlns:rdf="http://www.w3.org/1999/02/22-rdf-syntax-ns#">
   <cc:Work>
    <dc:type rdf:resource="http://purl.org/dc/dcmitype/StillImage"/>
    <dc:format>image/svg+xml</dc:format>
    <dc:creator>
     <cc:Agent>
      <dc:title>Matplotlib v3.11.1, https://matplotlib.org/</dc:title>
     </cc:Agent>
    </dc:creator>
   </cc:Work>
  </rdf:RDF>
 </metadata>
 <defs>
  <style type="text/css">*{stroke-linejoin: round; stroke-linecap: butt}</style>
 </defs>
 <g id="figure_1">
  <g id="patch_1">
   <path d="M 0 264.248 
L 472.988281 264.248 
L 472.988281 0 
L 0 0 
z
" style="fill: #ffffff"/>
  </g>
  <g id="axes_1">
   <g id="patch_2">
    <path d="M 47.288281 240.048 
L 465.788281 240.048 
L 465.788281 7.2 
L 47.288281 7.2 
z
" style="fill: #ffffff"/>
   </g>
   <g id="matplotlib.axis_1">
    <g id="xtick_1">
     <g id="line2d_1">
      <defs>
       <path id="mc9a79df762" d="M 0 0 
L 0 3.5 
" style="stroke: #000000; stroke-width: 0.8"/>
      </defs>
      <g>
       <use xlink:href="#mc9a79df762" x="80.808699" y="240.048" style="stroke: #000000; stroke-width: 0.8"/>
      </g>
     </g>
     <g id="text_1">
      <!-- W00 -->
      <g transform="translate(69.502449 254.645656) scale(0.1 -0.1)">
       <defs>
        <path id="DejaVuSans-3a" d="M 213 4666 
L 850 4666 
L 1831 722 
L 2809 4666 
L 3519 4666 
L 4500 722 
L 5478 4666 
L 6119 4666 
L 4947 0 
L 4153 0 
L 3169 4050 
L 2175 0 
L 1381 0 
L 213 4666 
z
" transform="scale(0.015625)"/>
        <path id="DejaVuSans-13" d="M 2034 4250 
Q 1547 4250 1301 3770 
Q 1056 3291 1056 2328 
Q 1056 1369 1301 889 
Q 1547 409 2034 409 
Q 2525 409 2770 889 
Q 3016 1369 3016 2328 
Q 3016 3291 2770 3770 
Q 2525 4250 2034 4250 
z
M 2034 4750 
Q 2819 4750 3233 4129 
Q 3647 3509 3647 2328 
Q 3647 1150 3233 529 
Q 2819 -91 2034 -91 
Q 1250 -91 836 529 
Q 422 1150 422 2328 
Q 422 3509 836 4129 
Q 1250 4750 2034 4750 
z
" transform="scale(0.015625)"/>
       </defs>
       <use xlink:href="#DejaVuSans-3a"/>
       <use xlink:href="#DejaVuSans-13" transform="translate(98.875 0)"/>
       <use xlink:href="#DejaVuSans-13" transform="translate(162.5 0)"/>
      </g>
     </g>
    </g>
    <g id="xtick_2">
     <g id="line2d_2">
      <g>
       <use xlink:href="#mc9a79df762" x="168.67349" y="240.048" style="stroke: #000000; stroke-width: 0.8"/>
      </g>
     </g>
     <g id="text_2">
      <!-- W01 -->
      <g transform="translate(157.36724 254.645656) scale(0.1 -0.1)">
       <defs>
        <path id="DejaVuSans-14" d="M 794 531 
L 1825 531 
L 1825 4091 
L 703 3866 
L 703 4441 
L 1819 4666 
L 2450 4666 
L 2450 531 
L 3481 531 
L 3481 0 
L 794 0 
L 794 531 
z
" transform="scale(0.015625)"/>
       </defs>
       <use xlink:href="#DejaVuSans-3a"/>
       <use xlink:href="#DejaVuSans-13" transform="translate(98.875 0)"/>
       <use xlink:href="#DejaVuSans-14" transform="translate(162.5 0)"/>
      </g>
     </g>
    </g>
    <g id="xtick_3">
     <g id="line2d_3">
      <g>
       <use xlink:href="#mc9a79df762" x="256.538281" y="240.048" style="stroke: #000000; stroke-width: 0.8"/>
      </g>
     </g>
     <g id="text_3">
      <!-- P00 -->
      <g transform="translate(247.160938 254.645656) scale(0.1 -0.1)">
       <defs>
        <path id="DejaVuSans-33" d="M 1259 4147 
L 1259 2394 
L 2053 2394 
Q 2494 2394 2734 2622 
Q 2975 2850 2975 3272 
Q 2975 3691 2734 3919 
Q 2494 4147 2053 4147 
L 1259 4147 
z
M 628 4666 
L 2053 4666 
Q 2838 4666 3239 4311 
Q 3641 3956 3641 3272 
Q 3641 2581 3239 2228 
Q 2838 1875 2053 1875 
L 1259 1875 
L 1259 0 
L 628 0 
L 628 4666 
z
" transform="scale(0.015625)"/>
       </defs>
       <use xlink:href="#DejaVuSans-33"/>
       <use xlink:href="#DejaVuSans-13" transform="translate(60.296875 0)"/>
       <use xlink:href="#DejaVuSans-13" transform="translate(123.921875 0)"/>
      </g>
     </g>
    </g>
    <g id="xtick_4">
     <g id="line2d_4">
      <g>
       <use xlink:href="#mc9a79df762" x="344.403072" y="240.048" style="stroke: #000000; stroke-width: 0.8"/>
      </g>
     </g>
     <g id="text_4">
      <!-- P01 -->
      <g transform="translate(335.025729 254.645656) scale(0.1 -0.1)">
       <use xlink:href="#DejaVuSans-33"/>
       <use xlink:href="#DejaVuSans-13" transform="translate(60.296875 0)"/>
       <use xlink:href="#DejaVuSans-14" transform="translate(123.921875 0)"/>
      </g>
     </g>
    </g>
    <g id="xtick_5">
     <g id="line2d_5">
      <g>
       <use xlink:href="#mc9a79df762" x="432.267863" y="240.048" style="stroke: #000000; stroke-width: 0.8"/>
      </g>
     </g>
     <g id="text_5">
      <!-- P02 -->
      <g transform="translate(422.89052 254.645656) scale(0.1 -0.1)">
       <defs>
        <path id="DejaVuSans-15" d="M 1228 531 
L 3431 531 
L 3431 0 
L 469 0 
L 469 531 
Q 828 903 1448 1529 
Q 2069 2156 2228 2338 
Q 2531 2678 2651 2914 
Q 2772 3150 2772 3378 
Q 2772 3750 2511 3984 
Q 2250 4219 1831 4219 
Q 1534 4219 1204 4116 
Q 875 4013 500 3803 
L 500 4441 
Q 881 4594 1212 4672 
Q 1544 4750 1819 4750 
Q 2544 4750 2975 4387 
Q 3406 4025 3406 3419 
Q 3406 3131 3298 2873 
Q 3191 2616 2906 2266 
Q 2828 2175 2409 1742 
Q 1991 1309 1228 531 
z
" transform="scale(0.015625)"/>
       </defs>
       <use xlink:href="#DejaVuSans-33"/>
       <use xlink:href="#DejaVuSans-13" transform="translate(60.296875 0)"/>
       <use xlink:href="#DejaVuSans-15" transform="translate(123.921875 0)"/>
      </g>
     </g>
    </g>
   </g>
   <g id="matplotlib.axis_2">
    <g id="ytick_1">
     <g id="line2d_6">
      <path d="M 47.288281 240.048 
L 465.788281 240.048 
" clip-path="url(#pd5da1afac7)" style="fill: none; stroke: #b0b0b0; stroke-opacity: 0.3; stroke-width: 0.8; stroke-linecap: square"/>
     </g>
     <g id="line2d_7">
      <defs>
       <path id="m7dfcc2a000" d="M 0 0 
L -3.5 0 
" style="stroke: #000000; stroke-width: 0.8"/>
      </defs>
      <g>
       <use xlink:href="#m7dfcc2a000" x="47.288281" y="240.048" style="stroke: #000000; stroke-width: 0.8"/>
      </g>
     </g>
     <g id="text_6">
      <!-- 0 -->
      <g transform="translate(33.925781 243.846828) scale(0.1 -0.1)">
       <use xlink:href="#DejaVuSans-13"/>
      </g>
     </g>
    </g>
    <g id="ytick_2">
     <g id="line2d_8">
      <path d="M 47.288281 202.211146 
L 465.788281 202.211146 
" clip-path="url(#pd5da1afac7)" style="fill: none; stroke: #b0b0b0; stroke-opacity: 0.3; stroke-width: 0.8; stroke-linecap: square"/>
     </g>
     <g id="line2d_9">
      <g>
       <use xlink:href="#m7dfcc2a000" x="47.288281" y="202.211146" style="stroke: #000000; stroke-width: 0.8"/>
      </g>
     </g>
     <g id="text_7">
      <!-- 50 -->
      <g transform="translate(27.563281 206.009974) scale(0.1 -0.1)">
       <defs>
        <path id="DejaVuSans-18" d="M 691 4666 
L 3169 4666 
L 3169 4134 
L 1269 4134 
L 1269 2991 
Q 1406 3038 1543 3061 
Q 1681 3084 1819 3084 
Q 2600 3084 3056 2656 
Q 3513 2228 3513 1497 
Q 3513 744 3044 326 
Q 2575 -91 1722 -91 
Q 1428 -91 1123 -41 
Q 819 9 494 109 
L 494 744 
Q 775 591 1075 516 
Q 1375 441 1709 441 
Q 2250 441 2565 725 
Q 2881 1009 2881 1497 
Q 2881 1984 2565 2268 
Q 2250 2553 1709 2553 
Q 1456 2553 1204 2497 
Q 953 2441 691 2322 
L 691 4666 
z
" transform="scale(0.015625)"/>
       </defs>
       <use xlink:href="#DejaVuSans-18"/>
       <use xlink:href="#DejaVuSans-13" transform="translate(63.625 0)"/>
      </g>
     </g>
    </g>
    <g id="ytick_3">
     <g id="line2d_10">
      <path d="M 47.288281 164.374292 
L 465.788281 164.374292 
" clip-path="url(#pd5da1afac7)" style="fill: none; stroke: #b0b0b0; stroke-opacity: 0.3; stroke-width: 0.8; stroke-linecap: square"/>
     </g>
     <g id="line2d_11">
      <g>
       <use xlink:href="#m7dfcc2a000" x="47.288281" y="164.374292" style="stroke: #000000; stroke-width: 0.8"/>
      </g>
     </g>
     <g id="text_8">
      <!-- 100 -->
      <g transform="translate(21.200781 168.17312) scale(0.1 -0.1)">
       <use xlink:href="#DejaVuSans-14"/>
       <use xlink:href="#DejaVuSans-13" transform="translate(63.625 0)"/>
       <use xlink:href="#DejaVuSans-13" transform="translate(127.25 0)"/>
      </g>
     </g>
    </g>
    <g id="ytick_4">
     <g id="line2d_12">
      <path d="M 47.288281 126.537438 
L 465.788281 126.537438 
" clip-path="url(#pd5da1afac7)" style="fill: none; stroke: #b0b0b0; stroke-opacity: 0.3; stroke-width: 0.8; stroke-linecap: square"/>
     </g>
     <g id="line2d_13">
      <g>
       <use xlink:href="#m7dfcc2a000" x="47.288281" y="126.537438" style="stroke: #000000; stroke-width: 0.8"/>
      </g>
     </g>
     <g id="text_9">
      <!-- 150 -->
      <g transform="translate(21.200781 130.336266) scale(0.1 -0.1)">
       <use xlink:href="#DejaVuSans-14"/>
       <use xlink:href="#DejaVuSans-18" transform="translate(63.625 0)"/>
       <use xlink:href="#DejaVuSans-13" transform="translate(127.25 0)"/>
      </g>
     </g>
    </g>
    <g id="ytick_5">
     <g id="line2d_14">
      <path d="M 47.288281 88.700584 
L 465.788281 88.700584 
" clip-path="url(#pd5da1afac7)" style="fill: none; stroke: #b0b0b0; stroke-opacity: 0.3; stroke-width: 0.8; stroke-linecap: square"/>
     </g>
     <g id="line2d_15">
      <g>
       <use xlink:href="#m7dfcc2a000" x="47.288281" y="88.700584" style="stroke: #000000; stroke-width: 0.8"/>
      </g>
     </g>
     <g id="text_10">
      <!-- 200 -->
      <g transform="translate(21.200781 92.499412) scale(0.1 -0.1)">
       <use xlink:href="#DejaVuSans-15"/>
       <use xlink:href="#DejaVuSans-13" transform="translate(63.625 0)"/>
       <use xlink:href="#DejaVuSans-13" transform="translate(127.25 0)"/>
      </g>
     </g>
    </g>
    <g id="ytick_6">
     <g id="line2d_16">
      <path d="M 47.288281 50.86373 
L 465.788281 50.86373 
" clip-path="url(#pd5da1afac7)" style="fill: none; stroke: #b0b0b0; stroke-opacity: 0.3; stroke-width: 0.8; stroke-linecap: square"/>
     </g>
     <g id="line2d_17">
      <g>
       <use xlink:href="#m7dfcc2a000" x="47.288281" y="50.86373" style="stroke: #000000; stroke-width: 0.8"/>
      </g>
     </g>
     <g id="text_11">
      <!-- 250 -->
      <g transform="translate(21.200781 54.662558) scale(0.1 -0.1)">
       <use xlink:href="#DejaVuSans-15"/>
       <use xlink:href="#DejaVuSans-18" transform="translate(63.625 0)"/>
       <use xlink:href="#DejaVuSans-13" transform="translate(127.25 0)"/>
      </g>
     </g>
    </g>
    <g id="ytick_7">
     <g id="line2d_18">
      <path d="M 47.288281 13.026876 
L 465.788281 13.026876 
" clip-path="url(#pd5da1afac7)" style="fill: none; stroke: #b0b0b0; stroke-opacity: 0.3; stroke-width: 0.8; stroke-linecap: square"/>
     </g>
     <g id="line2d_19">
      <g>
       <use xlink:href="#m7dfcc2a000" x="47.288281" y="13.026876" style="stroke: #000000; stroke-width: 0.8"/>
      </g>
     </g>
     <g id="text_12">
      <!-- 300 -->
      <g transform="translate(21.200781 16.825704) scale(0.1 -0.1)">
       <defs>
        <path id="DejaVuSans-16" d="M 2597 2516 
Q 3050 2419 3304 2112 
Q 3559 1806 3559 1356 
Q 3559 666 3084 287 
Q 2609 -91 1734 -91 
Q 1441 -91 1130 -33 
Q 819 25 488 141 
L 488 750 
Q 750 597 1062 519 
Q 1375 441 1716 441 
Q 2309 441 2620 675 
Q 2931 909 2931 1356 
Q 2931 1769 2642 2001 
Q 2353 2234 1838 2234 
L 1294 2234 
L 1294 2753 
L 1863 2753 
Q 2328 2753 2575 2939 
Q 2822 3125 2822 3475 
Q 2822 3834 2567 4026 
Q 2313 4219 1838 4219 
Q 1578 4219 1281 4162 
Q 984 4106 628 3988 
L 628 4550 
Q 988 4650 1302 4700 
Q 1616 4750 1894 4750 
Q 2613 4750 3031 4423 
Q 3450 4097 3450 3541 
Q 3450 3153 3228 2886 
Q 3006 2619 2597 2516 
z
" transform="scale(0.015625)"/>
       </defs>
       <use xlink:href="#DejaVuSans-16"/>
       <use xlink:href="#DejaVuSans-13" transform="translate(63.625 0)"/>
       <use xlink:href="#DejaVuSans-13" transform="translate(127.25 0)"/>
      </g>
     </g>
    </g>
    <g id="text_13">
     <!-- accepted blocks per run -->
     <g transform="translate(14.798438 183.9865) rotate(-90) scale(0.1 -0.1)">
      <defs>
       <path id="DejaVuSans-44" d="M 2194 1759 
Q 1497 1759 1228 1600 
Q 959 1441 959 1056 
Q 959 750 1161 570 
Q 1363 391 1709 391 
Q 2188 391 2477 730 
Q 2766 1069 2766 1631 
L 2766 1759 
L 2194 1759 
z
M 3341 1997 
L 3341 0 
L 2766 0 
L 2766 531 
Q 2569 213 2275 61 
Q 1981 -91 1556 -91 
Q 1019 -91 701 211 
Q 384 513 384 1019 
Q 384 1609 779 1909 
Q 1175 2209 1959 2209 
L 2766 2209 
L 2766 2266 
Q 2766 2663 2505 2880 
Q 2244 3097 1772 3097 
Q 1472 3097 1187 3025 
Q 903 2953 641 2809 
L 641 3341 
Q 956 3463 1253 3523 
Q 1550 3584 1831 3584 
Q 2591 3584 2966 3190 
Q 3341 2797 3341 1997 
z
" transform="scale(0.015625)"/>
       <path id="DejaVuSans-46" d="M 3122 3366 
L 3122 2828 
Q 2878 2963 2633 3030 
Q 2388 3097 2138 3097 
Q 1578 3097 1268 2742 
Q 959 2388 959 1747 
Q 959 1106 1268 751 
Q 1578 397 2138 397 
Q 2388 397 2633 464 
Q 2878 531 3122 666 
L 3122 134 
Q 2881 22 2623 -34 
Q 2366 -91 2075 -91 
Q 1284 -91 818 406 
Q 353 903 353 1747 
Q 353 2603 823 3093 
Q 1294 3584 2113 3584 
Q 2378 3584 2631 3529 
Q 2884 3475 3122 3366 
z
" transform="scale(0.015625)"/>
       <path id="DejaVuSans-48" d="M 3597 1894 
L 3597 1613 
L 953 1613 
Q 991 1019 1311 708 
Q 1631 397 2203 397 
Q 2534 397 2845 478 
Q 3156 559 3463 722 
L 3463 178 
Q 3153 47 2828 -22 
Q 2503 -91 2169 -91 
Q 1331 -91 842 396 
Q 353 884 353 1716 
Q 353 2575 817 3079 
Q 1281 3584 2069 3584 
Q 2775 3584 3186 3129 
Q 3597 2675 3597 1894 
z
M 3022 2063 
Q 3016 2534 2758 2815 
Q 2500 3097 2075 3097 
Q 1594 3097 1305 2825 
Q 1016 2553 972 2059 
L 3022 2063 
z
" transform="scale(0.015625)"/>
       <path id="DejaVuSans-53" d="M 1159 525 
L 1159 -1331 
L 581 -1331 
L 581 3500 
L 1159 3500 
L 1159 2969 
Q 1341 3281 1617 3432 
Q 1894 3584 2278 3584 
Q 2916 3584 3314 3078 
Q 3713 2572 3713 1747 
Q 3713 922 3314 415 
Q 2916 -91 2278 -91 
Q 1894 -91 1617 61 
Q 1341 213 1159 525 
z
M 3116 1747 
Q 3116 2381 2855 2742 
Q 2594 3103 2138 3103 
Q 1681 3103 1420 2742 
Q 1159 2381 1159 1747 
Q 1159 1113 1420 752 
Q 1681 391 2138 391 
Q 2594 391 2855 752 
Q 3116 1113 3116 1747 
z
" transform="scale(0.015625)"/>
       <path id="DejaVuSans-57" d="M 1172 4494 
L 1172 3500 
L 2356 3500 
L 2356 3053 
L 1172 3053 
L 1172 1153 
Q 1172 725 1289 603 
Q 1406 481 1766 481 
L 2356 481 
L 2356 0 
L 1766 0 
Q 1100 0 847 248 
Q 594 497 594 1153 
L 594 3053 
L 172 3053 
L 172 3500 
L 594 3500 
L 594 4494 
L 1172 4494 
z
" transform="scale(0.015625)"/>
       <path id="DejaVuSans-47" d="M 2906 2969 
L 2906 4863 
L 3481 4863 
L 3481 0 
L 2906 0 
L 2906 525 
Q 2725 213 2448 61 
Q 2172 -91 1784 -91 
Q 1150 -91 751 415 
Q 353 922 353 1747 
Q 353 2572 751 3078 
Q 1150 3584 1784 3584 
Q 2172 3584 2448 3432 
Q 2725 3281 2906 2969 
z
M 947 1747 
Q 947 1113 1208 752 
Q 1469 391 1925 391 
Q 2381 391 2643 752 
Q 2906 1113 2906 1747 
Q 2906 2381 2643 2742 
Q 2381 3103 1925 3103 
Q 1469 3103 1208 2742 
Q 947 2381 947 1747 
z
" transform="scale(0.015625)"/>
       <path id="DejaVuSans-3" transform="scale(0.015625)"/>
       <path id="DejaVuSans-45" d="M 3116 1747 
Q 3116 2381 2855 2742 
Q 2594 3103 2138 3103 
Q 1681 3103 1420 2742 
Q 1159 2381 1159 1747 
Q 1159 1113 1420 752 
Q 1681 391 2138 391 
Q 2594 391 2855 752 
Q 3116 1113 3116 1747 
z
M 1159 2969 
Q 1341 3281 1617 3432 
Q 1894 3584 2278 3584 
Q 2916 3584 3314 3078 
Q 3713 2572 3713 1747 
Q 3713 922 3314 415 
Q 2916 -91 2278 -91 
Q 1894 -91 1617 61 
Q 1341 213 1159 525 
L 1159 0 
L 581 0 
L 581 4863 
L 1159 4863 
L 1159 2969 
z
" transform="scale(0.015625)"/>
       <path id="DejaVuSans-4f" d="M 603 4863 
L 1178 4863 
L 1178 0 
L 603 0 
L 603 4863 
z
" transform="scale(0.015625)"/>
       <path id="DejaVuSans-52" d="M 1959 3097 
Q 1497 3097 1228 2736 
Q 959 2375 959 1747 
Q 959 1119 1226 758 
Q 1494 397 1959 397 
Q 2419 397 2687 759 
Q 2956 1122 2956 1747 
Q 2956 2369 2687 2733 
Q 2419 3097 1959 3097 
z
M 1959 3584 
Q 2709 3584 3137 3096 
Q 3566 2609 3566 1747 
Q 3566 888 3137 398 
Q 2709 -91 1959 -91 
Q 1206 -91 779 398 
Q 353 888 353 1747 
Q 353 2609 779 3096 
Q 1206 3584 1959 3584 
z
" transform="scale(0.015625)"/>
       <path id="DejaVuSans-4e" d="M 581 4863 
L 1159 4863 
L 1159 1991 
L 2875 3500 
L 3609 3500 
L 1753 1863 
L 3688 0 
L 2938 0 
L 1159 1709 
L 1159 0 
L 581 0 
L 581 4863 
z
" transform="scale(0.015625)"/>
       <path id="DejaVuSans-56" d="M 2834 3397 
L 2834 2853 
Q 2591 2978 2328 3040 
Q 2066 3103 1784 3103 
Q 1356 3103 1142 2972 
Q 928 2841 928 2578 
Q 928 2378 1081 2264 
Q 1234 2150 1697 2047 
L 1894 2003 
Q 2506 1872 2764 1633 
Q 3022 1394 3022 966 
Q 3022 478 2636 193 
Q 2250 -91 1575 -91 
Q 1294 -91 989 -36 
Q 684 19 347 128 
L 347 722 
Q 666 556 975 473 
Q 1284 391 1588 391 
Q 1994 391 2212 530 
Q 2431 669 2431 922 
Q 2431 1156 2273 1281 
Q 2116 1406 1581 1522 
L 1381 1569 
Q 847 1681 609 1914 
Q 372 2147 372 2553 
Q 372 3047 722 3315 
Q 1072 3584 1716 3584 
Q 2034 3584 2315 3537 
Q 2597 3491 2834 3397 
z
" transform="scale(0.015625)"/>
       <path id="DejaVuSans-55" d="M 2631 2963 
Q 2534 3019 2420 3045 
Q 2306 3072 2169 3072 
Q 1681 3072 1420 2755 
Q 1159 2438 1159 1844 
L 1159 0 
L 581 0 
L 581 3500 
L 1159 3500 
L 1159 2956 
Q 1341 3275 1631 3429 
Q 1922 3584 2338 3584 
Q 2397 3584 2469 3576 
Q 2541 3569 2628 3553 
L 2631 2963 
z
" transform="scale(0.015625)"/>
       <path id="DejaVuSans-58" d="M 544 1381 
L 544 3500 
L 1119 3500 
L 1119 1403 
Q 1119 906 1312 657 
Q 1506 409 1894 409 
Q 2359 409 2629 706 
Q 2900 1003 2900 1516 
L 2900 3500 
L 3475 3500 
L 3475 0 
L 2900 0 
L 2900 538 
Q 2691 219 2414 64 
Q 2138 -91 1772 -91 
Q 1169 -91 856 284 
Q 544 659 544 1381 
z
M 1991 3584 
L 1991 3584 
z
" transform="scale(0.015625)"/>
       <path id="DejaVuSans-51" d="M 3513 2113 
L 3513 0 
L 2938 0 
L 2938 2094 
Q 2938 2591 2744 2837 
Q 2550 3084 2163 3084 
Q 1697 3084 1428 2787 
Q 1159 2491 1159 1978 
L 1159 0 
L 581 0 
L 581 3500 
L 1159 3500 
L 1159 2956 
Q 1366 3272 1645 3428 
Q 1925 3584 2291 3584 
Q 2894 3584 3203 3211 
Q 3513 2838 3513 2113 
z
" transform="scale(0.015625)"/>
      </defs>
      <use xlink:href="#DejaVuSans-44"/>
      <use xlink:href="#DejaVuSans-46" transform="translate(61.28125 0)"/>
      <use xlink:href="#DejaVuSans-46" transform="translate(116.265625 0)"/>
      <use xlink:href="#DejaVuSans-48" transform="translate(171.25 0)"/>
      <use xlink:href="#DejaVuSans-53" transform="translate(232.78125 0)"/>
      <use xlink:href="#DejaVuSans-57" transform="translate(296.265625 0)"/>
      <use xlink:href="#DejaVuSans-48" transform="translate(335.46875 0)"/>
      <use xlink:href="#DejaVuSans-47" transform="translate(397 0)"/>
      <use xlink:href="#DejaVuSans-3" transform="translate(460.484375 0)"/>
      <use xlink:href="#DejaVuSans-45" transform="translate(492.265625 0)"/>
      <use xlink:href="#DejaVuSans-4f" transform="translate(555.75 0)"/>
      <use xlink:href="#DejaVuSans-52" transform="translate(583.53125 0)"/>
      <use xlink:href="#DejaVuSans-46" transform="translate(644.71875 0)"/>
      <use xlink:href="#DejaVuSans-4e" transform="translate(699.703125 0)"/>
      <use xlink:href="#DejaVuSans-56" transform="translate(757.609375 0)"/>
      <use xlink:href="#DejaVuSans-3" transform="translate(809.703125 0)"/>
      <use xlink:href="#DejaVuSans-53" transform="translate(841.484375 0)"/>
      <use xlink:href="#DejaVuSans-48" transform="translate(904.96875 0)"/>
      <use xlink:href="#DejaVuSans-55" transform="translate(966.5 0)"/>
      <use xlink:href="#DejaVuSans-3" transform="translate(1007.609375 0)"/>
      <use xlink:href="#DejaVuSans-55" transform="translate(1039.390625 0)"/>
      <use xlink:href="#DejaVuSans-58" transform="translate(1080.5 0)"/>
      <use xlink:href="#DejaVuSans-51" transform="translate(1143.875 0)"/>
     </g>
    </g>
   </g>
   <g id="patch_3">
    <path d="M 47.288281 240.048 
L 47.288281 7.2 
" style="fill: none; stroke: #000000; stroke-width: 0.8; stroke-linejoin: miter; stroke-linecap: square"/>
   </g>
   <g id="patch_4">
    <path d="M 465.788281 240.048 
L 465.788281 7.2 
" style="fill: none; stroke: #000000; stroke-width: 0.8; stroke-linejoin: miter; stroke-linecap: square"/>
   </g>
   <g id="patch_5">
    <path d="M 47.288281 240.048 
L 465.788281 240.048 
" style="fill: none; stroke: #000000; stroke-width: 0.8; stroke-linejoin: miter; stroke-linecap: square"/>
   </g>
   <g id="patch_6">
    <path d="M 47.288281 7.2 
L 465.788281 7.2 
" style="fill: none; stroke: #000000; stroke-width: 0.8; stroke-linejoin: miter; stroke-linecap: square"/>
   </g>
   <g id="PathCollection_1">
    <defs>
     <path id="m0868b4e1e1" d="M 0 2.12132 
C 0.562581 2.12132 1.102195 1.897805 1.5 1.5 
C 1.897805 1.102195 2.12132 0.562581 2.12132 0 
C 2.12132 -0.562581 1.897805 -1.102195 1.5 -1.5 
C 1.102195 -1.897805 0.562581 -2.12132 0 -2.12132 
C -0.562581 -2.12132 -1.102195 -1.897805 -1.5 -1.5 
C -1.897805 -1.102195 -2.12132 -0.562581 -2.12132 0 
C -2.12132 0.562581 -1.897805 1.102195 -1.5 1.5 
C -1.102195 1.897805 -0.562581 2.12132 0 2.12132 
z
" style="stroke: #d55e00; stroke-opacity: 0.75"/>
    </defs>
    <g clip-path="url(#pd5da1afac7)">
     <use xlink:href="#m0868b4e1e1" x="66.311009" y="36.485725" style="fill: #d55e00; fill-opacity: 0.75; stroke: #d55e00; stroke-opacity: 0.75"/>
     <use xlink:href="#m0868b4e1e1" x="68.946952" y="63.72826" style="fill: #d55e00; fill-opacity: 0.75; stroke: #d55e00; stroke-opacity: 0.75"/>
     <use xlink:href="#m0868b4e1e1" x="71.582896" y="55.404152" style="fill: #d55e00; fill-opacity: 0.75; stroke: #d55e00; stroke-opacity: 0.75"/>
     <use xlink:href="#m0868b4e1e1" x="74.21884" y="59.944575" style="fill: #d55e00; fill-opacity: 0.75; stroke: #d55e00; stroke-opacity: 0.75"/>
     <use xlink:href="#m0868b4e1e1" x="76.854783" y="69.02542" style="fill: #d55e00; fill-opacity: 0.75; stroke: #d55e00; stroke-opacity: 0.75"/>
     <use xlink:href="#m0868b4e1e1" x="79.490727" y="45.56657" style="fill: #d55e00; fill-opacity: 0.75; stroke: #d55e00; stroke-opacity: 0.75"/>
     <use xlink:href="#m0868b4e1e1" x="82.126671" y="48.593518" style="fill: #d55e00; fill-opacity: 0.75; stroke: #d55e00; stroke-opacity: 0.75"/>
     <use xlink:href="#m0868b4e1e1" x="84.762615" y="56.160889" style="fill: #d55e00; fill-opacity: 0.75; stroke: #d55e00; stroke-opacity: 0.75"/>
     <use xlink:href="#m0868b4e1e1" x="87.398558" y="37.242462" style="fill: #d55e00; fill-opacity: 0.75; stroke: #d55e00; stroke-opacity: 0.75"/>
     <use xlink:href="#m0868b4e1e1" x="90.034502" y="13.026876" style="fill: #d55e00; fill-opacity: 0.75; stroke: #d55e00; stroke-opacity: 0.75"/>
     <use xlink:href="#m0868b4e1e1" x="92.670446" y="50.86373" style="fill: #d55e00; fill-opacity: 0.75; stroke: #d55e00; stroke-opacity: 0.75"/>
     <use xlink:href="#m0868b4e1e1" x="95.30639" y="79.619739" style="fill: #d55e00; fill-opacity: 0.75; stroke: #d55e00; stroke-opacity: 0.75"/>
    </g>
   </g>
   <g id="PathCollection_2">
    <defs>
     <path id="m07b3623c35" d="M 0 2.12132 
C 0.562581 2.12132 1.102195 1.897805 1.5 1.5 
C 1.897805 1.102195 2.12132 0.562581 2.12132 0 
C 2.12132 -0.562581 1.897805 -1.102195 1.5 -1.5 
C 1.102195 -1.897805 0.562581 -2.12132 0 -2.12132 
C -0.562581 -2.12132 -1.102195 -1.897805 -1.5 -1.5 
C -1.897805 -1.102195 -2.12132 -0.562581 -2.12132 0 
C -2.12132 0.562581 -1.897805 1.102195 -1.5 1.5 
C -1.102195 1.897805 -0.562581 2.12132 0 2.12132 
z
" style="stroke: #e69f00; stroke-opacity: 0.75"/>
    </defs>
    <g clip-path="url(#pd5da1afac7)">
     <use xlink:href="#m07b3623c35" x="154.1758" y="41.026148" style="fill: #e69f00; fill-opacity: 0.75; stroke: #e69f00; stroke-opacity: 0.75"/>
     <use xlink:href="#m07b3623c35" x="156.811743" y="69.02542" style="fill: #e69f00; fill-opacity: 0.75; stroke: #e69f00; stroke-opacity: 0.75"/>
     <use xlink:href="#m07b3623c35" x="159.447687" y="59.944575" style="fill: #e69f00; fill-opacity: 0.75; stroke: #e69f00; stroke-opacity: 0.75"/>
     <use xlink:href="#m07b3623c35" x="162.083631" y="69.782157" style="fill: #e69f00; fill-opacity: 0.75; stroke: #e69f00; stroke-opacity: 0.75"/>
     <use xlink:href="#m07b3623c35" x="164.719575" y="83.403424" style="fill: #e69f00; fill-opacity: 0.75; stroke: #e69f00; stroke-opacity: 0.75"/>
     <use xlink:href="#m07b3623c35" x="167.355518" y="50.86373" style="fill: #e69f00; fill-opacity: 0.75; stroke: #e69f00; stroke-opacity: 0.75"/>
     <use xlink:href="#m07b3623c35" x="169.991462" y="50.86373" style="fill: #e69f00; fill-opacity: 0.75; stroke: #e69f00; stroke-opacity: 0.75"/>
     <use xlink:href="#m07b3623c35" x="172.627406" y="57.674363" style="fill: #e69f00; fill-opacity: 0.75; stroke: #e69f00; stroke-opacity: 0.75"/>
     <use xlink:href="#m07b3623c35" x="175.263349" y="44.053096" style="fill: #e69f00; fill-opacity: 0.75; stroke: #e69f00; stroke-opacity: 0.75"/>
     <use xlink:href="#m07b3623c35" x="177.899293" y="17.567298" style="fill: #e69f00; fill-opacity: 0.75; stroke: #e69f00; stroke-opacity: 0.75"/>
     <use xlink:href="#m07b3623c35" x="180.535237" y="55.404152" style="fill: #e69f00; fill-opacity: 0.75; stroke: #e69f00; stroke-opacity: 0.75"/>
     <use xlink:href="#m07b3623c35" x="183.171181" y="85.673635" style="fill: #e69f00; fill-opacity: 0.75; stroke: #e69f00; stroke-opacity: 0.75"/>
    </g>
   </g>
   <g id="PathCollection_3">
    <defs>
     <path id="m869fe9aa06" d="M 0 2.12132 
C 0.562581 2.12132 1.102195 1.897805 1.5 1.5 
C 1.897805 1.102195 2.12132 0.562581 2.12132 0 
C 2.12132 -0.562581 1.897805 -1.102195 1.5 -1.5 
C 1.102195 -1.897805 0.562581 -2.12132 0 -2.12132 
C -0.562581 -2.12132 -1.102195 -1.897805 -1.5 -1.5 
C -1.897805 -1.102195 -2.12132 -0.562581 -2.12132 0 
C -2.12132 0.562581 -1.897805 1.102195 -1.5 1.5 
C -1.102195 1.897805 -0.562581 2.12132 0 2.12132 
z
" style="stroke: #56b4e9; stroke-opacity: 0.75"/>
    </defs>
    <g clip-path="url(#pd5da1afac7)">
     <use xlink:href="#m869fe9aa06" x="242.040591" y="101.565114" style="fill: #56b4e9; fill-opacity: 0.75; stroke: #56b4e9; stroke-opacity: 0.75"/>
     <use xlink:href="#m869fe9aa06" x="244.676534" y="106.862274" style="fill: #56b4e9; fill-opacity: 0.75; stroke: #56b4e9; stroke-opacity: 0.75"/>
     <use xlink:href="#m869fe9aa06" x="247.312478" y="102.321851" style="fill: #56b4e9; fill-opacity: 0.75; stroke: #56b4e9; stroke-opacity: 0.75"/>
     <use xlink:href="#m869fe9aa06" x="249.948422" y="107.619011" style="fill: #56b4e9; fill-opacity: 0.75; stroke: #56b4e9; stroke-opacity: 0.75"/>
     <use xlink:href="#m869fe9aa06" x="252.584366" y="115.943119" style="fill: #56b4e9; fill-opacity: 0.75; stroke: #56b4e9; stroke-opacity: 0.75"/>
     <use xlink:href="#m869fe9aa06" x="255.220309" y="103.835325" style="fill: #56b4e9; fill-opacity: 0.75; stroke: #56b4e9; stroke-opacity: 0.75"/>
     <use xlink:href="#m869fe9aa06" x="257.856253" y="100.05164" style="fill: #56b4e9; fill-opacity: 0.75; stroke: #56b4e9; stroke-opacity: 0.75"/>
     <use xlink:href="#m869fe9aa06" x="260.492197" y="106.105537" style="fill: #56b4e9; fill-opacity: 0.75; stroke: #56b4e9; stroke-opacity: 0.75"/>
     <use xlink:href="#m869fe9aa06" x="263.128141" y="106.105537" style="fill: #56b4e9; fill-opacity: 0.75; stroke: #56b4e9; stroke-opacity: 0.75"/>
     <use xlink:href="#m869fe9aa06" x="265.764084" y="96.267955" style="fill: #56b4e9; fill-opacity: 0.75; stroke: #56b4e9; stroke-opacity: 0.75"/>
     <use xlink:href="#m869fe9aa06" x="268.400028" y="102.321851" style="fill: #56b4e9; fill-opacity: 0.75; stroke: #56b4e9; stroke-opacity: 0.75"/>
     <use xlink:href="#m869fe9aa06" x="271.035972" y="115.186382" style="fill: #56b4e9; fill-opacity: 0.75; stroke: #56b4e9; stroke-opacity: 0.75"/>
    </g>
   </g>
   <g id="PathCollection_4">
    <defs>
     <path id="mdebfcb7e29" d="M 0 2.12132 
C 0.562581 2.12132 1.102195 1.897805 1.5 1.5 
C 1.897805 1.102195 2.12132 0.562581 2.12132 0 
C 2.12132 -0.562581 1.897805 -1.102195 1.5 -1.5 
C 1.102195 -1.897805 0.562581 -2.12132 0 -2.12132 
C -0.562581 -2.12132 -1.102195 -1.897805 -1.5 -1.5 
C -1.897805 -1.102195 -2.12132 -0.562581 -2.12132 0 
C -2.12132 0.562581 -1.897805 1.102195 -1.5 1.5 
C -1.102195 1.897805 -0.562581 2.12132 0 2.12132 
z
" style="stroke: #0072b2; stroke-opacity: 0.75"/>
    </defs>
    <g clip-path="url(#pd5da1afac7)">
     <use xlink:href="#mdebfcb7e29" x="329.905382" y="114.429644" style="fill: #0072b2; fill-opacity: 0.75; stroke: #0072b2; stroke-opacity: 0.75"/>
     <use xlink:href="#mdebfcb7e29" x="332.541326" y="117.456593" style="fill: #0072b2; fill-opacity: 0.75; stroke: #0072b2; stroke-opacity: 0.75"/>
     <use xlink:href="#mdebfcb7e29" x="335.177269" y="109.889222" style="fill: #0072b2; fill-opacity: 0.75; stroke: #0072b2; stroke-opacity: 0.75"/>
     <use xlink:href="#mdebfcb7e29" x="337.813213" y="115.943119" style="fill: #0072b2; fill-opacity: 0.75; stroke: #0072b2; stroke-opacity: 0.75"/>
     <use xlink:href="#mdebfcb7e29" x="340.449157" y="125.780701" style="fill: #0072b2; fill-opacity: 0.75; stroke: #0072b2; stroke-opacity: 0.75"/>
     <use xlink:href="#mdebfcb7e29" x="343.0851" y="115.943119" style="fill: #0072b2; fill-opacity: 0.75; stroke: #0072b2; stroke-opacity: 0.75"/>
     <use xlink:href="#mdebfcb7e29" x="345.721044" y="112.91617" style="fill: #0072b2; fill-opacity: 0.75; stroke: #0072b2; stroke-opacity: 0.75"/>
     <use xlink:href="#mdebfcb7e29" x="348.356988" y="115.943119" style="fill: #0072b2; fill-opacity: 0.75; stroke: #0072b2; stroke-opacity: 0.75"/>
     <use xlink:href="#mdebfcb7e29" x="350.992932" y="115.186382" style="fill: #0072b2; fill-opacity: 0.75; stroke: #0072b2; stroke-opacity: 0.75"/>
     <use xlink:href="#mdebfcb7e29" x="353.628875" y="103.078588" style="fill: #0072b2; fill-opacity: 0.75; stroke: #0072b2; stroke-opacity: 0.75"/>
     <use xlink:href="#mdebfcb7e29" x="356.264819" y="110.645959" style="fill: #0072b2; fill-opacity: 0.75; stroke: #0072b2; stroke-opacity: 0.75"/>
     <use xlink:href="#mdebfcb7e29" x="358.900763" y="129.564386" style="fill: #0072b2; fill-opacity: 0.75; stroke: #0072b2; stroke-opacity: 0.75"/>
    </g>
   </g>
   <g id="PathCollection_5">
    <defs>
     <path id="med56818b36" d="M 0 2.12132 
C 0.562581 2.12132 1.102195 1.897805 1.5 1.5 
C 1.897805 1.102195 2.12132 0.562581 2.12132 0 
C 2.12132 -0.562581 1.897805 -1.102195 1.5 -1.5 
C 1.102195 -1.897805 0.562581 -2.12132 0 -2.12132 
C -0.562581 -2.12132 -1.102195 -1.897805 -1.5 -1.5 
C -1.897805 -1.102195 -2.12132 -0.562581 -2.12132 0 
C -2.12132 0.562581 -1.897805 1.102195 -1.5 1.5 
C -1.102195 1.897805 -0.562581 2.12132 0 2.12132 
z
" style="stroke: #009e73; stroke-opacity: 0.75"/>
    </defs>
    <g clip-path="url(#pd5da1afac7)">
     <use xlink:href="#med56818b36" x="417.770173" y="113.672907" style="fill: #009e73; fill-opacity: 0.75; stroke: #009e73; stroke-opacity: 0.75"/>
     <use xlink:href="#med56818b36" x="420.406117" y="114.429644" style="fill: #009e73; fill-opacity: 0.75; stroke: #009e73; stroke-opacity: 0.75"/>
     <use xlink:href="#med56818b36" x="423.04206" y="115.186382" style="fill: #009e73; fill-opacity: 0.75; stroke: #009e73; stroke-opacity: 0.75"/>
     <use xlink:href="#med56818b36" x="425.678004" y="121.240278" style="fill: #009e73; fill-opacity: 0.75; stroke: #009e73; stroke-opacity: 0.75"/>
     <use xlink:href="#med56818b36" x="428.313948" y="123.510489" style="fill: #009e73; fill-opacity: 0.75; stroke: #009e73; stroke-opacity: 0.75"/>
     <use xlink:href="#med56818b36" x="430.949892" y="115.943119" style="fill: #009e73; fill-opacity: 0.75; stroke: #009e73; stroke-opacity: 0.75"/>
     <use xlink:href="#med56818b36" x="433.585835" y="114.429644" style="fill: #009e73; fill-opacity: 0.75; stroke: #009e73; stroke-opacity: 0.75"/>
     <use xlink:href="#med56818b36" x="436.221779" y="115.186382" style="fill: #009e73; fill-opacity: 0.75; stroke: #009e73; stroke-opacity: 0.75"/>
     <use xlink:href="#med56818b36" x="438.857723" y="115.186382" style="fill: #009e73; fill-opacity: 0.75; stroke: #009e73; stroke-opacity: 0.75"/>
     <use xlink:href="#med56818b36" x="441.493667" y="105.348799" style="fill: #009e73; fill-opacity: 0.75; stroke: #009e73; stroke-opacity: 0.75"/>
     <use xlink:href="#med56818b36" x="444.12961" y="115.186382" style="fill: #009e73; fill-opacity: 0.75; stroke: #009e73; stroke-opacity: 0.75"/>
     <use xlink:href="#med56818b36" x="446.765554" y="125.023964" style="fill: #009e73; fill-opacity: 0.75; stroke: #009e73; stroke-opacity: 0.75"/>
    </g>
   </g>
   <g id="LineCollection_1">
    <path d="M 80.808699 60.449066 
L 80.808699 41.404516 
" clip-path="url(#pd5da1afac7)" style="fill: none; stroke: #000000; stroke-width: 1.5"/>
   </g>
   <g id="line2d_20">
    <defs>
     <path id="m695baa1697" d="M 5 0 
L -5 -0 
" style="stroke: #000000"/>
    </defs>
    <g clip-path="url(#pd5da1afac7)">
     <use xlink:href="#m695baa1697" x="80.808699" y="60.449066" style="stroke: #000000"/>
    </g>
   </g>
   <g id="line2d_21">
    <g clip-path="url(#pd5da1afac7)">
     <use xlink:href="#m695baa1697" x="80.808699" y="41.404516" style="stroke: #000000"/>
    </g>
   </g>
   <g id="LineCollection_2">
    <path d="M 168.67349 67.007454 
L 168.67349 46.764737 
" clip-path="url(#pd5da1afac7)" style="fill: none; stroke: #000000; stroke-width: 1.5"/>
   </g>
   <g id="line2d_22">
    <g clip-path="url(#pd5da1afac7)">
     <use xlink:href="#m695baa1697" x="168.67349" y="67.007454" style="stroke: #000000"/>
    </g>
   </g>
   <g id="line2d_23">
    <g clip-path="url(#pd5da1afac7)">
     <use xlink:href="#m695baa1697" x="168.67349" y="46.764737" style="stroke: #000000"/>
    </g>
   </g>
   <g id="LineCollection_3">
    <path d="M 256.538281 108.564932 
L 256.538281 102.447974 
" clip-path="url(#pd5da1afac7)" style="fill: none; stroke: #000000; stroke-width: 1.5"/>
   </g>
   <g id="line2d_24">
    <g clip-path="url(#pd5da1afac7)">
     <use xlink:href="#m695baa1697" x="256.538281" y="108.564932" style="stroke: #000000"/>
    </g>
   </g>
   <g id="line2d_25">
    <g clip-path="url(#pd5da1afac7)">
     <use xlink:href="#m695baa1697" x="256.538281" y="102.447974" style="stroke: #000000"/>
    </g>
   </g>
   <g id="LineCollection_4">
    <path d="M 344.403072 119.474558 
L 344.403072 111.907188 
" clip-path="url(#pd5da1afac7)" style="fill: none; stroke: #000000; stroke-width: 1.5"/>
   </g>
   <g id="line2d_26">
    <g clip-path="url(#pd5da1afac7)">
     <use xlink:href="#m695baa1697" x="344.403072" y="119.474558" style="stroke: #000000"/>
    </g>
   </g>
   <g id="line2d_27">
    <g clip-path="url(#pd5da1afac7)">
     <use xlink:href="#m695baa1697" x="344.403072" y="111.907188" style="stroke: #000000"/>
    </g>
   </g>
   <g id="LineCollection_5">
    <path d="M 432.267863 118.970067 
L 432.267863 113.3576 
" clip-path="url(#pd5da1afac7)" style="fill: none; stroke: #000000; stroke-width: 1.5"/>
   </g>
   <g id="line2d_28">
    <g clip-path="url(#pd5da1afac7)">
     <use xlink:href="#m695baa1697" x="432.267863" y="118.970067" style="stroke: #000000"/>
    </g>
   </g>
   <g id="line2d_29">
    <g clip-path="url(#pd5da1afac7)">
     <use xlink:href="#m695baa1697" x="432.267863" y="113.3576" style="stroke: #000000"/>
    </g>
   </g>
   <g id="line2d_30">
    <defs>
     <path id="m0c59718b59" d="M -0 4.949747 
L 4.949747 0 
L 0 -4.949747 
L -4.949747 -0 
z
" style="stroke: #000000; stroke-linejoin: miter"/>
    </defs>
    <g clip-path="url(#pd5da1afac7)">
     <use xlink:href="#m0c59718b59" x="80.808699" y="51.30516" style="fill: #d55e00; stroke: #000000; stroke-linejoin: miter"/>
    </g>
   </g>
   <g id="line2d_31">
    <defs>
     <path id="m13377a64e4" d="M -0 4.949747 
L 4.949747 0 
L 0 -4.949747 
L -4.949747 -0 
z
" style="stroke: #000000; stroke-linejoin: miter"/>
    </defs>
    <g clip-path="url(#pd5da1afac7)">
     <use xlink:href="#m13377a64e4" x="168.67349" y="57.106811" style="fill: #e69f00; stroke: #000000; stroke-linejoin: miter"/>
    </g>
   </g>
   <g id="line2d_32">
    <defs>
     <path id="m252a19a6ba" d="M -0 4.949747 
L 4.949747 0 
L 0 -4.949747 
L -4.949747 -0 
z
" style="stroke: #000000; stroke-linejoin: miter"/>
    </defs>
    <g clip-path="url(#pd5da1afac7)">
     <use xlink:href="#m252a19a6ba" x="256.538281" y="105.348799" style="fill: #56b4e9; stroke: #000000; stroke-linejoin: miter"/>
    </g>
   </g>
   <g id="line2d_33">
    <defs>
     <path id="m7dcd5620a6" d="M -0 4.949747 
L 4.949747 0 
L 0 -4.949747 
L -4.949747 -0 
z
" style="stroke: #000000; stroke-linejoin: miter"/>
    </defs>
    <g clip-path="url(#pd5da1afac7)">
     <use xlink:href="#m7dcd5620a6" x="344.403072" y="115.56475" style="fill: #0072b2; stroke: #000000; stroke-linejoin: miter"/>
    </g>
   </g>
   <g id="line2d_34">
    <defs>
     <path id="m2d5935fa0d" d="M -0 4.949747 
L 4.949747 0 
L 0 -4.949747 
L -4.949747 -0 
z
" style="stroke: #000000; stroke-linejoin: miter"/>
    </defs>
    <g clip-path="url(#pd5da1afac7)">
     <use xlink:href="#m2d5935fa0d" x="432.267863" y="116.195364" style="fill: #009e73; stroke: #000000; stroke-linejoin: miter"/>
    </g>
   </g>
  </g>
 </g>
 <defs>
  <clipPath id="pd5da1afac7">
   <rect x="47.288281" y="7.2" width="418.5" height="232.848"/>
  </clipPath>
 </defs>
</svg>
